<?xml version="1.0" encoding="UTF-8"?>
<svg version="1.1" xmlns="http://www.w3.org/2000/svg" width="500" height="150">
<path d="M0 0 C165 0 330 0 500 0 C500 49.5 500 99 500 150 C335 150 170 150 0 150 C0 100.5 0 51 0 0 Z " fill="#FCFCFC" transform="translate(0,0)"/>
<path d="M0 0 C44.88 0 89.76 0 136 0 C132.69487751 7.71195249 132.69487751 7.71195249 129.6875 11.625 C121.78625982 22.70337044 118.29903572 34.99362466 115 48 C112.30476512 46.7282225 110.28821275 45.45904169 107.875 43.625 C104.97151922 41.49274403 102.11712615 40.13222438 98.7578125 38.8359375 C97.86465332 38.48837402 96.97149414 38.14081055 96.05126953 37.78271484 C95.37435059 37.52441895 94.69743164 37.26612305 94 37 C92.82266966 58.0846422 92.82266966 58.0846422 98.1015625 78.203125 C99 80 99 80 99 83 C98.07058594 83.06058594 97.14117187 83.12117188 96.18359375 83.18359375 C94.32927734 83.30927734 94.32927734 83.30927734 92.4375 83.4375 C91.21933594 83.51871094 90.00117187 83.59992188 88.74609375 83.68359375 C85.12519214 83.9894259 81.58982228 84.4502074 78 85 C87.9378084 106.60115267 101.9432016 122.40500017 124 132 C127.29523303 133.21248931 130.59132219 134.16443125 134 135 C135.12921875 135.30744141 135.12921875 135.30744141 136.28125 135.62109375 C148.22701052 138.50798588 160.02948519 137.44322911 171.79296875 134.4609375 C175 134 175 134 180 136 C180 140.29 180 144.58 180 149 C177.01890615 150.49054693 174.3287521 150.12259406 171.00192261 150.12025452 C170.27334144 150.12110894 169.54476027 150.12196337 168.79410088 150.12284368 C166.34041113 150.12449743 163.88678898 150.11897883 161.43310547 150.11352539 C159.6791382 150.11324347 157.92517081 150.11340135 156.17120361 150.1139679 C151.39873671 150.11425568 146.62629476 150.10836199 141.85383368 150.10139394 C136.87034067 150.09515726 131.88684714 150.09455635 126.90335083 150.09336853 C117.46151501 150.09025614 108.01969073 150.082044 98.57786 150.07201904 C85.8225552 150.05876895 73.06724727 150.05335725 60.31193733 150.04751682 C40.20794958 150.03810405 20.10398616 150.01818451 0 150 C0 100.5 0 51 0 0 Z " fill="#FEFEFE" transform="translate(0,0)"/>
<path d="M0 0 C0.66 0 1.32 0 2 0 C10.70325974 12.39428074 14.676318 25.88682805 13 41 C11.04709638 49.22227177 7.3954085 55.12360814 2 61.5 C-6.42262881 72.02828602 -7.77392227 82.89898 -6.7734375 95.95703125 C-5.04750137 106.70182974 0.86081087 115.92085496 9 123 C16.71037134 127.77539331 23.27811278 129.98098879 32.25 130.5625 C33.51328125 130.64628906 34.7765625 130.73007813 36.078125 130.81640625 C37.04234375 130.87699219 38.0065625 130.93757812 39 131 C25.83049202 138.05933085 7.83795096 135.90700303 -6 132 C-9.82053284 130.58372604 -13.39868026 128.89990884 -17 127 C-17.76699219 126.61972656 -18.53398438 126.23945313 -19.32421875 125.84765625 C-25.49345246 122.64999061 -30.75651574 118.53582703 -36 114 C-36.67933594 113.41734375 -37.35867187 112.8346875 -38.05859375 112.234375 C-46.66282059 104.27070428 -54.1897966 93.44154243 -57 82 C-50.11997829 79.37903935 -43.27823961 79.81829638 -36 80 C-36.26554687 79.33355469 -36.53109375 78.66710937 -36.8046875 77.98046875 C-41.71825175 65.15857665 -45.49372672 47.48118017 -41 34 C-32.54634566 35.76041392 -26.68779576 39.6472205 -20 45 C-19.938125 43.989375 -19.87625 42.97875 -19.8125 41.9375 C-17.82991264 26.89627054 -10.29851961 11.13956538 0 0 Z " fill="#E9282D" transform="translate(135,3)"/>
<path d="M0 0 C7.8286921 -0.14867501 15.65655664 -0.25737724 23.48632812 -0.32958984 C26.14849728 -0.35630869 28.8087174 -0.40058855 31.47070312 -0.45263672 C35.30363367 -0.52568584 39.13524868 -0.55951361 42.96875 -0.5859375 C44.74421204 -0.63238907 44.74421204 -0.63238907 46.55554199 -0.67977905 C53.11573895 -0.68243219 57.60738258 -0.13372848 62.62390137 4.32266235 C64.68704852 6.83744894 64.91971494 8.61662762 64.78125 11.8359375 C64.75546875 12.89941406 64.7296875 13.96289062 64.703125 15.05859375 C64.63609375 16.15300781 64.5690625 17.24742188 64.5 18.375 C64.46390625 19.49261719 64.4278125 20.61023438 64.390625 21.76171875 C64.29662041 24.51135294 64.16539009 27.25388846 64 30 C63.34 30 62.68 30 62 30 C60.23537317 33.08809695 60 34.23312136 60 38 C60.64541748 38.4547168 61.29083496 38.90943359 61.95581055 39.37792969 C64 41 64 41 64.59692383 43.70800781 C64.7162094 47.22362605 64.79224102 50.73230352 64.8125 54.25 C64.86986328 55.46558594 64.92722656 56.68117187 64.98632812 57.93359375 C64.99728516 59.11566406 65.00824219 60.29773438 65.01953125 61.515625 C65.04120361 62.59102539 65.06287598 63.66642578 65.08520508 64.77441406 C63.32474643 70.0070754 59.86976182 72.57587751 55 75 C50.66272138 75.88706559 46.50202501 75.82141739 42.08984375 75.68359375 C40.27777184 75.6687368 40.27777184 75.6687368 38.42909241 75.65357971 C34.59728988 75.61461496 30.76842634 75.52681526 26.9375 75.4375 C24.32881761 75.4023635 21.72009001 75.37042863 19.11132812 75.34179688 C12.73976519 75.26490962 6.37037964 75.14424099 0 75 C0 70.71 0 66.42 0 62 C2.31 62 4.62 62 7 62 C7 45.83 7 29.66 7 13 C4.69 13 2.38 13 0 13 C0 8.71 0 4.42 0 0 Z " fill="#2E3A8E" transform="translate(267,40)"/>
<path d="M0 0 C0.95011963 -0.00574036 1.90023926 -0.01148071 2.87915039 -0.01739502 C4.87941892 -0.02146127 6.87976833 -0.01050618 8.87988281 0.01464844 C11.92955498 0.04679126 14.97392879 0.01491492 18.0234375 -0.0234375 C19.97396995 -0.01947235 21.92449912 -0.01178438 23.875 0 C24.77935791 -0.01214539 25.68371582 -0.02429077 26.61547852 -0.0368042 C32.33292385 0.08925669 35.46255497 1.25833239 39.69325256 5.13473511 C41.89898897 8.08128928 41.67933921 11.19294306 41.375 14.671875 C41.230625 17.023125 41.08625 19.374375 40.9375 21.796875 C34.9975 21.796875 29.0575 21.796875 22.9375 21.796875 C22.9375 19.156875 22.9375 16.516875 22.9375 13.796875 C15.6775 13.796875 8.4175 13.796875 0.9375 13.796875 C0.9375 29.966875 0.9375 46.136875 0.9375 62.796875 C8.1975 62.796875 15.4575 62.796875 22.9375 62.796875 C22.9375 58.506875 22.9375 54.216875 22.9375 49.796875 C28.8775 49.796875 34.8175 49.796875 40.9375 49.796875 C41.1544431 53.00883814 41.31226869 56.20611388 41.4375 59.421875 C41.53804688 60.77732422 41.53804688 60.77732422 41.640625 62.16015625 C41.66640625 63.04316406 41.6921875 63.92617187 41.71875 64.8359375 C41.76064453 65.64240723 41.80253906 66.44887695 41.84570312 67.27978516 C40.2874794 71.59841058 36.92693682 73.73742526 32.9375 75.796875 C29.68079803 76.59149881 26.59163623 76.64136808 23.25 76.59375 C21.89708862 76.60236053 21.89708862 76.60236053 20.5168457 76.61114502 C18.62090525 76.61520529 16.724879 76.60429247 14.82910156 76.57910156 C11.94403951 76.54694788 9.06457748 76.57885336 6.1796875 76.6171875 C4.32811276 76.61322224 2.47654148 76.60553404 0.625 76.59375 C-0.22731201 76.60589539 -1.07962402 76.61804077 -1.95776367 76.6305542 C-7.2966823 76.50657446 -11.41864373 75.48655583 -15.55325317 71.97711182 C-18.86758074 67.18928066 -18.17911918 61.24667053 -18.08984375 55.640625 C-18.09269687 54.25109132 -18.09807361 52.86156075 -18.10585022 51.4720459 C-18.11311337 48.56637939 -18.09211444 45.66269118 -18.05053711 42.75732422 C-17.99934949 39.04403361 -18.01522485 35.33467134 -18.05191708 31.62133026 C-18.07339109 28.75389399 -18.06089992 25.88737024 -18.03814888 23.01997375 C-18.03099596 21.65173356 -18.03384695 20.2834013 -18.04713249 18.91520691 C-18.11788635 8.61008982 -18.11788635 8.61008982 -15.79348755 4.61663818 C-11.24742202 0.09151996 -6.12893983 -0.08231071 0 0 Z " fill="#2F3B8E" transform="translate(357.0625,39.203125)"/>
<path d="M0 0 C20.46 0 40.92 0 62 0 C62 7.26 62 14.52 62 22 C56.06 22 50.12 22 44 22 C44 19.03 44 16.06 44 13 C37.73 13 31.46 13 25 13 C25 18.94 25 24.88 25 31 C29.95 31 34.9 31 40 31 C40 35.29 40 39.58 40 44 C35.05 44 30.1 44 25 44 C25 49.94 25 55.88 25 62 C27.31 62 29.62 62 32 62 C32 66.29 32 70.58 32 75 C21.44 75 10.88 75 0 75 C0 70.71 0 66.42 0 62 C2.31 62 4.62 62 7 62 C7 45.83 7 29.66 7 13 C4.69 13 2.38 13 0 13 C0 8.71 0 4.42 0 0 Z " fill="#2F3A8E" transform="translate(196,40)"/>
<path d="M0 0 C10.56 0 21.12 0 32 0 C32 4.29 32 8.58 32 13 C29.69 13 27.38 13 25 13 C25 29.17 25 45.34 25 62 C27.31 62 29.62 62 32 62 C32 66.29 32 70.58 32 75 C21.44 75 10.88 75 0 75 C0 70.71 0 66.42 0 62 C2.31 62 4.62 62 7 62 C7 45.83 7 29.66 7 13 C4.69 13 2.38 13 0 13 C0 8.71 0 4.42 0 0 Z " fill="#2E398D" transform="translate(154,40)"/>
<path d="M0 0 C0.66 0.33 1.32 0.66 2 1 C1.67 1.66 1.34 2.32 1 3 C1.80824219 2.96519531 2.61648438 2.93039063 3.44921875 2.89453125 C4.51785156 2.86746094 5.58648437 2.84039062 6.6875 2.8125 C7.74324219 2.77769531 8.79898438 2.74289063 9.88671875 2.70703125 C13.41531931 3.03908275 15.23679304 3.80153607 18 6 C18.5625 9.4375 18.5625 9.4375 18 13 C15.89430205 15.68658014 13.84898175 17.10067884 11 19 C10.01 19 9.02 19 8 19 C8 20.299375 8 21.59875 8 22.9375 C8 24.625 8 26.3125 8 28 C8.99 28.33 9.98 28.66 11 29 C11 29.33 11 29.66 11 30 C3.63108899 30.07587179 -3.73772186 30.12852436 -11.10693359 30.16479492 C-13.61543542 30.1799103 -16.12391072 30.20040298 -18.63232422 30.22631836 C-22.23151182 30.26258042 -25.830351 30.27969874 -29.4296875 30.29296875 C-30.55680145 30.30845261 -31.68391541 30.32393646 -32.84518433 30.33988953 C-33.88611237 30.34011612 -34.92704041 30.34034271 -35.99951172 30.34057617 C-36.91884491 30.34723801 -37.8381781 30.35389984 -38.78536987 30.36076355 C-39.51619781 30.24171158 -40.24702576 30.12265961 -41 30 C-43.26598448 26.60102327 -43.23742654 25.43680827 -43.1953125 21.45703125 C-43.18886719 20.38388672 -43.18242187 19.31074219 -43.17578125 18.20507812 C-43.15064453 16.52575195 -43.15064453 16.52575195 -43.125 14.8125 C-43.11597656 13.68134766 -43.10695313 12.55019531 -43.09765625 11.38476562 C-43.07406862 8.58963172 -43.041153 5.79492155 -43 3 C-36.33333333 3 -29.66666667 3 -23 3 C-21.32900023 2.68911632 -19.66128463 2.35919668 -18 2 C-16.68 3.98 -15.36 5.96 -14 8 C-13.195625 7.195625 -12.39125 6.39125 -11.5625 5.5625 C-10.375 4.375 -9.1875 3.1875 -8 2 C-6.5459375 2.0309375 -6.5459375 2.0309375 -5.0625 2.0625 C-1.88968786 2.35137574 -1.88968786 2.35137574 0 0 Z " fill="#FBF4EA" transform="translate(356,120)"/>
<path d="M0 0 C0.66 0 1.32 0 2 0 C10.70325974 12.39428074 14.676318 25.88682805 13 41 C11.0568029 49.18140461 7.46325588 55.14550034 2.00390625 61.43359375 C-1.45174018 65.85924619 -3.68996615 70.90742537 -6 76 C-6.33 76 -6.66 76 -7 76 C-7.08636719 75.17757812 -7.17273438 74.35515625 -7.26171875 73.5078125 C-8.45420472 64.03356616 -10.56559081 56.35776003 -17.375 49.4375 C-19.01407706 47.60359724 -19.90736417 46.53074882 -20.33203125 44.09765625 C-20.16040347 41.60673421 -19.65478454 39.41254837 -19 37 C-18.70738281 35.89527344 -18.41476563 34.79054687 -18.11328125 33.65234375 C-14.45589293 21.4482164 -8.71157719 9.42302266 0 0 Z " fill="#2F3B8F" transform="translate(135,3)"/>
<path d="M0 0 C10.97775565 1.93287797 20.05700027 9.05130719 27.0625 17.5 C33.84124161 27.43193726 34.53416154 36.45293068 34.25 48.125 C34.22989039 49.57289177 34.21164755 51.02081073 34.1953125 52.46875 C34.15170153 55.97974127 34.0829257 59.4896912 34 63 C31.34037355 61.79605387 30.12330124 61.1707248 28.375 58.75 C24.9192064 54.74855478 20.60409638 52.51602062 16 50 C15.31421875 49.62488281 14.6284375 49.24976563 13.921875 48.86328125 C11.0466466 47.57176605 8.10966018 47.35880694 5 47 C-0.00358907 33.08224982 -4.88370118 14.65110353 0 0 Z " fill="#F79527" transform="translate(94,37)"/>
<path d="M0 0 C0.99 0.66 1.98 1.32 3 2 C2.34 2 1.68 2 1 2 C1.495 2.86625 1.495 2.86625 2 3.75 C3 6 3 6 3 10 C3.66 10 4.32 10 5 10 C5 8.02 5 6.04 5 4 C8.875 5.75 8.875 5.75 10 8 C10.33 6.68 10.66 5.36 11 4 C11.66 4 12.32 4 13 4 C13.08121924 5.60332791 13.13929134 7.20784026 13.1875 8.8125 C13.23970703 10.15248047 13.23970703 10.15248047 13.29296875 11.51953125 C12.95081002 14.41647515 12.24606427 15.22555028 10 17 C11.65 17.33 13.3 17.66 15 18 C15 18.66 15 19.32 15 20 C13.68 20 12.36 20 11 20 C11 21.32 11 22.64 11 24 C12.32 24 13.64 24 15 24 C15 24.66 15 25.32 15 26 C12.625 26.125 12.625 26.125 10 26 C8 24 8 24 7.875 20.875 C7.91625 19.92625 7.9575 18.9775 8 18 C6.68 17.67 5.36 17.34 4 17 C3.505 18.485 3.505 18.485 3 20 C2.01 20 1.02 20 0 20 C0 20.66 0 21.32 0 22 C0.66 22 1.32 22 2 22 C1.505 24.475 1.505 24.475 1 27 C-0.65 27 -2.3 27 -4 27 C-4.33 27.66 -4.66 28.32 -5 29 C-5 28.01 -5 27.02 -5 26 C-5.99 26.495 -5.99 26.495 -7 27 C-8.95637514 27.0969632 -10.91622931 27.12978917 -12.875 27.125 C-13.92429688 27.12757813 -14.97359375 27.13015625 -16.0546875 27.1328125 C-18.6012417 27.01798114 -20.63327244 26.92334214 -23 26 C-23.66 25.01 -24.32 24.02 -25 23 C-25.495 24.485 -25.495 24.485 -26 26 C-28.66666667 26 -31.33333333 26 -34 26 C-35.67745682 26.63903117 -37.34561387 27.30341637 -39 28 C-39 28.66 -39 29.32 -39 30 C-45.93 30 -52.86 30 -60 30 C-59.34 29.67 -58.68 29.34 -58 29 C-58 25.37 -58 21.74 -58 18 C-56.02 18 -54.04 18 -52 18 C-53.93254772 15.9754262 -55.63158688 14.57894208 -58 13 C-58.29296875 10.8359375 -58.29296875 10.8359375 -58.1875 8.375 C-58.16042969 7.55773437 -58.13335937 6.74046875 -58.10546875 5.8984375 C-58.05326172 4.95871094 -58.05326172 4.95871094 -58 4 C-52.46153846 3.63076923 -52.46153846 3.63076923 -50.125 5.5 C-49.75375 5.995 -49.3825 6.49 -49 7 C-48.67 6.01 -48.34 5.02 -48 4 C-47.34 4 -46.68 4 -46 4 C-46 6.97 -46 9.94 -46 13 C-46.66 13 -47.32 13 -48 13 C-49.625 11 -49.625 11 -51 9 C-51.79356801 10.74671588 -51.79356801 10.74671588 -52 13 C-50.79031105 15.7667506 -50.79031105 15.7667506 -49 18 C-48.34 18 -47.68 18 -47 18 C-46.67 19.98 -46.34 21.96 -46 24 C-45.34 24 -44.68 24 -44 24 C-43.7525 22.88625 -43.505 21.7725 -43.25 20.625 C-42 17 -42 17 -39.875 15.5625 C-39.25625 15.376875 -38.6375 15.19125 -38 15 C-38.33 13.68 -38.66 12.36 -39 11 C-39.99 11 -40.98 11 -42 11 C-42 11.66 -42 12.32 -42 13 C-42.66 13 -43.32 13 -44 13 C-44 10.03 -44 7.06 -44 4 C-41.69 4 -39.38 4 -37 4 C-37 3.34 -37 2.68 -37 2 C-36.34 2 -35.68 2 -35 2 C-35 2.66 -35 3.32 -35 4 C-33.576875 3.938125 -33.576875 3.938125 -32.125 3.875 C-29 4 -29 4 -27 6 C-24.42938689 6.64767793 -24.42938689 6.64767793 -22 7 C-21.67 6.01 -21.34 5.02 -21 4 C-19.02 4 -17.04 4 -15 4 C-15 4.66 -15 5.32 -15 6 C-16.32 6 -17.64 6 -19 6 C-19 6.66 -19 7.32 -19 8 C-17.68 8 -16.36 8 -15 8 C-15 8.99 -15 9.98 -15 11 C-15.99 11 -16.98 11 -18 11 C-18.33 12.98 -18.66 14.96 -19 17 C-16.75026553 17.054138 -14.50015617 17.09285491 -12.25 17.125 C-10.37054688 17.15980469 -10.37054688 17.15980469 -8.453125 17.1953125 C-5.27179508 17.01537302 -3.63478104 16.68998582 -1 15 C-3.72842061 13.63578969 -5.60953318 14.12192789 -8.625 14.4375 C-11.285625 14.7159375 -11.285625 14.7159375 -14 15 C-13.67 11.37 -13.34 7.74 -13 4 C-10.33333333 4 -7.66666667 4 -5 4 C-3.37485532 2.54166642 -3.37485532 2.54166642 -2 1 C-2 1.66 -2 2.32 -2 3 C-1.34 3 -0.68 3 0 3 C0 2.01 0 1.02 0 0 Z " fill="#F9F1F0" transform="translate(238,120)"/>
<path d="M0 0 C0.66 0.33 1.32 0.66 2 1 C5.83588262 1.17048367 9.2651627 0.87878525 13 0 C12.01 0.33 11.02 0.66 10 1 C10 1.66 10 2.32 10 3 C11.32 3.33 12.64 3.66 14 4 C14.495 5.98 14.495 5.98 15 8 C15.99 7.67 16.98 7.34 18 7 C18.66 7.33 19.32 7.66 20 8 C20 6.68 20 5.36 20 4 C21.32 4 22.64 4 24 4 C24 5.32 24 6.64 24 8 C24.66 8 25.32 8 26 8 C26 9.98 26 11.96 26 14 C24.02 14 22.04 14 20 14 C20 14.66 20 15.32 20 16 C22.31 16.33 24.62 16.66 27 17 C27 17.99 27 18.98 27 20 C26.34 20 25.68 20 25 20 C25 21.98 25 23.96 25 26 C24.01 26 23.02 26 22 26 C21.505 24.02 21.505 24.02 21 22 C20.401875 22.33 19.80375 22.66 19.1875 23 C17 24 17 24 14 24 C14 25.98 14 27.96 14 30 C6.08 30 -1.84 30 -10 30 C-9.34 28.68 -8.68 27.36 -8 26 C-8.66 25.01 -9.32 24.02 -10 23 C-10.33 23.99 -10.66 24.98 -11 26 C-11.66 26 -12.32 26 -13 26 C-13.33 25.01 -13.66 24.02 -14 23 C-14.391875 23.495 -14.78375 23.99 -15.1875 24.5 C-17 26 -17 26 -19.625 26.25 C-22 26 -22 26 -23 25 C-23.30867281 21.52743085 -23.38701339 19.6127712 -21.5 16.625 C-21.005 16.08875 -20.51 15.5525 -20 15 C-21.65 15.33 -23.3 15.66 -25 16 C-25.05395478 14.37536158 -25.09277195 12.75021459 -25.125 11.125 C-25.14820313 10.22007812 -25.17140625 9.31515625 -25.1953125 8.3828125 C-25 6 -25 6 -23 4 C-20.375 3.875 -20.375 3.875 -18 4 C-18 4.66 -18 5.32 -18 6 C-19.65 6 -21.3 6 -23 6 C-23 7.65 -23 9.3 -23 11 C-21.02 10.67 -19.04 10.34 -17 10 C-16.67 8.02 -16.34 6.04 -16 4 C-15.34 4 -14.68 4 -14 4 C-14 5.32 -14 6.64 -14 8 C-12.68 8 -11.36 8 -10 8 C-10 6.68 -10 5.36 -10 4 C-7.69 4 -5.38 4 -3 4 C-2.67 3.34 -2.34 2.68 -2 2 C-1.34 2.33 -0.68 2.66 0 3 C0 2.01 0 1.02 0 0 Z " fill="#F8F8F5" transform="translate(278,120)"/>
<path d="M0 0 C3.5625 1.8125 3.5625 1.8125 6 4 C6.53753906 4.44988281 7.07507813 4.89976563 7.62890625 5.36328125 C9.84635262 8.01031838 9.41340598 10.46359666 9.2734375 13.78515625 C8.87752935 16.99201228 8.19413257 18.6001675 6 21 C0.78577514 24.64396404 -3.71557963 25.79802163 -10 25 C-13.65968434 23.63127806 -16.36773091 21.73424798 -18.9375 18.75 C-20.77031255 14.00624988 -20.7936769 9.87976109 -18.8125 5.1875 C-13.72663386 -0.9506143 -7.44375625 -0.92794793 0 0 Z " fill="#F5982C" transform="translate(396,123)"/>
<path d="M0 0 C8.24542951 -0.50852869 14.78780761 3.92957022 20.9375 9.125 C21.97546891 10.06474679 22.9959718 11.02407437 24 12 C24.67546875 12.59167969 25.3509375 13.18335937 26.046875 13.79296875 C28.40739682 16.4603584 29.20368942 18.81268379 30.3125 22.1875 C33.71066059 31.45710013 39.89998025 40.44999012 49 45 C49 45.66 49 46.32 49 47 C47.25 47.75 47.25 47.75 45 48 C43.6434836 46.69026002 42.31442362 45.35197858 41 44 C38.71235737 42.81418092 36.41145912 41.92748428 34 41 C34 40.34 34 39.68 34 39 C33.01 39 32.02 39 31 39 C31 38.34 31 37.68 31 37 C30.41734375 36.89558594 29.8346875 36.79117188 29.234375 36.68359375 C26.66354577 35.89706383 25.2659942 34.82434109 23.25 33.0625 C22.63640625 32.53785156 22.0228125 32.01320312 21.390625 31.47265625 C20 30 20 30 20 28 C19.443125 27.79375 18.88625 27.5875 18.3125 27.375 C15.02987629 25.42316968 13.29326754 23.05769006 11 20 C11 19.34 11 18.68 11 18 C10.34 18 9.68 18 9 18 C8.15885829 16.56705502 7.32734313 15.12845595 6.5 13.6875 C6.0359375 12.88699219 5.571875 12.08648437 5.09375 11.26171875 C4 9 4 9 4 6 C3.34 6 2.68 6 2 6 C1.34 4.02 0.68 2.04 0 0 Z " fill="#C52328" transform="translate(100,84)"/>
<path d="M0 0 C0.99 0.66 1.98 1.32 3 2 C2.34 2 1.68 2 1 2 C1.33 2.5775 1.66 3.155 2 3.75 C3 6 3 6 3 10 C3.66 10 4.32 10 5 10 C5 8.02 5 6.04 5 4 C8.875 5.75 8.875 5.75 10 8 C10.33 6.68 10.66 5.36 11 4 C11.66 4 12.32 4 13 4 C13.08121924 5.60332791 13.13929134 7.20784026 13.1875 8.8125 C13.23970703 10.15248047 13.23970703 10.15248047 13.29296875 11.51953125 C12.95081002 14.41647515 12.24606427 15.22555028 10 17 C11.65 17.33 13.3 17.66 15 18 C15 18.66 15 19.32 15 20 C13.68 20 12.36 20 11 20 C11 21.32 11 22.64 11 24 C12.32 24 13.64 24 15 24 C15 24.66 15 25.32 15 26 C12.625 26.125 12.625 26.125 10 26 C8 24 8 24 7.875 20.875 C7.91625 19.92625 7.9575 18.9775 8 18 C6.68 17.67 5.36 17.34 4 17 C3.67 17.99 3.34 18.98 3 20 C2.01 20 1.02 20 0 20 C0 20.66 0 21.32 0 22 C0.66 22 1.32 22 2 22 C1.67 23.65 1.34 25.3 1 27 C-0.65 27 -2.3 27 -4 27 C-4.33 27.66 -4.66 28.32 -5 29 C-5 28.01 -5 27.02 -5 26 C-5.66 26.33 -6.32 26.66 -7 27 C-9.04055005 27.07065617 -11.08334257 27.08421976 -13.125 27.0625 C-14.22070312 27.05347656 -15.31640625 27.04445312 -16.4453125 27.03515625 C-17.70988281 27.01775391 -17.70988281 27.01775391 -19 27 C-19 23.7 -19 20.4 -19 17 C-18.03578125 17.02320313 -17.0715625 17.04640625 -16.078125 17.0703125 C-14.81484375 17.08835938 -13.5515625 17.10640625 -12.25 17.125 C-10.37054688 17.15980469 -10.37054688 17.15980469 -8.453125 17.1953125 C-5.27179508 17.01537302 -3.63478104 16.68998582 -1 15 C-3.72842061 13.63578969 -5.60953318 14.12192789 -8.625 14.4375 C-11.285625 14.7159375 -11.285625 14.7159375 -14 15 C-13.67 11.37 -13.34 7.74 -13 4 C-10.33333333 4 -7.66666667 4 -5 4 C-3.37485532 2.54166642 -3.37485532 2.54166642 -2 1 C-2 1.66 -2 2.32 -2 3 C-1.34 3 -0.68 3 0 3 C0 2.01 0 1.02 0 0 Z " fill="#EA918D" transform="translate(238,120)"/>
<path d="M0 0 C6.9290069 5.00428276 10.8020843 11.83558314 13 20 C13.46749021 25.38976217 13.38154188 30.72185525 13.25 36.125 C13.22989039 37.57289177 13.21164755 39.02081073 13.1953125 40.46875 C13.15170153 43.97974127 13.0829257 47.4896912 13 51 C9.23172793 49.29287048 7.50082624 47.30754438 5 44 C4.01769502 42.9826127 3.02530403 41.97403883 2 41 C2.66 41 3.32 41 4 41 C3.72285156 40.11957031 3.44570312 39.23914063 3.16015625 38.33203125 C2.79792969 37.17058594 2.43570313 36.00914063 2.0625 34.8125 C1.70285156 33.66394531 1.34320313 32.51539063 0.97265625 31.33203125 C-0.81265148 25.21609755 -1.15397115 19.77735411 -1.125 13.4375 C-1.12886719 12.58736328 -1.13273437 11.73722656 -1.13671875 10.86132812 C-1.13542969 10.03955078 -1.13414063 9.21777344 -1.1328125 8.37109375 C-1.13168457 7.62786865 -1.13055664 6.88464355 -1.12939453 6.11889648 C-0.99800151 3.96727379 -0.58919579 2.06920646 0 0 Z " fill="#D07629" transform="translate(115,49)"/>
<path d="M0 0 C2.64 0 5.28 0 8 0 C8.33 1.32 8.66 2.64 9 4 C9.99 3.67 10.98 3.34 12 3 C12.66 3.33 13.32 3.66 14 4 C14 2.68 14 1.36 14 0 C15.32 0 16.64 0 18 0 C18 1.32 18 2.64 18 4 C18.66 4 19.32 4 20 4 C20 5.98 20 7.96 20 10 C18.02 10 16.04 10 14 10 C14 10.66 14 11.32 14 12 C16.31 12.33 18.62 12.66 21 13 C21 13.99 21 14.98 21 16 C20.34 16 19.68 16 19 16 C19 17.98 19 19.96 19 22 C18.01 22 17.02 22 16 22 C15.67 20.68 15.34 19.36 15 18 C14.401875 18.33 13.80375 18.66 13.1875 19 C11 20 11 20 8 20 C8 21.98 8 23.96 8 26 C7.34 26 6.68 26 6 26 C6 25.01 6 24.02 6 23 C4.906875 23.020625 3.81375 23.04125 2.6875 23.0625 C-1 23 -1 23 -4 22 C-4.86625 22 -5.7325 22 -6.625 22 C-7.40875 22 -8.1925 22 -9 22 C-10 21 -10 21 -10.125 18 C-10 15 -10 15 -9 14 C-7.00041636 13.95919217 -4.99954746 13.95745644 -3 14 C-3 14.66 -3 15.32 -3 16 C-3.99 16.33 -4.98 16.66 -6 17 C-4.68 17.66 -3.36 18.32 -2 19 C-2.020625 18.195625 -2.04125 17.39125 -2.0625 16.5625 C-2 14 -2 14 -1 13 C0.66617115 12.95936168 2.33388095 12.957279 4 13 C4 12.34 4 11.68 4 11 C2.68 10.34 1.36 9.68 0 9 C0 6.03 0 3.06 0 0 Z " fill="#F9E4DF" transform="translate(284,124)"/>
<path d="M0 0 C6.27 0 12.54 0 19 0 C19 5.94 19 11.88 19 18 C12.73 18 6.46 18 0 18 C0 12.06 0 6.12 0 0 Z " fill="#F9FAFB" transform="translate(292,84)"/>
<path d="M0 0 C3.69459731 0.19970796 4.78742451 0.76444338 7.3125 3.5625 C8.1478125 4.7690625 8.1478125 4.7690625 9 6 C9.556875 5.175 10.11375 4.35 10.6875 3.5 C13 1 13 1 15.75 0.6875 C16.86375 0.8421875 16.86375 0.8421875 18 1 C18.66015625 2.78515625 18.66015625 2.78515625 19 5 C17.93359375 6.74609375 17.93359375 6.74609375 16.4375 8.4375 C15.01825435 10.20056941 15.01825435 10.20056941 14 12 C14.58268426 15.13192792 15.6881098 16.61880087 17.6875 19.0625 C19 21 19 21 18.6875 23.25 C18.460625 23.8275 18.23375 24.405 18 25 C15.6875 25.25 15.6875 25.25 13 25 C11.02389614 22.95575462 10 21.8823175 10 19 C9.195625 19.804375 8.39125 20.60875 7.5625 21.4375 C4 25 4 25 1.4375 25.0625 C0.633125 25.041875 -0.17125 25.02125 -1 25 C-1.33 24.01 -1.66 23.02 -2 22 C-0.84372384 19.86702088 0.54623181 17.99868535 1.96875 16.03515625 C3.1968667 14.06491494 3.1968667 14.06491494 2.7890625 11.90234375 C2.01278849 9.7564137 2.01278849 9.7564137 -0.125 7.5 C-2 5 -2 5 -1.8125 2.75 C-1 1 -1 1 0 0 Z " fill="#F79729" transform="translate(334,122)"/>
<path d="M0 0 C6.27 0 12.54 0 19 0 C19 5.61 19 11.22 19 17 C12.73 17 6.46 17 0 17 C0 11.39 0 5.78 0 0 Z " fill="#F1F2F7" transform="translate(292,53)"/>
<path d="M0 0 C1.04671875 -0.02578125 2.0934375 -0.0515625 3.171875 -0.078125 C6.66114063 0.29382717 8.50876833 1.07798583 11.25 3.25 C11.89093598 7.166831 11.88930992 9.27824892 9.6875 12.625 C6.5714771 14.7023486 3.94536586 14.96574109 0.25 15.25 C0.270625 16.549375 0.29125 17.84875 0.3125 19.1875 C0.33399454 20.54165633 0.32148199 21.89756083 0.25 23.25 C-0.75 24.25 -0.75 24.25 -3.25 24.375 C-5.75 24.25 -5.75 24.25 -6.75 23.25 C-6.8491657 21.62742456 -6.88079777 20.00060169 -6.8828125 18.375 C-6.88410156 17.39015625 -6.88539063 16.4053125 -6.88671875 15.390625 C-6.88285156 14.35421875 -6.87898438 13.3178125 -6.875 12.25 C-6.88080078 10.69539062 -6.88080078 10.69539062 -6.88671875 9.109375 C-6.88542969 8.12453125 -6.88414062 7.1396875 -6.8828125 6.125 C-6.88168457 5.21492188 -6.88055664 4.30484375 -6.87939453 3.3671875 C-6.61657326 -0.93316354 -3.67916586 0.05384145 0 0 Z " fill="#F7931D" transform="translate(362.75,122.75)"/>
<path d="M0 0 C4.95 0 9.9 0 15 0 C15.33 1.32 15.66 2.64 16 4 C15 5 15 5 12.93359375 5.09765625 C12.10988281 5.08605469 11.28617187 5.07445312 10.4375 5.0625 C9.61121094 5.05347656 8.78492188 5.04445312 7.93359375 5.03515625 C7.29550781 5.02355469 6.65742188 5.01195312 6 5 C6 6.32 6 7.64 6 9 C8.97 9 11.94 9 15 9 C15.38218767 10.65614657 15.71395102 12.32457024 16 14 C15 15 15 15 12.93359375 15.09765625 C12.10988281 15.08605469 11.28617187 15.07445312 10.4375 15.0625 C9.61121094 15.05347656 8.78492188 15.04445312 7.93359375 15.03515625 C7.29550781 15.02355469 6.65742188 15.01195312 6 15 C6 16.32 6 17.64 6 19 C8.97 19 11.94 19 15 19 C15.33 20.32 15.66 21.64 16 23 C15 24 15 24 11.62109375 24.09765625 C10.22652508 24.09191424 8.83198403 24.07890228 7.4375 24.0625 C4.983125 24.041875 2.52875 24.02125 0 24 C0 16.08 0 8.16 0 0 Z " fill="#F69526" transform="translate(313,123)"/>
<path d="M0 0 C0.78375 0.04125 1.5675 0.0825 2.375 0.125 C2.375 0.785 2.375 1.445 2.375 2.125 C0.725 2.125 -0.925 2.125 -2.625 2.125 C-2.625 3.775 -2.625 5.425 -2.625 7.125 C-0.645 6.795 1.335 6.465 3.375 6.125 C3.705 4.145 4.035 2.165 4.375 0.125 C5.035 0.125 5.695 0.125 6.375 0.125 C6.375 1.445 6.375 2.765 6.375 4.125 C7.695 4.125 9.015 4.125 10.375 4.125 C10.375 2.805 10.375 1.485 10.375 0.125 C11.035 0.125 11.695 0.125 12.375 0.125 C12.375 3.095 12.375 6.065 12.375 9.125 C11.385 9.125 10.395 9.125 9.375 9.125 C9.045 9.785 8.715 10.445 8.375 11.125 C10.355 11.785 12.335 12.445 14.375 13.125 C14.375 16.095 14.375 19.065 14.375 22.125 C13.715 22.125 13.055 22.125 12.375 22.125 C11.715 21.135 11.055 20.145 10.375 19.125 C10.045 20.115 9.715 21.105 9.375 22.125 C8.715 22.125 8.055 22.125 7.375 22.125 C7.045 21.135 6.715 20.145 6.375 19.125 C5.983125 19.62 5.59125 20.115 5.1875 20.625 C3.375 22.125 3.375 22.125 0.75 22.375 C-1.625 22.125 -1.625 22.125 -2.625 21.125 C-2.93367281 17.65243085 -3.01201339 15.7377712 -1.125 12.75 C-0.63 12.21375 -0.135 11.6775 0.375 11.125 C-1.275 11.455 -2.925 11.785 -4.625 12.125 C-4.67895478 10.50036158 -4.71777195 8.87521459 -4.75 7.25 C-4.77320313 6.34507812 -4.79640625 5.44015625 -4.8203125 4.5078125 C-4.53030547 0.96972669 -3.50613188 0.16695866 0 0 Z " fill="#F1BFBB" transform="translate(257.625,123.875)"/>
<path d="M0 0 C0.33 0.66 0.66 1.32 1 2 C6.28 2 11.56 2 17 2 C17 2.66 17 3.32 17 4 C18.65 4 20.3 4 22 4 C22 4.33 22 4.66 22 5 C14.41 5 6.82 5 -1 5 C-1 20.18 -1 35.36 -1 51 C-2.32 50.67 -3.64 50.34 -5 50 C-5.33 35.81 -5.66 21.62 -6 7 C-4.68 7.33 -3.36 7.66 -2 8 C-2 6.68 -2 5.36 -2 4 C-1.34 4 -0.68 4 0 4 C0 2.68 0 1.36 0 0 Z " fill="#2C398B" transform="translate(359,48)"/>
<path d="M0 0 C1.98 0 3.96 0 6 0 C6 0.66 6 1.32 6 2 C4.68 2 3.36 2 2 2 C2 2.66 2 3.32 2 4 C3.32 4 4.64 4 6 4 C6 4.99 6 5.98 6 7 C5.01 7 4.02 7 3 7 C2.67 11.62 2.34 16.24 2 21 C0.68 21.33 -0.64 21.66 -2 22 C-2.66 21.01 -3.32 20.02 -4 19 C-4.33 19.99 -4.66 20.98 -5 22 C-6.32 21.67 -7.64 21.34 -9 21 C-9 18.69 -9 16.38 -9 14 C-10.32 14.33 -11.64 14.66 -13 15 C-12.67 13.35 -12.34 11.7 -12 10 C-10.35 10 -8.7 10 -7 10 C-6.67 7.69 -6.34 5.38 -6 3 C-4.35 3 -2.7 3 -1 3 C-0.67 2.01 -0.34 1.02 0 0 Z " fill="#FAF6F3" transform="translate(217,124)"/>
<path d="M0 0 C0.33 0.66 0.66 1.32 1 2 C2.485 1.6596875 2.485 1.6596875 4 1.3125 C7.72686217 0.77162338 10.08277157 1.73329599 13.53515625 3.23046875 C18.81395519 4.87852484 24.50615961 4.77623403 30 5 C16.4378 12.26982793 -0.73003942 9.44447324 -15 6 C-15.33 5.01 -15.66 4.02 -16 3 C-13.36 3.66 -10.72 4.32 -8 5 C-8 3.02 -8 1.04 -8 -1 C-4.61951646 -2.20731555 -3.00565087 -1.96921954 0 0 Z " fill="#E92F34" transform="translate(144,129)"/>
<path d="M0 0 C0.99 0.66 1.98 1.32 3 2 C2.34 2 1.68 2 1 2 C1.33 2.5775 1.66 3.155 2 3.75 C3 6 3 6 3 10 C3.66 10 4.32 10 5 10 C5 8.02 5 6.04 5 4 C6.50559539 5.96382007 7.89131683 7.78263366 9 10 C8.4375 13 8.4375 13 7 16 C3.875 17.375 3.875 17.375 1 18 C1 17.34 1 16.68 1 16 C0.34 15.67 -0.32 15.34 -1 15 C-1.66 14.67 -2.32 14.34 -3 14 C-4.87862875 14.08744368 -6.75455181 14.24175542 -8.625 14.4375 C-11.285625 14.7159375 -11.285625 14.7159375 -14 15 C-13.67 11.37 -13.34 7.74 -13 4 C-10.33333333 4 -7.66666667 4 -5 4 C-3.37485532 2.54166642 -3.37485532 2.54166642 -2 1 C-2 1.66 -2 2.32 -2 3 C-1.34 3 -0.68 3 0 3 C0 2.01 0 1.02 0 0 Z " fill="#F9F1EE" transform="translate(238,120)"/>
<path d="M0 0 C2.69570526 1.40488871 3.89500881 2.63830257 6 5 C6.1875 8.125 6.1875 8.125 5 11 C2.30051788 13.31384182 0.44990487 13.93572788 -3.0625 14.4375 C-6 14 -6 14 -8.375 12.4375 C-10.61372366 9.07941451 -10.57491549 6.95254396 -10 3 C-7.15014471 -0.39790438 -4.26086239 -0.68173798 0 0 Z " fill="#FBF8F0" transform="translate(393,128)"/>
<path d="M0 0 C0.99 0 1.98 0 3 0 C3 2.64 3 5.28 3 8 C1.68 8 0.36 8 -1 8 C-2.68698082 8.61344757 -4.35965807 9.27095914 -6 10 C-6 10.66 -6 11.32 -6 12 C-7.98 12 -9.96 12 -12 12 C-11.34 10.68 -10.68 9.36 -10 8 C-10.804375 8.020625 -11.60875 8.04125 -12.4375 8.0625 C-15 8 -15 8 -16 7 C-16.04092937 4.66702567 -16.04241723 2.33294775 -16 0 C-15.34 0 -14.68 0 -14 0 C-13.67 1.98 -13.34 3.96 -13 6 C-12.34 6 -11.68 6 -11 6 C-10.566875 4.2984375 -10.566875 4.2984375 -10.125 2.5625 C-9.75375 1.386875 -9.3825 0.21125 -9 -1 C-5.82097996 -2.58951002 -3.29437316 -0.98253235 0 0 Z " fill="#F9E8E5" transform="translate(205,138)"/>
<path d="M0 0 C2 1.375 2 1.375 4 3 C4 3.66 4 4.32 4 5 C4.66 5 5.32 5 6 5 C6 3.68 6 2.36 6 1 C6.66 1 7.32 1 8 1 C8 2.32 8 3.64 8 5 C8.66 5 9.32 5 10 5 C10 4.34 10 3.68 10 3 C10.99 3 11.98 3 13 3 C13.66 4.65 14.32 6.3 15 8 C14.21625 8.185625 13.4325 8.37125 12.625 8.5625 C9.60623658 9.83961627 9.60623658 9.83961627 8.6875 13.625 C8.460625 14.73875 8.23375 15.8525 8 17 C7.01 16.67 6.02 16.34 5 16 C5 14.02 5 12.04 5 10 C4.01 10.33 3.02 10.66 2 11 C1.87625 10.195625 1.7525 9.39125 1.625 8.5625 C1.315625 7.2940625 1.315625 7.2940625 1 6 C0.34 5.67 -0.32 5.34 -1 5 C-0.67 3.35 -0.34 1.7 0 0 Z " fill="#FAFAF7" transform="translate(186,128)"/>
<path d="M0 0 C1.32 1.32 2.64 2.64 4 4 C4.33 2.68 4.66 1.36 5 0 C5.66 0 6.32 0 7 0 C7.08121924 1.60332791 7.13929134 3.20784026 7.1875 4.8125 C7.22230469 5.70582031 7.25710937 6.59914062 7.29296875 7.51953125 C6.95081002 10.41647515 6.24606427 11.22555028 4 13 C5.65 13.33 7.3 13.66 9 14 C9 14.66 9 15.32 9 16 C7.68 16 6.36 16 5 16 C5 17.32 5 18.64 5 20 C6.32 20 7.64 20 9 20 C9 20.66 9 21.32 9 22 C6.625 22.125 6.625 22.125 4 22 C2 20 2 20 1.875 16.875 C1.91625 15.92625 1.9575 14.9775 2 14 C0.68 13.67 -0.64 13.34 -2 13 C-1.67 12.34 -1.34 11.68 -1 11 C-0.34 11 0.32 11 1 11 C1 10.34 1 9.68 1 9 C0.67 9 0.34 9 0 9 C0 6.03 0 3.06 0 0 Z M-4 12 C-3.34 12.33 -2.68 12.66 -2 13 C-2.33 13.99 -2.66 14.98 -3 16 C-4.65 16.33 -6.3 16.66 -8 17 C-8 16.34 -8 15.68 -8 15 C-6.68 15 -5.36 15 -4 15 C-4 14.01 -4 13.02 -4 12 Z " fill="#F9ECE9" transform="translate(244,124)"/>
<path d="M0 0 C0.33 0.66 0.66 1.32 1 2 C6.28 2 11.56 2 17 2 C17 2.66 17 3.32 17 4 C18.65 4 20.3 4 22 4 C22 4.33 22 4.66 22 5 C14.41 5 6.82 5 -1 5 C-1 20.18 -1 35.36 -1 51 C-1.33 51 -1.66 51 -2 51 C-2 35.49 -2 19.98 -2 4 C-1.34 4 -0.68 4 0 4 C0 2.68 0 1.36 0 0 Z " fill="#263185" transform="translate(359,48)"/>
<path d="M0 0 C2.31 0.33 4.62 0.66 7 1 C7 1.99 7 2.98 7 4 C6.01 4.33 5.02 4.66 4 5 C4.99 5.33 5.98 5.66 7 6 C7 7.65 7 9.3 7 11 C5.71073008 11.36279456 4.41846728 11.71496698 3.125 12.0625 C2.40570313 12.25972656 1.68640625 12.45695313 0.9453125 12.66015625 C-1 13 -1 13 -3 12 C-3 8.7 -3 5.4 -3 2 C-2.01 2 -1.02 2 0 2 C0 1.34 0 0.68 0 0 Z " fill="#F2BFB9" transform="translate(275,122)"/>
<path d="M0 0 C1.37562854 1.28965176 2.70766393 2.62689293 4 4 C4 4.66 4 5.32 4 6 C4.66 6 5.32 6 6 6 C6 4.02 6 2.04 6 0 C7.50559539 1.96382007 8.89131683 3.78263366 10 6 C9.4375 9 9.4375 9 8 12 C4.875 13.375 4.875 13.375 2 14 C2 13.34 2 12.68 2 12 C1.34 11.67 0.68 11.34 0 11 C-1.33333333 10.33333333 -2.66666667 9.66666667 -4 9 C-2.94124926 5.59687262 -1.99097846 2.98646769 0 0 Z " fill="#F8E2DE" transform="translate(237,124)"/>
<path d="M0 0 C0.66 0 1.32 0 2 0 C3.76171875 2.5546875 3.76171875 2.5546875 5.6875 5.875 C6.33074219 6.96554688 6.97398437 8.05609375 7.63671875 9.1796875 C8.08660156 10.11039063 8.53648437 11.04109375 9 12 C8.67 12.66 8.34 13.32 8 14 C4.7 13.34 1.4 12.68 -2 12 C-2 11.34 -2 10.68 -2 10 C-3.45833358 8.37485532 -3.45833358 8.37485532 -5 7 C-4.21654285 5.82780457 -3.42297164 4.66236332 -2.625 3.5 C-2.18414062 2.8503125 -1.74328125 2.200625 -1.2890625 1.53125 C-0.65097656 0.77328125 -0.65097656 0.77328125 0 0 Z " fill="#374291" transform="translate(135,3)"/>
<path d="M0 0 C2.31 0 4.62 0 7 0 C7.268125 0.804375 7.53625 1.60875 7.8125 2.4375 C8.204375 3.283125 8.59625 4.12875 9 5 C9.99 5.33 10.98 5.66 12 6 C12 6.66 12 7.32 12 8 C10.68 8.33 9.36 8.66 8 9 C9.32 9.33 10.64 9.66 12 10 C8.04 10 4.08 10 0 10 C0 6.7 0 3.4 0 0 Z " fill="#F3DBD6" transform="translate(219,137)"/>
<path d="M0 0 C5.53846154 -0.36923077 5.53846154 -0.36923077 7.875 1.5 C8.24625 1.995 8.6175 2.49 9 3 C9.33 2.01 9.66 1.02 10 0 C10.66 0 11.32 0 12 0 C12 2.97 12 5.94 12 9 C11.34 9 10.68 9 10 9 C8.375 7 8.375 7 7 5 C5.89155081 8.32534757 6.15545644 10.62182575 7 14 C4.30969236 12.63425709 2.04133177 11.24086044 0 9 C-0.61361622 5.91644958 -0.42575 3.10189288 0 0 Z " fill="#F0AFAB" transform="translate(180,124)"/>
<path d="M0 0 C3.60198442 0.19470186 4.76476997 0.74516747 7.25 3.4375 C9 6 9 6 10 8 C9.34 8 8.68 8 8 8 C8 9.98 8 11.96 8 14 C6.68 14 5.36 14 4 14 C3.0234375 12.2421875 2.046875 10.484375 1.0703125 8.7265625 C-0.00897274 6.8387386 -0.00897274 6.8387386 -2 5 C-1.46428571 1.46428571 -1.46428571 1.46428571 0 0 Z " fill="#F5982C" transform="translate(334,122)"/>
<path d="M0 0 C1.89510699 -0.08160748 3.79124504 -0.13946459 5.6875 -0.1875 C6.74324219 -0.22230469 7.79898437 -0.25710937 8.88671875 -0.29296875 C12.41559978 0.03910914 14.24206128 0.79263879 17 3 C17.54886514 7.39092112 17.47666082 9.28500878 15 13 C14.34 13 13.68 13 13 13 C12.67 12.34 12.34 11.68 12 11 C11.01 11.495 11.01 11.495 10 12 C10.33 8.7 10.66 5.4 11 2 C8.02148438 2.09765625 8.02148438 2.09765625 5.04296875 2.1953125 C3 2 3 2 0 0 Z " fill="#F59625" transform="translate(357,123)"/>
<path d="M0 0 C1.4540625 0.0309375 1.4540625 0.0309375 2.9375 0.0625 C2.9375 0.7225 2.9375 1.3825 2.9375 2.0625 C1.9475 2.3925 0.9575 2.7225 -0.0625 3.0625 C1.2575 3.7225 2.5775 4.3825 3.9375 5.0625 C3.9375 3.4125 3.9375 1.7625 3.9375 0.0625 C5.9175 0.0625 7.8975 0.0625 9.9375 0.0625 C8.6175 0.3925 7.2975 0.7225 5.9375 1.0625 C5.9375 1.7225 5.9375 2.3825 5.9375 3.0625 C7.2575 3.0625 8.5775 3.0625 9.9375 3.0625 C9.9375 3.7225 9.9375 4.3825 9.9375 5.0625 C8.6175 5.0625 7.2975 5.0625 5.9375 5.0625 C5.9375 5.7225 5.9375 6.3825 5.9375 7.0625 C7.2575 7.3925 8.5775 7.7225 9.9375 8.0625 C7.79173363 8.08935938 5.64587355 8.10883088 3.5 8.125 C2.30503906 8.13660156 1.11007812 8.14820313 -0.12109375 8.16015625 C-3.0625 8.0625 -3.0625 8.0625 -4.0625 7.0625 C-4.1875 4.0625 -4.1875 4.0625 -4.0625 1.0625 C-3.0625 0.0625 -3.0625 0.0625 0 0 Z " fill="#E77C78" transform="translate(278.0625,137.9375)"/>
<path d="M0 0 C2 2 2 2 2.1875 5.0625 C2 8 2 8 1 9 C-2.5 9.125 -2.5 9.125 -6 9 C-7 8 -7 8 -7.0625 4.4375 C-7.041875 3.303125 -7.02125 2.16875 -7 1 C-4.48718205 -0.25640898 -2.78302919 -0.20872719 0 0 Z " fill="#C43037" transform="translate(381,23)"/>
<path d="M0 0 C3.625 0.375 3.625 0.375 7 1 C7.04241723 3.33294775 7.04092937 5.66702567 7 8 C6 9 6 9 2.4375 9.0625 C1.303125 9.041875 0.16875 9.02125 -1 9 C-1.625 5.625 -1.625 5.625 -2 2 C-1.34 1.34 -0.68 0.68 0 0 Z " fill="#C32F36" transform="translate(299,23)"/>
<path d="M0 0 C2.5 0.25 2.5 0.25 4.5 2.25 C4.6875 5.3125 4.6875 5.3125 4.5 8.25 C3.5 9.25 3.5 9.25 0.5625 9.4375 C-2.5 9.25 -2.5 9.25 -4.5 7.25 C-4.75 4.75 -4.75 4.75 -4.5 2.25 C-2.5 0.25 -2.5 0.25 0 0 Z " fill="#C43139" transform="translate(214.5,22.75)"/>
<path d="M0 0 C2.5 0.25 2.5 0.25 4.5 2.25 C4.75 4.75 4.75 4.75 4.5 7.25 C2.5 9.25 2.5 9.25 0 9.5 C-2.5 9.25 -2.5 9.25 -4.5 7.25 C-4.75 4.75 -4.75 4.75 -4.5 2.25 C-2.5 0.25 -2.5 0.25 0 0 Z " fill="#DF5051" transform="translate(206.5,123.75)"/>
<path d="M0 0 C0.86625 0.495 0.86625 0.495 1.75 1 C4.19883862 2.27075898 4.19883862 2.27075898 8 2 C8 1.34 8 0.68 8 0 C8.99 0 9.98 0 11 0 C10.34 2.97 9.68 5.94 9 9 C6.69 9 4.38 9 2 9 C0.14223235 5.86501708 -0.20140476 3.62528568 0 0 Z " fill="#C43339" transform="translate(391,23)"/>
<path d="M0 0 C2.64 0.33 5.28 0.66 8 1 C8 3.64 8 6.28 8 9 C4.66666667 9 1.33333333 9 -2 9 C-2 8.34 -2 7.68 -2 7 C-0.68 7.33 0.64 7.66 2 8 C0.68 6.68 -0.64 5.36 -2 4 C-1.34 2.68 -0.68 1.36 0 0 Z " fill="#F1ABA5" transform="translate(200,137)"/>
<path d="M0 0 C2.97 0 5.94 0 9 0 C10 4 10 4 10 8 C10.2981424 9.34164079 10.62243192 10.67851173 11 12 C8.69 12.33 6.38 12.66 4 13 C4 12.01 4 11.02 4 10 C4.66 10 5.32 10 6 10 C6.33 9.34 6.66 8.68 7 8 C5.02 8 3.04 8 1 8 C2.25 5.5 2.25 5.5 4 3 C5.32 3 6.64 3 8 3 C8 2.34 8 1.68 8 1 C5.36 1.33 2.72 1.66 0 2 C0 1.34 0 0.68 0 0 Z " fill="#F49833" transform="translate(359,125)"/>
<path d="M0 0 C0.680625 0.70125 1.36125 1.4025 2.0625 2.125 C7.54314189 7.71381453 7.54314189 7.71381453 14 12 C14 12.66 14 13.32 14 14 C12.25 14.75 12.25 14.75 10 15 C8.6434836 13.69026002 7.31442362 12.35197858 6 11 C3.71235737 9.81418092 1.41145912 8.92748428 -1 8 C-1.125 2.25 -1.125 2.25 0 0 Z " fill="#CA282B" transform="translate(135,117)"/>
<path d="M0 0 C0.33 0 0.66 0 1 0 C1 6.93 1 13.86 1 21 C1.66 21 2.32 21 3 21 C3 18.36 3 15.72 3 13 C4.32 13.33 5.64 13.66 7 14 C7.09765625 20.15234375 7.09765625 20.15234375 7 22 C6 23 6 23 3.5 23.125 C1 23 1 23 0 22 C-0.08700342 20.36527118 -0.10701063 18.72685945 -0.09765625 17.08984375 C-0.09443359 16.10048828 -0.09121094 15.11113281 -0.08789062 14.09179688 C-0.07951172 13.05087891 -0.07113281 12.00996094 -0.0625 10.9375 C-0.05798828 9.89271484 -0.05347656 8.84792969 -0.04882812 7.77148438 C-0.03699913 5.1809334 -0.02051689 2.59049441 0 0 Z " fill="#F69D39" transform="translate(356,124)"/>
<path d="M0 0 C1.875 0.125 1.875 0.125 4 1 C6.60904748 6.08764259 6.198045 11.43273495 6 17 C0.46153846 17.36923077 0.46153846 17.36923077 -1.875 15.5 C-2.24625 15.005 -2.6175 14.51 -3 14 C-2.195625 13.319375 -1.39125 12.63875 -0.5625 11.9375 C2.42288711 8.51522698 2.73781251 6.4571874 3 2 C2.01 1.67 1.02 1.34 0 1 C0 0.67 0 0.34 0 0 Z " fill="#FCF2E3" transform="translate(371,124)"/>
<path d="M0 0 C1.98 0.99 1.98 0.99 4 2 C4.33 1.34 4.66 0.68 5 0 C5.99 0 6.98 0 8 0 C8 2.97 8 5.94 8 9 C6.68 8.67 5.36 8.34 4 8 C2.68 8.33 1.36 8.66 0 9 C0 6.03 0 3.06 0 0 Z " fill="#C6353C" transform="translate(155,23)"/>
<path d="M0 0 C2 1 4 2 6 3 C6 2.01 6 1.02 6 0 C6.66 0 7.32 0 8 0 C8 2.97 8 5.94 8 9 C7.01 9 6.02 9 5 9 C4.67 8.34 4.34 7.68 4 7 C3.01 8.485 3.01 8.485 2 10 C1.34 10 0.68 10 0 10 C0 6.7 0 3.4 0 0 Z " fill="#C23038" transform="translate(227,23)"/>
<path d="M0 0 C2.375 -0.125 2.375 -0.125 5 0 C7 2 7 2 7.1875 5.0625 C7 8 7 8 6 9 C4.00041636 9.04080783 1.99954746 9.04254356 0 9 C0 6.03 0 3.06 0 0 Z " fill="#CE4D55" transform="translate(330,23)"/>
<path d="M0 0 C5.61 0.33 11.22 0.66 17 1 C7.4569099 5.77154505 -2.59031714 5.23247431 -13 5 C-13 4.67 -13 4.34 -13 4 C-12.31292969 3.93941406 -11.62585938 3.87882813 -10.91796875 3.81640625 C-10.01691406 3.73261719 -9.11585938 3.64882812 -8.1875 3.5625 C-7.29417969 3.48128906 -6.40085938 3.40007812 -5.48046875 3.31640625 C-2.87256441 3.06510233 -2.87256441 3.06510233 0 2 C0 1.34 0 0.68 0 0 Z " fill="#EB5156" transform="translate(157,133)"/>
<path d="M0 0 C1.98 0 3.96 0 6 0 C6.70074844 3.153368 7 5.72724974 7 9 C4.66666667 9 2.33333333 9 0 9 C0 6.03 0 3.06 0 0 Z " fill="#CE494F" transform="translate(282,23)"/>
<path d="M0 0 C2.5625 0.1875 2.5625 0.1875 4.5625 2.1875 C4.00694444 6.74305556 4.00694444 6.74305556 2.5625 8.1875 C0.0625 8.3125 0.0625 8.3125 -2.4375 8.1875 C-3.4375 7.1875 -3.4375 7.1875 -3.5625 4.1875 C-3.39891479 0.26145498 -3.39891479 0.26145498 0 0 Z " fill="#DD3E3C" transform="translate(258.4375,137.8125)"/>
<path d="M0 0 C4.29 0 8.58 0 13 0 C13 3.96 13 7.92 13 12 C8.71 12 4.42 12 0 12 C3.00617269 8.99382731 5.82381598 9.40414684 10 9 C10.33 6.36 10.66 3.72 11 1 C7.37 1 3.74 1 0 1 C0 0.67 0 0.34 0 0 Z " fill="#253386" transform="translate(222,71)"/>
<path d="M0 0 C1.99954746 -0.04254356 4.00041636 -0.04080783 6 0 C7 1 7 1 7.0625 4.5625 C7.041875 5.696875 7.02125 6.83125 7 8 C4.69 8 2.38 8 0 8 C0 5.36 0 2.72 0 0 Z " fill="#E56A62" transform="translate(180,138)"/>
<path d="M0 0 C1.32 0 2.64 0 4 0 C4 1.32 4 2.64 4 4 C4.66 4 5.32 4 6 4 C6 5.65 6 7.3 6 9 C3.69 9 1.38 9 -1 9 C-2.0326802 6.21176345 -2.04509293 5.1322726 -1.0625 2.25 C-0.711875 1.5075 -0.36125 0.765 0 0 Z " fill="#E86C67" transform="translate(298,124)"/>
<path d="M0 0 C1.98 0 3.96 0 6 0 C6.70074844 3.153368 7 5.72724974 7 9 C5 9 5 9 3.375 7.5 C2.92125 7.005 2.4675 6.51 2 6 C2 6.99 2 7.98 2 9 C1.34 9 0.68 9 0 9 C0 6.03 0 3.06 0 0 Z " fill="#DA4740" transform="translate(225,124)"/>
<path d="M0 0 C0.99 0 1.98 0 3 0 C3 7.92 3 15.84 3 24 C2.01 24.33 1.02 24.66 0 25 C0 16.75 0 8.5 0 0 Z " fill="#3C438F" transform="translate(328,46)"/>
<path d="M0 0 C0.99 0 1.98 0 3 0 C3 1.32 3 2.64 3 4 C3.66 4 4.32 4 5 4 C5 2.68 5 1.36 5 0 C5.66 0 6.32 0 7 0 C7 2.97 7 5.94 7 9 C6.34 9 5.68 9 5 9 C5 8.01 5 7.02 5 6 C4.34 6 3.68 6 3 6 C2.67 7.32 2.34 8.64 2 10 C1.34 10 0.68 10 0 10 C0 6.7 0 3.4 0 0 Z " fill="#C4343F" transform="translate(359,23)"/>
<path d="M0 0 C2.31 0 4.62 0 7 0 C7.66 1.65 8.32 3.3 9 5 C4.38 5 -0.24 5 -5 5 C-5 4.34 -5 3.68 -5 3 C-3.35 2.67 -1.7 2.34 0 2 C0 1.34 0 0.68 0 0 Z " fill="#EA2329" transform="translate(149,132)"/>
<path d="M0 0 C3 1 3 1 4.1875 2.8125 C5 5 5 5 5 9 C2.36 9 -0.28 9 -3 9 C-2.44271087 5.65626525 -1.64826111 2.96687001 0 0 Z " fill="#C6353C" transform="translate(317,23)"/>
<path d="M0 0 C0.66 0 1.32 0 2 0 C5 5.625 5 5.625 5 9 C2.36 9 -0.28 9 -3 9 C-2.5020163 5.26512223 -2.12508244 3.18762365 0 0 Z " fill="#C53B40" transform="translate(174,23)"/>
<path d="M0 0 C0.66 0 1.32 0 2 0 C1.67 2.97 1.34 5.94 1 9 C0.34 9 -0.32 9 -1 9 C-1.99 10.485 -1.99 10.485 -3 12 C-3 11.01 -3 10.02 -3 9 C-3.66 9 -4.32 9 -5 9 C-5 7.02 -5 5.04 -5 3 C-4.360625 2.87625 -3.72125 2.7525 -3.0625 2.625 C-2.0415625 2.315625 -2.0415625 2.315625 -1 2 C-0.67 1.34 -0.34 0.68 0 0 Z " fill="#F9931E" transform="translate(381,128)"/>
<path d="M0 0 C3 1 3 1 4.1875 3.375 C5 6 5 6 5 9 C2.36 9 -0.28 9 -3 9 C-2.44271087 5.65626525 -1.64826111 2.96687001 0 0 Z " fill="#C22D37" transform="translate(246,23)"/>
<path d="M0 0 C-4.53294613 2.26647307 -8.0252466 2.3948217 -13 2 C-15.5 0.5 -15.5 0.5 -17 -1 C-4.54918033 -3.03278689 -4.54918033 -3.03278689 0 0 Z " fill="#F49D35" transform="translate(399,146)"/>
<path d="M0 0 C3.2542015 2.83430453 4.5206753 4.68607774 5 9 C2.03 9 -0.94 9 -4 9 C-2.94124926 5.59687262 -1.99097846 2.98646769 0 0 Z " fill="#E4615D" transform="translate(237,124)"/>
<path d="M0 0 C1.32 0.33 2.64 0.66 4 1 C3.34 1 2.68 1 2 1 C1.67 7.6 1.34 14.2 1 21 C2.32 20.01 3.64 19.02 5 18 C5 19.65 5 21.3 5 23 C3.35 22.67 1.7 22.34 0 22 C0 14.74 0 7.48 0 0 Z " fill="#FB9117" transform="translate(314,124)"/>
<path d="M0 0 C0.763125 0.0825 1.52625 0.165 2.3125 0.25 C3.0625 2 3.0625 2 3.3125 4.25 C1.375 6.5 1.375 6.5 -0.6875 8.25 C-1.14125 7.775625 -1.595 7.30125 -2.0625 6.8125 C-3.62008204 5.15972192 -3.62008204 5.15972192 -5.6875 4.25 C-3.34903846 0.31153846 -3.34903846 0.31153846 0 0 Z " fill="#F59932" transform="translate(349.6875,122.75)"/>
<path d="M0 0 C3 1 3 1 4 3 C4.33 2.01 4.66 1.02 5 0 C5.66 0 6.32 0 7 0 C7 2.64 7 5.28 7 8 C6.34 8 5.68 8 5 8 C4.34 7.01 3.68 6.02 3 5 C2.67 5.99 2.34 6.98 2 8 C1.34 8 0.68 8 0 8 C0 5.36 0 2.72 0 0 Z " fill="#DD4E49" transform="translate(210,138)"/>
<path d="M0 0 C0.66 0 1.32 0 2 0 C2.66 0.99 3.32 1.98 4 3 C4.33 2.01 4.66 1.02 5 0 C5.66 0 6.32 0 7 0 C7 2.64 7 5.28 7 8 C6.34 8 5.68 8 5 8 C4.34 7.01 3.68 6.02 3 5 C2.67 5.99 2.34 6.98 2 8 C1.34 8 0.68 8 0 8 C0 5.36 0 2.72 0 0 Z " fill="#DE5049" transform="translate(265,138)"/>
<path d="M0 0 C0.99 0.66 1.98 1.32 3 2 C2.67 3.65 2.34 5.3 2 7 C0.02 7.33 -1.96 7.66 -4 8 C-4.33 6.35 -4.66 4.7 -5 3 C-4.01 2.67 -3.02 2.34 -2 2 C-1.34 2.33 -0.68 2.66 0 3 C0 2.01 0 1.02 0 0 Z " fill="#F8F5F3" transform="translate(253,137)"/>
<path d="M0 0 C1.32 0.99 2.64 1.98 4 3 C4.33 2.01 4.66 1.02 5 0 C5.66 0 6.32 0 7 0 C7 2.97 7 5.94 7 9 C6.34 9 5.68 9 5 9 C3.375 7 3.375 7 2 5 C1.34 6.32 0.68 7.64 0 9 C0 6.03 0 3.06 0 0 Z " fill="#DE4743" transform="translate(185,124)"/>
<path d="M0 0 C1.32 1.32 2.64 2.64 4 4 C4.33 2.68 4.66 1.36 5 0 C5.66 0 6.32 0 7 0 C7 2.97 7 5.94 7 9 C6.34 9 5.68 9 5 9 C3.375 7 3.375 7 2 5 C1.34 6.32 0.68 7.64 0 9 C0 6.03 0 3.06 0 0 Z " fill="#DB4741" transform="translate(244,124)"/>
<path d="M0 0 C1.65 0 3.3 0 5 0 C5 0.66 5 1.32 5 2 C4.01 2 3.02 2 2 2 C2 2.66 2 3.32 2 4 C2.99 4 3.98 4 5 4 C5 5.65 5 7.3 5 9 C3.02 9 1.04 9 -1 9 C-1 8.34 -1 7.68 -1 7 C-0.34 6.67 0.32 6.34 1 6 C0.67 5.67 0.34 5.34 0 5 C-0.04063832 3.33382885 -0.042721 1.66611905 0 0 Z " fill="#C42B37" transform="translate(346,23)"/>
<path d="M0 0 C2.31 0 4.62 0 7 0 C7 0.66 7 1.32 7 2 C6.34 2 5.68 2 5 2 C5 4.31 5 6.62 5 9 C4.01 9.33 3.02 9.66 2 10 C2 7.36 2 4.72 2 2 C1.34 2 0.68 2 0 2 C0 1.34 0 0.68 0 0 Z " fill="#C53A40" transform="translate(185,23)"/>
<path d="M0 0 C6.93 0 13.86 0 21 0 C21 0.33 21 0.66 21 1 C19.06833984 1.09087891 19.06833984 1.09087891 17.09765625 1.18359375 C15.41925841 1.26798247 13.74087364 1.3526313 12.0625 1.4375 C10.78729492 1.49647461 10.78729492 1.49647461 9.48632812 1.55664062 C8.67744141 1.59853516 7.86855469 1.64042969 7.03515625 1.68359375 C5.91185913 1.73858032 5.91185913 1.73858032 4.76586914 1.79467773 C2.97538674 1.81771063 2.97538674 1.81771063 2 3 C1.76807135 4.51469448 1.58784762 6.03754562 1.4375 7.5625 C1.35371094 8.38878906 1.26992188 9.21507812 1.18359375 10.06640625 C1.12300781 10.70449219 1.06242187 11.34257813 1 12 C0.67 12 0.34 12 0 12 C0 8.04 0 4.08 0 0 Z " fill="#273087" transform="translate(267,40)"/>
<path d="M0 0 C0.89203125 0.20367187 1.7840625 0.40734375 2.703125 0.6171875 C3.37859375 0.78476563 4.0540625 0.95234375 4.75 1.125 C4.75 2.115 4.75 3.105 4.75 4.125 C2.11 4.125 -0.53 4.125 -3.25 4.125 C-3.58 3.135 -3.91 2.145 -4.25 1.125 C-5.9 1.125 -7.55 1.125 -9.25 1.125 C-5.82794357 -1.03377391 -3.8855015 -0.92025036 0 0 Z " fill="#FCF3F2" transform="translate(285.25,145.875)"/>
<path d="M0 0 C0.33 1.32 0.66 2.64 1 4 C2.32 4 3.64 4 5 4 C5 2.68 5 1.36 5 0 C5.66 0 6.32 0 7 0 C7 2.97 7 5.94 7 9 C6.34 9 5.68 9 5 9 C5 8.01 5 7.02 5 6 C3.68 6 2.36 6 1 6 C0.67 6.99 0.34 7.98 0 9 C0 6.03 0 3.06 0 0 Z " fill="#E14848" transform="translate(263,124)"/>
<path d="M0 0 C1.65 0 3.3 0 5 0 C5 0.66 5 1.32 5 2 C4.01 2.33 3.02 2.66 2 3 C2.99 3.33 3.98 3.66 5 4 C5 5.65 5 7.3 5 9 C3.02 9 1.04 9 -1 9 C-1 8.34 -1 7.68 -1 7 C0.32 7 1.64 7 3 7 C1.68 6.01 0.36 5.02 -1 4 C-0.67 2.68 -0.34 1.36 0 0 Z " fill="#E14B4B" transform="translate(277,124)"/>
<path d="M0 0 C0.33 0 0.66 0 1 0 C1.22786458 2.05078125 1.45572917 4.1015625 1.68359375 6.15234375 C1.81886614 8.01140229 1.81886614 8.01140229 3 9 C3.04063832 10.66617115 3.042721 12.33388095 3 14 C-0.3502463 10.18765077 -2.16974789 6.66714289 -4 2 C-3.34 1.67 -2.68 1.34 -2 1 C-2 2.32 -2 3.64 -2 5 C-1.34 5 -0.68 5 0 5 C0 3.35 0 1.7 0 0 Z " fill="#E72F36" transform="translate(84,88)"/>
<path d="M0 0 C1.65 0 3.3 0 5 0 C5.625 1.875 5.625 1.875 6 4 C5.34 4.66 4.68 5.32 4 6 C3.01 6 2.02 6 1 6 C0.67 6.66 0.34 7.32 0 8 C0 5.36 0 2.72 0 0 Z " fill="#E26C66" transform="translate(291,138)"/>
<path d="M0 0 C1.98 0 3.96 0 6 0 C6 0.66 6 1.32 6 2 C4.68 2 3.36 2 2 2 C2 2.66 2 3.32 2 4 C3.32 4 4.64 4 6 4 C6 4.66 6 5.32 6 6 C4.68 6 3.36 6 2 6 C2 6.99 2 7.98 2 9 C1.34 9 0.68 9 0 9 C0 6.03 0 3.06 0 0 Z " fill="#DF5751" transform="translate(217,124)"/>
<path d="M0 0 C1.98 0 3.96 0 6 0 C6 0.66 6 1.32 6 2 C4.68 2 3.36 2 2 2 C2 2.66 2 3.32 2 4 C3.32 4.33 4.64 4.66 6 5 C4.68 5 3.36 5 2 5 C2 5.99 2 6.98 2 8 C3.32 8.33 4.64 8.66 6 9 C4.02 9 2.04 9 0 9 C0 6.03 0 3.06 0 0 Z " fill="#DC4644" transform="translate(284,124)"/>
<path d="M0 0 C1.98 0 3.96 0 6 0 C6 0.66 6 1.32 6 2 C4.68 2 3.36 2 2 2 C2 2.66 2 3.32 2 4 C3.32 4 4.64 4 6 4 C6 4.66 6 5.32 6 6 C4.68 6 3.36 6 2 6 C2 6.99 2 7.98 2 9 C1.34 9 0.68 9 0 9 C0 6.03 0 3.06 0 0 Z " fill="#DE544D" transform="translate(194,124)"/>
<path d="M0 0 C2.97 0 5.94 0 9 0 C10 4 10 4 9 7 C7.35 7 5.7 7 4 7 C4 5.68 4 4.36 4 3 C5.32 3 6.64 3 8 3 C8 2.34 8 1.68 8 1 C5.36 1.33 2.72 1.66 0 2 C0 1.34 0 0.68 0 0 Z " fill="#F6C184" transform="translate(359,125)"/>
<path d="M0 0 C1.32 0.33 2.64 0.66 4 1 C2.68 1.33 1.36 1.66 0 2 C0 2.66 0 3.32 0 4 C1.32 4.33 2.64 4.66 4 5 C4 6.32 4 7.64 4 9 C2.02 9 0.04 9 -2 9 C-2 8.34 -2 7.68 -2 7 C-0.68 7.33 0.64 7.66 2 8 C0.68 6.68 -0.64 5.36 -2 4 C-1.34 2.68 -0.68 1.36 0 0 Z " fill="#E05351" transform="translate(200,137)"/>
<path d="M0 0 C-3 2 -3 2 -5 2 C-5 2.66 -5 3.32 -5 4 C-7.64 4.33 -10.28 4.66 -13 5 C-13 4.34 -13 3.68 -13 3 C-11.35 3 -9.7 3 -8 3 C-8 2.01 -8 1.02 -8 0 C-4.71023192 -1.09658936 -3.28696233 -0.79953138 0 0 Z " fill="#F59423" transform="translate(397,124)"/>
<path d="M0 0 C0.66 0.33 1.32 0.66 2 1 C1.1875 4.4375 1.1875 4.4375 0 8 C-0.99 8.33 -1.98 8.66 -3 9 C-3.33 9.66 -3.66 10.32 -4 11 C-4.66 10.67 -5.32 10.34 -6 10 C-5.34 9.01 -4.68 8.02 -4 7 C-4 6.01 -4 5.02 -4 4 C-5.32 3.34 -6.64 2.68 -8 2 C-7.05125 2.04125 -6.1025 2.0825 -5.125 2.125 C-1.89755144 2.34973818 -1.89755144 2.34973818 0 0 Z " fill="#FCEFDC" transform="translate(356,120)"/>
<path d="M0 0 C2.31 0 4.62 0 7 0 C7 0.99 7 1.98 7 3 C6.34 3 5.68 3 5 3 C5 4.98 5 6.96 5 9 C4.34 9 3.68 9 3 9 C3 6.69 3 4.38 3 2 C2.01 2 1.02 2 0 2 C0 1.34 0 0.68 0 0 Z " fill="#E77877" transform="translate(298,137)"/>
<path d="M0 0 C2.5 2.3125 2.5 2.3125 5 5 C5 5.99 5 6.98 5 8 C4.01 7.67 3.02 7.34 2 7 C1.01 7.33 0.02 7.66 -1 8 C-1.125 2.25 -1.125 2.25 0 0 Z " fill="#C82E36" transform="translate(135,117)"/>
<path d="M0 0 C1.32 0.33 2.64 0.66 4 1 C4 2.32 4 3.64 4 5 C4.33 5.66 4.66 6.32 5 7 C2.69 7 0.38 7 -2 7 C-1.34 4.69 -0.68 2.38 0 0 Z " fill="#F9FAF4" transform="translate(342,143)"/>
<path d="M0 0 C0.66 0 1.32 0 2 0 C2.33 1.98 2.66 3.96 3 6 C3.66 6 4.32 6 5 6 C5.33 4.02 5.66 2.04 6 0 C6.33 0 6.66 0 7 0 C7.04241723 2.33294775 7.04092937 4.66702567 7 7 C6 8 6 8 3.5 8.125 C1 8 1 8 0 7 C-0.04092937 4.66702567 -0.04241723 2.33294775 0 0 Z " fill="#DF4944" transform="translate(189,138)"/>
<path d="M0 0 C1.4540625 0.0309375 1.4540625 0.0309375 2.9375 0.0625 C2.9375 0.7225 2.9375 1.3825 2.9375 2.0625 C1.6175 2.0625 0.2975 2.0625 -1.0625 2.0625 C-1.0625 3.3825 -1.0625 4.7025 -1.0625 6.0625 C0.2575 6.0625 1.5775 6.0625 2.9375 6.0625 C2.9375 6.7225 2.9375 7.3825 2.9375 8.0625 C0.5625 8.1875 0.5625 8.1875 -2.0625 8.0625 C-4.0625 6.0625 -4.0625 6.0625 -4.25 3.5 C-3.97031732 -0.13587487 -3.72751987 0.07607183 0 0 Z " fill="#E15252" transform="translate(250.0625,137.9375)"/>
<path d="M0 0 C1.32 0.66 2.64 1.32 4 2 C3.01 2 2.02 2 1 2 C1 4.97 1 7.94 1 11 C-1 8 -1 8 -1 6 C-2.32 6 -3.64 6 -5 6 C-5 5.34 -5 4.68 -5 4 C-3.68 4 -2.36 4 -1 4 C-0.67 2.68 -0.34 1.36 0 0 Z " fill="#FBF1ED" transform="translate(224,122)"/>
<path d="M0 0 C0.66 0.99 1.32 1.98 2 3 C1.01 3.495 1.01 3.495 0 4 C-0.65213292 6.02463255 -0.65213292 6.02463255 -1 8 C-2.32 7.67 -3.64 7.34 -5 7 C-4.75 4.625 -4.75 4.625 -4 2 C-1.9375 0.6875 -1.9375 0.6875 0 0 Z " fill="#F9F5F4" transform="translate(296,142)"/>
<path d="M0 0 C0.33 0 0.66 0 1 0 C1.33 3.96 1.66 7.92 2 12 C1.34 12 0.68 12 0 12 C0 11.01 0 10.02 0 9 C-2.31 9 -4.62 9 -7 9 C-6.67 8.01 -6.34 7.02 -6 6 C-4.35 6 -2.7 6 -1 6 C-0.67 4.02 -0.34 2.04 0 0 Z " fill="#F1B2AF" transform="translate(290,138)"/>
<path d="M0 0 C1.65 0 3.3 0 5 0 C4.01 0.33 3.02 0.66 2 1 C2 1.66 2 2.32 2 3 C2.99 3 3.98 3 5 3 C5 3.66 5 4.32 5 5 C3.68 5 2.36 5 1 5 C1 5.66 1 6.32 1 7 C2.65 7 4.3 7 6 7 C6 7.33 6 7.66 6 8 C4.02 8 2.04 8 0 8 C0 5.36 0 2.72 0 0 Z " fill="#DC3A33" transform="translate(219,138)"/>
<path d="M0 0 C0.33 0 0.66 0 1 0 C1 6.6 1 13.2 1 20 C0.01 20 -0.98 20 -2 20 C-2 18.68 -2 17.36 -2 16 C-1.34 16 -0.68 16 0 16 C0 10.72 0 5.44 0 0 Z " fill="#3D428C" transform="translate(397,89)"/>
<path d="M0 0 C0.99 0 1.98 0 3 0 C3 2.97 3 5.94 3 9 C2.01 9 1.02 9 0 9 C0 6.03 0 3.06 0 0 Z " fill="#C73D44" transform="translate(200,23)"/>
<path d="M0 0 C1.98 0.495 1.98 0.495 4 1 C3.67 2.65 3.34 4.3 3 6 C1.68 5.67 0.36 5.34 -1 5 C-0.67 3.35 -0.34 1.7 0 0 Z " fill="#F6E2DC" transform="translate(257,139)"/>
<path d="M0 0 C2 0.9375 2 0.9375 4 3 C4.36475845 6.02534949 4.22893297 8.96663814 4 12 C1.95780294 10.30820672 1.08206694 9.36272334 0.48828125 6.73828125 C0.43027344 5.93777344 0.37226563 5.13726562 0.3125 4.3125 C0.24675781 3.50425781 0.18101562 2.69601563 0.11328125 1.86328125 C0.07589844 1.24839844 0.03851563 0.63351563 0 0 Z " fill="#F4992E" transform="translate(401,127)"/>
<path d="M0 0 C-0.39803561 2.88575819 -0.79009069 3.82189513 -3.0625 5.75 C-3.701875 6.1625 -4.34125 6.575 -5 7 C-5.66 5.02 -6.32 3.04 -7 1 C-3.375 -1.125 -3.375 -1.125 0 0 Z " fill="#FBF5F0" transform="translate(256,25)"/>
<path d="M0 0 C1.98 0.495 1.98 0.495 4 1 C3.67 2.98 3.34 4.96 3 7 C2.01 6.67 1.02 6.34 0 6 C-1 3 -1 3 0 0 Z " fill="#FBF0E1" transform="translate(395,132)"/>
<path d="M0 0 C6.93 0.495 6.93 0.495 14 1 C14 1.33 14 1.66 14 2 C9.23692563 2.95261487 4.8333472 3.08333357 0 3 C0 2.01 0 1.02 0 0 Z " fill="#FA931B" transform="translate(381,142)"/>
<path d="M0 0 C3 1 3 1 4.6875 4.0625 C5.120625 5.031875 5.55375 6.00125 6 7 C3 7 3 7 1.61328125 5.6875 C0.40885417 4.125 -0.79557292 2.5625 -2 1 C-1.34 0.67 -0.68 0.34 0 0 Z " fill="#E63137" transform="translate(98,112)"/>
<path d="M0 0 C2.375 -0.125 2.375 -0.125 5 0 C7 2 7 2 7 6 C6.34 6 5.68 6 5 6 C4.67 4.68 4.34 3.36 4 2 C2.35 2.33 0.7 2.66 -1 3 C-0.67 2.01 -0.34 1.02 0 0 Z " fill="#BF212A" transform="translate(376,23)"/>
<path d="M0 0 C2 1.375 2 1.375 4 3 C4 3.66 4 4.32 4 5 C4.66 5.33 5.32 5.66 6 6 C4.1875 6.625 4.1875 6.625 2 7 C1.01 6.34 0.02 5.68 -1 5 C-0.67 3.35 -0.34 1.7 0 0 Z " fill="#F9E6E2" transform="translate(186,128)"/>
<path d="M0 0 C2.475 0.495 2.475 0.495 5 1 C4.67 2.32 4.34 3.64 4 5 C2.68 5 1.36 5 0 5 C0 3.35 0 1.7 0 0 Z " fill="#F8F8F0" transform="translate(204,126)"/>
<path d="M0 0 C1.67542976 0.28604898 3.34385343 0.61781233 5 1 C4.67 1.66 4.34 2.32 4 3 C3.01 2.67 2.02 2.34 1 2 C1 3.65 1 5.3 1 7 C0.01 6.34 -0.98 5.68 -2 5 C-1.125 1.125 -1.125 1.125 0 0 Z " fill="#F5A950" transform="translate(334,122)"/>
<path d="M0 0 C0.99 0.33 1.98 0.66 3 1 C2.67 2.65 2.34 4.3 2 6 C0.68 5.67 -0.64 5.34 -2 5 C-2 3.68 -2 2.36 -2 1 C-1.34 0.67 -0.68 0.34 0 0 Z " fill="#EC847E" transform="translate(229,124)"/>
<path d="M0 0 C0.99 0 1.98 0 3 0 C2.34 2.97 1.68 5.94 1 9 C0.67 7.68 0.34 6.36 0 5 C-0.66 5 -1.32 5 -2 5 C-2 4.01 -2 3.02 -2 2 C-1.34 2 -0.68 2 0 2 C0 1.34 0 0.68 0 0 Z " fill="#C9484F" transform="translate(399,23)"/>
<path d="M0 0 C0.99 0 1.98 0 3 0 C3.33 2.64 3.66 5.28 4 8 C2.35 6.35 0.7 4.7 -1 3 C-0.67 2.01 -0.34 1.02 0 0 Z " fill="#F7F0EE" transform="translate(245,121)"/>
<path d="M0 0 C0.66 0 1.32 0 2 0 C2.33 1.65 2.66 3.3 3 5 C0.36 5 -2.28 5 -5 5 C-4.67 4.01 -4.34 3.02 -4 2 C-3.01 2 -2.02 2 -1 2 C-0.67 1.34 -0.34 0.68 0 0 Z " fill="#C32B37" transform="translate(176,27)"/>
<path d="M0 0 C2.475 0.495 2.475 0.495 5 1 C5 3.64 5 6.28 5 9 C4.01 8.67 3.02 8.34 2 8 C2.33 6.02 2.66 4.04 3 2 C2.01 1.67 1.02 1.34 0 1 C0 0.67 0 0.34 0 0 Z " fill="#C12832" transform="translate(284,23)"/>
<path d="M0 0 C1.4540625 0.0309375 1.4540625 0.0309375 2.9375 0.0625 C2.31875 0.248125 1.7 0.43375 1.0625 0.625 C-2.11852866 2.77687233 -2.25701947 5.43783763 -3.0625 9.0625 C-3.3925 9.0625 -3.7225 9.0625 -4.0625 9.0625 C-4.16015625 2.91015625 -4.16015625 2.91015625 -4.0625 1.0625 C-3.0625 0.0625 -3.0625 0.0625 0 0 Z " fill="#F9E6DE" transform="translate(276.0625,136.9375)"/>
<path d="M0 0 C1.65 0.33 3.3 0.66 5 1 C5 1.66 5 2.32 5 3 C5.66 3.33 6.32 3.66 7 4 C6.01 4.33 5.02 4.66 4 5 C4 4.01 4 3.02 4 2 C3.34 2 2.68 2 2 2 C1.67 2.99 1.34 3.98 1 5 C0.01 4.34 -0.98 3.68 -2 3 C-1.34 2.01 -0.68 1.02 0 0 Z " fill="#F59E3A" transform="translate(379,126)"/>
<path d="M0 0 C0.33 0 0.66 0 1 0 C1 1.98 1 3.96 1 6 C-0.32 6 -1.64 6 -3 6 C-3 4.68 -3 3.36 -3 2 C-2.01 2 -1.02 2 0 2 C0 1.34 0 0.68 0 0 Z " fill="#F8E2DC" transform="translate(194,138)"/>
<path d="M0 0 C0.99 0 1.98 0 3 0 C3.33 1.32 3.66 2.64 4 4 C2.68 4.33 1.36 4.66 0 5 C-0.5625 3.0625 -0.5625 3.0625 -1 1 C-0.67 0.67 -0.34 0.34 0 0 Z " fill="#F2D1CF" transform="translate(377,25)"/>
<path d="M0 0 C0.99 0.66 1.98 1.32 3 2 C2.67 3.65 2.34 5.3 2 7 C1.34 6.34 0.68 5.68 0 5 C-2.57061311 4.35232207 -2.57061311 4.35232207 -5 4 C-4.67 3.34 -4.34 2.68 -4 2 C-2.02 2.495 -2.02 2.495 0 3 C0 2.01 0 1.02 0 0 Z " fill="#F9E6E0" transform="translate(253,137)"/>
<path d="M0 0 C2.475 0.99 2.475 0.99 5 2 C5 2.66 5 3.32 5 4 C3.02 4 1.04 4 -1 4 C-0.67 2.68 -0.34 1.36 0 0 Z " fill="#F8EEE8" transform="translate(181,134)"/>
<path d="M0 0 C1.32 0.33 2.64 0.66 4 1 C4.33 2.32 4.66 3.64 5 5 C2.69 5 0.38 5 -2 5 C-1.67 4.34 -1.34 3.68 -1 3 C-0.34 3.33 0.32 3.66 1 4 C0.67 2.68 0.34 1.36 0 0 Z " fill="#D9443F" transform="translate(299,128)"/>
<path d="M0 0 C0.33 0.66 0.66 1.32 1 2 C0.34 2 -0.32 2 -1 2 C-1 2.66 -1 3.32 -1 4 C-1.66 4 -2.32 4 -3 4 C-3 4.66 -3 5.32 -3 6 C-3.66 6 -4.32 6 -5 6 C-5 4.35 -5 2.7 -5 1 C-3.35 0.67 -1.7 0.34 0 0 Z " fill="#F9E9E7" transform="translate(260,125)"/>
<path d="M0 0 C0.66 0 1.32 0 2 0 C2.268125 0.78375 2.53625 1.5675 2.8125 2.375 C3.84814432 5.28114923 3.84814432 5.28114923 7 7 C4.625 7.125 4.625 7.125 2 7 C0 5 0 5 -0.125 2.375 C-0.08375 1.59125 -0.0425 0.8075 0 0 Z " fill="#BF2428" transform="translate(210,25)"/>
<path d="M0 0 C1.32 0 2.64 0 4 0 C4.33 1.65 4.66 3.3 5 5 C3.02 5 1.04 5 -1 5 C-0.67 3.35 -0.34 1.7 0 0 Z " fill="#C73C40" transform="translate(244,27)"/>
<path d="M0 0 C0.66 0 1.32 0 2 0 C2.33 0.99 2.66 1.98 3 3 C2.01 4.485 2.01 4.485 1 6 C0.61500109 7.65549531 0.27206865 9.3222433 0 11 C-0.33 11 -0.66 11 -1 11 C-1.0270043 9.54176788 -1.04639787 8.08339325 -1.0625 6.625 C-1.07410156 5.81289063 -1.08570313 5.00078125 -1.09765625 4.1640625 C-1 2 -1 2 0 0 Z " fill="#F4D7D9" transform="translate(236,21)"/>
<path d="M0 0 C0.33 0.99 0.66 1.98 1 3 C-1.31 2.67 -3.62 2.34 -6 2 C-6 1.34 -6 0.68 -6 0 C-3 -1 -3 -1 0 0 Z " fill="#F9FDFB" transform="translate(264,147)"/>
<path d="M0 0 C0.66 1.32 1.32 2.64 2 4 C1 5 1 5 -1.5625 5.0625 C-2.7690625 5.0315625 -2.7690625 5.0315625 -4 5 C-4 4.34 -4 3.68 -4 3 C-2 1.375 -2 1.375 0 0 Z " fill="#F49425" transform="translate(337,142)"/>
<path d="M0 0 C2.3431213 0.25561323 4.67843403 0.59270772 7 1 C7.33 1.66 7.66 2.32 8 3 C6.35 3 4.7 3 3 3 C2.34 4.32 1.68 5.64 1 7 C0.67 4.69 0.34 2.38 0 0 Z " fill="#FAE7DF" transform="translate(202,131)"/>
<path d="M0 0 C2.475 0.99 2.475 0.99 5 2 C4.34 3.65 3.68 5.3 3 7 C2.67 5.68 2.34 4.36 2 3 C0.68 2.67 -0.64 2.34 -2 2 C-1.34 1.34 -0.68 0.68 0 0 Z " fill="#3B4492" transform="translate(130,64)"/>
<path d="M0 0 C1.32 0.33 2.64 0.66 4 1 C3.67 2.32 3.34 3.64 3 5 C2.01 5 1.02 5 0 5 C0 3.35 0 1.7 0 0 Z " fill="#F5D9D8" transform="translate(300,25)"/>
<path d="M0 0 C2.31 0 4.62 0 7 0 C7.33 1.32 7.66 2.64 8 4 C5.125 3.6875 5.125 3.6875 2 3 C1.34 2.01 0.68 1.02 0 0 Z " fill="#F9CBC3" transform="translate(219,137)"/>
<path d="M0 0 C0.99 0.33 1.98 0.66 3 1 C4.1875 3.5625 4.1875 3.5625 5 6 C3.125 5.6875 3.125 5.6875 1 5 C0.34 4.01 -0.32 3.02 -1 2 C-0.67 1.34 -0.34 0.68 0 0 Z " fill="#F5F3F0" transform="translate(137,116)"/>
<path d="M0 0 C0.99 0.33 1.98 0.66 3 1 C2.67 2.32 2.34 3.64 2 5 C1.01 5 0.02 5 -1 5 C-0.67 3.35 -0.34 1.7 0 0 Z " fill="#F8E6E4" transform="translate(214,25)"/>
</svg>
