<?xml version="1.0" encoding="UTF-8"?>
<svg version="1.1" xmlns="http://www.w3.org/2000/svg" width="500" height="150">
<path d="M0 0 C165 0 330 0 500 0 C500 49.5 500 99 500 150 C335 150 170 150 0 150 C0 100.5 0 51 0 0 Z " fill="#FDFDFD" transform="translate(0,0)"/>
<path d="M0 0 C3.54122827 -0.14601614 7.08167644 -0.2343056 10.625 -0.3125 C11.62402344 -0.35439453 12.62304688 -0.39628906 13.65234375 -0.43945312 C22.00058996 -0.57766912 22.00058996 -0.57766912 25.5234375 2.14453125 C30.80726263 8.23676496 31.5011824 13.08259017 31.4375 20.875 C31.4674707 22.16470703 31.4674707 22.16470703 31.49804688 23.48046875 C31.49393287 28.9027278 30.58447431 32.54516037 27.9465332 37.27026367 C25.33987517 42.03378499 26.14485533 45.91057558 27.25 51.0625 C27.38768799 51.71355713 27.52537598 52.36461426 27.66723633 53.03540039 C28.96139835 59.05989711 30.43518393 65.04038133 32 71 C34.97 71.495 34.97 71.495 38 72 C37.94803467 70.36732178 37.94803467 70.36732178 37.89501953 68.70166016 C37.89990698 63.29717317 38.78985522 58.09230064 39.6796875 52.7734375 C39.85251251 51.70815826 40.02533752 50.64287903 40.20339966 49.5453186 C40.75467997 46.15421464 41.3144938 42.76459005 41.875 39.375 C42.6037894 34.92484169 43.32929794 30.47415107 44.0546875 26.0234375 C44.2279657 24.96429138 44.4012439 23.90514526 44.57977295 22.81390381 C45.81701741 15.2216743 46.97262406 7.62384987 48 0 C50.97 0 53.94 0 57 0 C57.46370014 2.20721266 57.92057392 4.41585933 58.375 6.625 C58.63023437 7.85476562 58.88546875 9.08453125 59.1484375 10.3515625 C60.08269014 15.19273947 60.73423052 20.06811239 61.41552734 24.95019531 C62.05816585 29.47692352 62.78107788 33.99003285 63.5078125 38.50390625 C63.63932709 39.32381042 63.77084167 40.1437146 63.90634155 40.98846436 C64.45052015 44.3782169 64.99589686 47.76776022 65.54638672 51.15649414 C65.95369303 53.66758267 66.35612672 56.17941338 66.7578125 58.69140625 C66.88278107 59.45288467 67.00774963 60.2143631 67.13650513 60.99891663 C67.7248046 64.70058529 68.14699599 68.24975325 68 72 C69.98 72 71.96 72 74 72 C74 50.22 74 28.44 74 6 C73.01 6 72.02 6 71 6 C71 4.02 71 2.04 71 0 C74.96 0 78.92 0 83 0 C86.9659888 11.58209118 90.52185126 23.26362378 94 35 C94.99 38.3 95.98 41.6 97 45 C97.33 32.13 97.66 19.26 98 6 C97.01 6 96.02 6 95 6 C95 4.02 95 2.04 95 0 C97.97 0 100.94 0 104 0 C104 1.98 104 3.96 104 6 C103.01 6 102.02 6 101 6 C101 29.76 101 53.52 101 78 C99.02 78 97.04 78 95 78 C88.2169452 59.28368731 88.2169452 59.28368731 85.9375 50.4375 C83.61798213 41.5335443 80.77074554 32.77402755 78 24 C77.67 39.84 77.34 55.68 77 72 C77.99 72 78.98 72 80 72 C80 73.98 80 75.96 80 78 C71.75 78 63.5 78 55 78 C55 76.02 55 74.04 55 72 C55.99 72 56.98 72 58 72 C57.855625 71.26394531 57.71125 70.52789062 57.5625 69.76953125 C57.2840625 68.30580078 57.2840625 68.30580078 57 66.8125 C56.814375 65.84957031 56.62875 64.88664062 56.4375 63.89453125 C56 61 56 61 56 56 C51.71 56 47.42 56 43 56 C43.020625 57.340625 43.04125 58.68125 43.0625 60.0625 C43.06896884 64.15080689 42.68530907 67.97380919 42 72 C42.66 72 43.32 72 44 72 C44 73.98 44 75.96 44 78 C36.74 78 29.48 78 22 78 C21.00017819 73.49825129 20.00227847 68.99616554 19.00927734 64.49291992 C18.67089031 62.96109408 18.33137949 61.42951603 17.99072266 59.89819336 C17.50127241 57.69709423 17.01587027 55.49513565 16.53125 53.29296875 C16.37813354 52.60849167 16.22501709 51.92401459 16.06726074 51.21879578 C15.45223989 48.40826626 15 45.8878557 15 43 C14.34 43 13.68 43 13 43 C13 52.57 13 62.14 13 72 C13.99 72 14.98 72 16 72 C16 73.98 16 75.96 16 78 C10.72 78 5.44 78 0 78 C0 76.02 0 74.04 0 72 C0.99 72 1.98 72 3 72 C3 50.22 3 28.44 3 6 C2.01 6 1.02 6 0 6 C0 4.02 0 2.04 0 0 Z " fill="#0F1211" transform="translate(239,29)"/>
<path d="M0 0 C2.97 0 5.94 0 9 0 C9.46370014 2.20721266 9.92057392 4.41585933 10.375 6.625 C10.63023437 7.85476562 10.88546875 9.08453125 11.1484375 10.3515625 C12.08269014 15.19273947 12.73423052 20.06811239 13.41552734 24.95019531 C14.05816585 29.47692352 14.78107788 33.99003285 15.5078125 38.50390625 C15.63932709 39.32381042 15.77084167 40.1437146 15.90634155 40.98846436 C16.45052015 44.3782169 16.99589686 47.76776022 17.54638672 51.15649414 C17.95369303 53.66758267 18.35612672 56.17941338 18.7578125 58.69140625 C18.94526535 59.83362389 18.94526535 59.83362389 19.13650513 60.99891663 C19.7248046 64.70058529 20.14699599 68.24975325 20 72 C21.98 72 23.96 72 26 72 C26 50.22 26 28.44 26 6 C25.01 6 24.02 6 23 6 C23 4.02 23 2.04 23 0 C26.96 0 30.92 0 35 0 C38.9659888 11.58209118 42.52185126 23.26362378 46 35 C46.99 38.3 47.98 41.6 49 45 C49.33 32.13 49.66 19.26 50 6 C49.01 6 48.02 6 47 6 C47 4.02 47 2.04 47 0 C49.97 0 52.94 0 56 0 C56 1.98 56 3.96 56 6 C55.01 6 54.02 6 53 6 C53 29.76 53 53.52 53 78 C51.02 78 49.04 78 47 78 C40.2169452 59.28368731 40.2169452 59.28368731 37.9375 50.4375 C35.61798213 41.5335443 32.77074554 32.77402755 30 24 C29.67 39.84 29.34 55.68 29 72 C29.99 72 30.98 72 32 72 C32 73.98 32 75.96 32 78 C23.75 78 15.5 78 7 78 C7 76.02 7 74.04 7 72 C7.99 72 8.98 72 10 72 C9.855625 71.26394531 9.71125 70.52789062 9.5625 69.76953125 C9.376875 68.79371094 9.19125 67.81789063 9 66.8125 C8.814375 65.84957031 8.62875 64.88664062 8.4375 63.89453125 C8 61 8 61 8 56 C3.71 56 -0.58 56 -5 56 C-3.02 55.505 -3.02 55.505 -1 55 C-1 54.01 -1 53.02 -1 52 C-1.66 51.34 -2.32 50.68 -3 50 C0.3 50 3.6 50 7 50 C6.80664062 49.07960937 6.61328125 48.15921875 6.4140625 47.2109375 C4.62216716 38.49984234 3.1554284 29.82203563 2 21 C1.67 21 1.34 21 1 21 C0.34 25.62 -0.32 30.24 -1 35 C-1.33 34.34 -1.66 33.68 -2 33 C-2.66 33 -3.32 33 -4 33 C-3.773125 33.9075 -3.54625 34.815 -3.3125 35.75 C-3 39 -3 39 -4.48046875 41.203125 C-4.98191406 41.79609375 -5.48335938 42.3890625 -6 43 C-4.32631228 28.61949892 -2.15846624 14.31436999 0 0 Z " fill="#0A0D0C" transform="translate(287,29)"/>
<path d="M0 0 C3.22899426 -0.0875127 6.45768116 -0.14056146 9.6875 -0.1875 C11.05551758 -0.22520508 11.05551758 -0.22520508 12.45117188 -0.26367188 C21.07999431 -0.35780448 21.07999431 -0.35780448 25 3 C32.37416112 12.50396542 32.47918704 26.49546047 32.375 37.875 C32.38660156 39.13441406 32.39820313 40.39382812 32.41015625 41.69140625 C32.37450754 53.25347265 31.65363585 65.73630051 24 75 C23.57936279 75.52094238 23.15872559 76.04188477 22.7253418 76.57861328 C20.4241792 78.47437791 19.06612502 78.34665682 16.11328125 78.29296875 C15.17548828 78.28330078 14.23769531 78.27363281 13.27148438 78.26367188 C12.29501953 78.23853516 11.31855469 78.21339844 10.3125 78.1875 C9.32443359 78.17396484 8.33636719 78.16042969 7.31835938 78.14648438 C4.87835769 78.11112203 2.43945281 78.06177033 0 78 C0 76.02 0 74.04 0 72 C0.99 72 1.98 72 3 72 C3 50.22 3 28.44 3 6 C2.01 6 1.02 6 0 6 C0 4.02 0 2.04 0 0 Z " fill="#0B0F0F" transform="translate(344,29)"/>
<path d="M0 0 C3.54122827 -0.14601614 7.08167644 -0.2343056 10.625 -0.3125 C11.62402344 -0.35439453 12.62304688 -0.39628906 13.65234375 -0.43945312 C21.99700982 -0.57760985 21.99700982 -0.57760985 25.59375 2.32421875 C30.67227302 7.9716023 31.50062798 12.87092292 31.296875 20.27734375 C30.7284063 25.49080014 28.91469504 29.62795745 26 34 C25.34 34 24.68 34 24 34 C24 34.66 24 35.32 24 36 C25.485 36.495 25.485 36.495 27 37 C32.39468717 45.25069802 32.99025906 53.57932449 31.69140625 63.3125 C30.3873659 69.22107218 28.11553893 74.58964071 23 78 C20.5480957 78.22705078 20.5480957 78.22705078 17.67578125 78.1953125 C16.64775391 78.18886719 15.61972656 78.18242188 14.56054688 78.17578125 C12.95276367 78.15064453 12.95276367 78.15064453 11.3125 78.125 C10.22904297 78.11597656 9.14558594 78.10695313 8.02929688 78.09765625 C5.3526429 78.0740734 2.67643203 78.04116126 0 78 C0 76.02 0 74.04 0 72 C0.99 72 1.98 72 3 72 C3 50.22 3 28.44 3 6 C2.01 6 1.02 6 0 6 C0 4.02 0 2.04 0 0 Z " fill="#0E1110" transform="translate(207,29)"/>
<path d="M0 0 C8.76096992 7.94599598 10.54382105 20.40024021 11.14160156 31.66943359 C11.75329289 47.12363515 12.16688498 65.14361928 2 78 C-0.84825182 80.54390233 -1.54398908 81 -5.5 81 C-9.82902972 79.76313437 -10.72007689 78.85228387 -13 75 C-21.99359922 55.38665262 -23.03473074 31.33686098 -15.625 11 C-12.40472519 2.68961339 -9.39076612 -2.38748291 0 0 Z " fill="#111413" transform="translate(189,28)"/>
<path d="M0 0 C3.96 0 7.92 0 12 0 C14.94431221 7.70050885 17.40419462 15.4819965 19.71728516 23.38964844 C21.65864419 29.99421769 23.81814717 36.45444151 26 43 C26.33 30.79 26.66 18.58 27 6 C26.01 6 25.02 6 24 6 C24 4.02 24 2.04 24 0 C27.3 0 30.6 0 34 0 C34 1.98 34 3.96 34 6 C33.01 6 32.02 6 31 6 C31 29.76 31 53.52 31 78 C28.69 78 26.38 78 24 78 C21.99501607 71.48980118 19.99246124 64.97888741 18 58.46484375 C17.67 57.38783203 17.34 56.31082031 17 55.20117188 C16.33223908 53.02181936 15.66557583 50.84213021 15 48.66210938 C13.03248481 42.24847099 10.96522959 35.88815959 8.734375 29.56079102 C8 27 8 27 8 23 C7.34 23 6.68 23 6 23 C6 39.17 6 55.34 6 72 C6.99 72 7.98 72 9 72 C9 73.98 9 75.96 9 78 C6.03 78 3.06 78 0 78 C0 76.02 0 74.04 0 72 C0.99 72 1.98 72 3 72 C3 50.22 3 28.44 3 6 C2.01 6 1.02 6 0 6 C0 4.02 0 2.04 0 0 Z " fill="#090D0D" transform="translate(106,29)"/>
<path d="M0 0 C9.24 0 18.48 0 28 0 C28 6.27 28 12.54 28 19 C27.01 19 26.02 19 25 19 C24.86722656 18.31292969 24.73445313 17.62585938 24.59765625 16.91796875 C24.42105469 16.01691406 24.24445313 15.11585937 24.0625 14.1875 C23.88847656 13.29417969 23.71445313 12.40085937 23.53515625 11.48046875 C23.02258847 8.88602829 23.02258847 8.88602829 22 6 C19.03 6 16.06 6 13 6 C13 14.91 13 23.82 13 33 C14.65 33 16.3 33 18 33 C18 30.69 18 28.38 18 26 C18.99 26 19.98 26 21 26 C21 32.93 21 39.86 21 47 C20.01 47 19.02 47 18 47 C18 44.36 18 41.72 18 39 C16.35 39 14.7 39 13 39 C13 49.89 13 60.78 13 72 C13.99 72 14.98 72 16 72 C16 73.98 16 75.96 16 78 C10.72 78 5.44 78 0 78 C0 76.02 0 74.04 0 72 C0.99 72 1.98 72 3 72 C3 50.22 3 28.44 3 6 C2.01 6 1.02 6 0 6 C0 4.02 0 2.04 0 0 Z " fill="#090C0D" transform="translate(141,29)"/>
<path d="M0 0 C2.97 0 5.94 0 9 0 C9.46370014 2.20721266 9.92057392 4.41585933 10.375 6.625 C10.63023437 7.85476562 10.88546875 9.08453125 11.1484375 10.3515625 C12.08269014 15.19273947 12.73423052 20.06811239 13.41552734 24.95019531 C14.05816585 29.47692352 14.78107788 33.99003285 15.5078125 38.50390625 C15.63932709 39.32381042 15.77084167 40.1437146 15.90634155 40.98846436 C16.45052015 44.3782169 16.99589686 47.76776022 17.54638672 51.15649414 C17.95369303 53.66758267 18.35612672 56.17941338 18.7578125 58.69140625 C18.94526535 59.83362389 18.94526535 59.83362389 19.13650513 60.99891663 C19.7248046 64.70058529 20.14699599 68.24975325 20 72 C20.99 72 21.98 72 23 72 C23 73.65 23 75.3 23 77 C25.64 77 28.28 77 31 77 C31 75.68 31 74.36 31 73 C30.01 72.505 30.01 72.505 29 72 C29.99 72 30.98 72 32 72 C32 73.98 32 75.96 32 78 C23.75 78 15.5 78 7 78 C7 76.02 7 74.04 7 72 C7.99 72 8.98 72 10 72 C9.855625 71.26394531 9.71125 70.52789062 9.5625 69.76953125 C9.376875 68.79371094 9.19125 67.81789063 9 66.8125 C8.814375 65.84957031 8.62875 64.88664062 8.4375 63.89453125 C8 61 8 61 8 56 C3.71 56 -0.58 56 -5 56 C-3.02 55.505 -3.02 55.505 -1 55 C-1 54.01 -1 53.02 -1 52 C-1.66 51.34 -2.32 50.68 -3 50 C0.3 50 3.6 50 7 50 C6.80664062 49.07960937 6.61328125 48.15921875 6.4140625 47.2109375 C4.62216716 38.49984234 3.1554284 29.82203563 2 21 C1.67 21 1.34 21 1 21 C0.34 25.62 -0.32 30.24 -1 35 C-1.33 34.34 -1.66 33.68 -2 33 C-2.66 33 -3.32 33 -4 33 C-3.773125 33.9075 -3.54625 34.815 -3.3125 35.75 C-3 39 -3 39 -4.48046875 41.203125 C-4.98191406 41.79609375 -5.48335938 42.3890625 -6 43 C-4.32631228 28.61949892 -2.15846624 14.31436999 0 0 Z " fill="#101313" transform="translate(287,29)"/>
<path d="M0 0 C2.5800461 2.5800461 2.53871251 4.19163365 3.0703125 7.77734375 C3.24433594 8.93041016 3.41835938 10.08347656 3.59765625 11.27148438 C3.77167969 12.48126953 3.94570313 13.69105469 4.125 14.9375 C4.30675781 16.14341797 4.48851562 17.34933594 4.67578125 18.59179688 C6 27.50787124 6 27.50787124 6 31 C3.69 31.33 1.38 31.66 -1 32 C-1.33 33.32 -1.66 34.64 -2 36 C-3.32 36 -4.64 36 -6 36 C-5.98839844 36.64066406 -5.97679687 37.28132813 -5.96484375 37.94140625 C-5.91116881 43.08653222 -6.11830422 47.93024924 -7 53 C-6.34 53 -5.68 53 -5 53 C-5 54.98 -5 56.96 -5 59 C-12.26 59 -19.52 59 -27 59 C-28.02360721 54.51757042 -29.04158397 50.034595 -30.0456543 45.54785156 C-30.38877186 44.02238038 -30.73510022 42.49762765 -31.0847168 40.97363281 C-31.58710926 38.78111492 -32.07784393 36.58626049 -32.56640625 34.390625 C-32.72468399 33.7113092 -32.88296173 33.03199341 -33.04603577 32.33209229 C-34.40208332 26.13927871 -34.40208332 26.13927871 -33 23 C-30.4375 20.75 -30.4375 20.75 -28 19 C-27.67 19.99 -27.34 20.98 -27 22 C-26.01 22 -25.02 22 -24 22 C-23.74605469 23.16015625 -23.49210937 24.3203125 -23.23046875 25.515625 C-21.28127382 34.37819259 -19.27408802 43.21375082 -17 52 C-15.02 52.33 -13.04 52.66 -11 53 C-11.02707031 51.87722656 -11.05414063 50.75445312 -11.08203125 49.59765625 C-11.07885789 44.79213037 -10.44742841 40.17476517 -9.6875 35.4375 C-9.56955078 34.62603516 -9.45160156 33.81457031 -9.33007812 32.97851562 C-8.52550333 27.86637113 -7.13764995 23.70282989 -5 19 C-4.74609778 16.20659843 -4.74609778 16.20659843 -5 14 C-4.34 14 -3.68 14 -3 14 C-1.79444595 11.58889191 -1.71839022 9.68307986 -1.5 7 C-1.11111111 2.22222222 -1.11111111 2.22222222 0 0 Z " fill="#141717" transform="translate(288,48)"/>
<path d="M0 0 C3.49473952 1.52442948 6.064394 3.53969604 8.15625 6.8046875 C9.8987298 11.33836181 9.51072309 16.23750721 9 21 C6.73430831 25.87995132 3.82626694 28.63239735 -1 31 C-5.97326462 31.98727146 -9.94240123 31.39824417 -14.375 28.9375 C-18.22419309 26.20012563 -19.76614844 23.62694334 -21 19 C-21.65568434 14.24421358 -21.51520755 11.01133333 -19.3125 6.6875 C-18.1678125 5.3571875 -18.1678125 5.3571875 -17 4 C-16.34 3.21625 -15.68 2.4325 -15 1.625 C-10.15736757 -0.99809256 -5.37340209 -0.83159794 0 0 Z " fill="#EC222A" transform="translate(400,29)"/>
<path d="M0 0 C4.62 0 9.24 0 14 0 C14 1.98 14 3.96 14 6 C13.01 6 12.02 6 11 6 C11 27.78 11 49.56 11 72 C11.99 72 12.98 72 14 72 C14 73.98 14 75.96 14 78 C9.38 78 4.76 78 0 78 C0 76.02 0 74.04 0 72 C0.99 72 1.98 72 3 72 C3 50.22 3 28.44 3 6 C2.01 6 1.02 6 0 6 C0 4.02 0 2.04 0 0 Z " fill="#060908" transform="translate(91,29)"/>
<path d="M0 0 C0.66 0.33 1.32 0.66 2 1 C1.34 1.66 0.68 2.32 0 3 C0.33 3.99 0.66 4.98 1 6 C0.68785775 7.33845288 0.35113594 8.67124402 0 10 C-0.09561238 11.86724004 -0.13805493 13.73750527 -0.14526367 15.60717773 C-0.15164352 16.73192001 -0.15802338 17.85666229 -0.16459656 19.01548767 C-0.16570938 20.22596268 -0.1668222 21.43643768 -0.16796875 22.68359375 C-0.17129715 23.93125015 -0.17462555 25.17890656 -0.17805481 26.46437073 C-0.18311752 29.10299244 -0.18589592 31.74151112 -0.18530273 34.38012695 C-0.1852011 37.75382484 -0.19885934 41.12731232 -0.21607494 44.50096035 C-0.22989466 47.72849689 -0.22928429 50.95603164 -0.23046875 54.18359375 C-0.23765427 55.39204453 -0.24483978 56.6004953 -0.25224304 57.8455658 C-0.24916641 58.97346024 -0.24608978 60.10135468 -0.24291992 61.26342773 C-0.24505745 62.74757423 -0.24505745 62.74757423 -0.24723816 64.26170349 C0.02160049 67.23923713 0.62783643 69.34716948 2 72 C2.99 72.66 3.98 73.32 5 74 C4.01 74.495 4.01 74.495 3 75 C2.34786708 77.02463255 2.34786708 77.02463255 2 79 C3.32 79.33 4.64 79.66 6 80 C-0.28002654 79.63769078 -0.28002654 79.63769078 -3.1875 77.0625 C-13.46912512 59.69009894 -14.7394537 36.39086135 -10 17 C-8.1584542 11.38359123 -6.28937529 5.93406293 -3 1 C-2.01 0.67 -1.02 0.34 0 0 Z " fill="#0F1211" transform="translate(181,29)"/>
<path d="M0 0 C1.75 0.0625 1.75 0.0625 4 1 C9.48155244 9.14402077 9.97946882 17.660183 8.69140625 27.3125 C7.3873659 33.22107218 5.11553893 38.58964071 0 42 C-2.4519043 42.22705078 -2.4519043 42.22705078 -5.32421875 42.1953125 C-6.86625977 42.18564453 -6.86625977 42.18564453 -8.43945312 42.17578125 C-9.51130859 42.15902344 -10.58316406 42.14226562 -11.6875 42.125 C-12.77095703 42.11597656 -13.85441406 42.10695312 -14.97070312 42.09765625 C-17.6473571 42.0740734 -20.32356797 42.04116126 -23 42 C-23 40.02 -23 38.04 -23 36 C-22.67 36 -22.34 36 -22 36 C-22 37.65 -22 39.3 -22 41 C-14.08 40.505 -14.08 40.505 -6 40 C-5.67 38.68 -5.34 37.36 -5 36 C-6.65 36 -8.3 36 -10 36 C-10 25.11 -10 14.22 -10 3 C-8.02 3 -6.04 3 -4 3 C-2.125 5 -2.125 5 -1 7 C-0.67 4.69 -0.34 2.38 0 0 Z " fill="#0F1211" transform="translate(230,65)"/>
<path d="M0 0 C3.54122827 -0.14601614 7.08167644 -0.2343056 10.625 -0.3125 C11.62402344 -0.35439453 12.62304688 -0.39628906 13.65234375 -0.43945312 C22.00058996 -0.57766912 22.00058996 -0.57766912 25.5234375 2.14453125 C30.80726263 8.23676496 31.5011824 13.08259017 31.4375 20.875 C31.4674707 22.16470703 31.4674707 22.16470703 31.49804688 23.48046875 C31.4935554 29.40023393 30.46437748 34.10128526 27 39 C26.01 39.495 26.01 39.495 25 40 C25 39.01 25 38.02 25 37 C23.515 36.505 23.515 36.505 22 36 C21.01 36.66 20.02 37.32 19 38 C17.02 38 15.04 38 13 38 C13 27.44 13 16.88 13 6 C14.65 6 16.3 6 18 6 C18.33 4.35 18.66 2.7 19 1 C13.06 1 7.12 1 1 1 C1 2.65 1 4.3 1 6 C0.67 6 0.34 6 0 6 C0 4.02 0 2.04 0 0 Z " fill="#0D100F" transform="translate(239,29)"/>
<path d="M0 0 C2.74866966 2.74866966 2.27425011 4.34359317 2.31884766 8.19384766 C2.33871735 9.49504547 2.35858704 10.79624329 2.37905884 12.13687134 C2.3909362 13.5626 2.402599 14.98833045 2.4140625 16.4140625 C2.43276674 17.86853138 2.45233959 19.32298933 2.4727478 20.7774353 C2.52415394 24.60784469 2.56373399 28.43828928 2.60089111 32.26885986 C2.64087782 36.17672497 2.6919944 40.08444252 2.7421875 43.9921875 C2.8390471 51.66135723 2.92341947 59.33059813 3 67 C5.76264289 67.59732819 8.16032769 68 11 68 C10.04296875 69.984375 10.04296875 69.984375 8 72 C5.09705206 72.52039056 2.24999543 72.37530743 -0.6875 72.25 C-1.48478516 72.23195313 -2.28207031 72.21390625 -3.10351562 72.1953125 C-5.06952449 72.14822247 -7.03491494 72.07647899 -9 72 C-9 70.68 -9 69.36 -9 68 C-8.01 67.505 -8.01 67.505 -7 67 C-6.67 45.88 -6.34 24.76 -6 3 C-4.02 2.01 -2.04 1.02 0 0 Z " fill="#030605" transform="translate(354,34)"/>
<path d="M0 0 C1.9375 0.25 1.9375 0.25 4 1 C6.30720741 4.46081111 6.25699982 5.79522866 6.2746582 9.87670898 C6.28419022 11.08483749 6.29372223 12.292966 6.30354309 13.53770447 C6.30263168 14.84397293 6.30172028 16.15024139 6.30078125 17.49609375 C6.30466871 18.84985994 6.30900349 20.20362491 6.31376648 21.55738831 C6.32122707 24.39450026 6.32093871 27.23148778 6.31567383 30.06860352 C6.30988023 33.70149174 6.32680762 37.33386995 6.3500185 40.96667385 C6.36476227 43.76254751 6.36562669 46.55829853 6.36250877 49.35420418 C6.36327085 51.34394194 6.37713966 53.3336607 6.39118958 55.323349 C6.38496078 56.53462967 6.37873199 57.74591034 6.37231445 58.99389648 C6.37294388 60.05962387 6.3735733 61.12535126 6.3742218 62.22337341 C5.9550477 65.33353415 5.08619008 66.70488697 3 69 C1.125 68.8125 1.125 68.8125 -1 68 C-2.85471473 64.35707467 -3.25224939 61.33339877 -3.25878906 57.27929688 C-3.26509338 56.15463013 -3.27139771 55.02996338 -3.27789307 53.87121582 C-3.2738446 52.6659021 -3.26979614 51.46058838 -3.265625 50.21875 C-3.26849518 48.34938782 -3.26849518 48.34938782 -3.27142334 46.44226074 C-3.27313093 43.13646436 -3.26509701 39.83085677 -3.25390625 36.52508545 C-3.25000357 34.50185142 -3.25389313 32.4787909 -3.26074219 30.45556641 C-3.27309773 26.5640458 -3.27159997 22.67278131 -3.265625 18.78125 C-3.26967346 17.57593628 -3.27372192 16.37062256 -3.27789307 15.12878418 C-3.27158875 14.00411743 -3.26528442 12.87945068 -3.25878906 11.72070312 C-3.25719788 10.73428833 -3.25560669 9.74787354 -3.25396729 8.73156738 C-2.95782582 5.54639195 -2.33786315 2.33786315 0 0 Z " fill="#F7F8F8" transform="translate(183,33)"/>
<path d="M0 0 C1.65 0 3.3 0 5 0 C9.91366281 5.96659055 9.15922591 13.8661502 9.16796875 21.18359375 C9.17129715 22.15732437 9.17462555 23.13105499 9.17805481 24.1342926 C9.18310294 26.18758677 9.18546379 28.24088909 9.18530273 30.29418945 C9.1874902 33.423478 9.2056712 36.55241431 9.22460938 39.68164062 C9.2275436 41.68229047 9.2295282 43.68294198 9.23046875 45.68359375 C9.23765427 46.61296249 9.24483978 47.54233124 9.25224304 48.49986267 C9.22922382 55.09176151 8.7467419 60.37988714 5 66 C3.35 66 1.7 66 0 66 C0 44.22 0 22.44 0 0 Z " fill="#F2F3F2" transform="translate(357,35)"/>
<path d="M0 0 C4.33670359 2.93020513 6.78833821 5.90914193 8 11 C8.91084417 19.35980269 7.70630525 25.94054213 3 33 C0.61435923 32.42415568 -1.66682784 31.77772405 -4 31 C-4.33 31.33 -4.66 31.66 -5 32 C-6.65 32 -8.3 32 -10 32 C-10 22.76 -10 13.52 -10 4 C-7.69 3.34 -5.38 2.68 -3 2 C-2.01 1.34 -1.02 0.68 0 0 Z " fill="#101312" transform="translate(230,30)"/>
<path d="M0 0 C3.22899426 -0.0875127 6.45768116 -0.14056146 9.6875 -0.1875 C11.05551758 -0.22520508 11.05551758 -0.22520508 12.45117188 -0.26367188 C21.07210301 -0.3577184 21.07210301 -0.3577184 25 3 C26.3125 5.6875 26.3125 5.6875 27 8 C25.68 7.67 24.36 7.34 23 7 C22.01 8.32 21.02 9.64 20 11 C19.773125 10.360625 19.54625 9.72125 19.3125 9.0625 C18.879375 8.381875 18.44625 7.70125 18 7 C15.525 6.505 15.525 6.505 13 6 C13 27.78 13 49.56 13 72 C12.67 72 12.34 72 12 72 C11.67 50.55 11.34 29.1 11 7 C7.2236068 6.7018576 7.2236068 6.7018576 5 8 C4.67 29.12 4.34 50.24 4 72 C3.67 72 3.34 72 3 72 C3 50.22 3 28.44 3 6 C2.01 6 1.02 6 0 6 C0 4.02 0 2.04 0 0 Z " fill="#282A29" transform="translate(344,29)"/>
<path d="M0 0 C1.98 0 3.96 0 6 0 C8.9548799 4.96388555 9.4804283 8.70296593 9.375 14.3125 C9.36847412 15.06144531 9.36194824 15.81039062 9.35522461 16.58203125 C9.22521567 21.95495669 9.03909987 28.96090013 5 33 C3.35 33 1.7 33 0 33 C0 22.11 0 11.22 0 0 Z " fill="#ECEDED" transform="translate(220,68)"/>
<path d="M0 0 C3.51102704 1.53153421 6.08256869 3.55657473 8.171875 6.84375 C9.17078466 9.44468459 9.19809112 11.47253749 9.125 14.25 C9.10695313 15.14203125 9.08890625 16.0340625 9.0703125 16.953125 C9.04710937 17.62859375 9.02390625 18.3040625 9 19 C8.01 19 7.02 19 6 19 C6 19.66 6 20.32 6 21 C5.01 21 4.02 21 3 21 C3.01160156 20.36191406 3.02320313 19.72382812 3.03515625 19.06640625 C3.04417969 18.24011719 3.05320312 17.41382812 3.0625 16.5625 C3.07410156 15.73878906 3.08570313 14.91507813 3.09765625 14.06640625 C3.23267348 12.00836062 3.23267348 12.00836062 2 11 C0.66197814 10.77486899 -0.68573023 10.60639193 -2.03515625 10.46484375 C-2.84404297 10.37783203 -3.65292969 10.29082031 -4.48632812 10.20117188 C-5.33646484 10.11416016 -6.18660156 10.02714844 -7.0625 9.9375 C-7.91650391 9.84662109 -8.77050781 9.75574219 -9.65039062 9.66210938 C-11.76651535 9.43749278 -13.88320894 9.21824773 -16 9 C-16.33 7.35 -16.66 5.7 -17 4 C-12.3615673 -1.30106595 -6.52533709 -1.0098736 0 0 Z " fill="#EC222C" transform="translate(400,29)"/>
<path d="M0 0 C0.99 0.33 1.98 0.66 3 1 C3.33 2.98 3.66 4.96 4 7 C4.33 5.68 4.66 4.36 5 3 C7.475 3.495 7.475 3.495 10 4 C10 6.64 10 9.28 10 12 C8.20843648 12.16777183 6.4167455 12.33418294 4.625 12.5 C3.62726563 12.5928125 2.62953125 12.685625 1.6015625 12.78125 C-3.57438887 13.21646513 -8.80753707 13 -14 13 C-15.4783226 10.04335481 -15.06032783 7.25770263 -15 4 C-9.80451575 1.79191919 -6.41735797 2.06597276 -1 3 C-0.67 2.01 -0.34 1.02 0 0 Z " fill="#F59499" transform="translate(260,112)"/>
<path d="M0 0 C1.65 0 3.3 0 5 0 C9.14358582 4.27024565 8.44393492 9.9315903 8.375 15.5 C8.38660156 16.43714844 8.39820313 17.37429687 8.41015625 18.33984375 C8.3710667 27.52588759 8.3710667 27.52588759 5 31 C3.35 31 1.7 31 0 31 C0 20.77 0 10.54 0 0 Z " fill="#F5F5F5" transform="translate(252,35)"/>
<path d="M0 0 C1.98 0 3.96 0 6 0 C8.58876519 3.87287491 8.29590334 7.95809906 8.25 12.4375 C8.25773438 13.18837891 8.26546875 13.93925781 8.2734375 14.71289062 C8.24161518 23.75838482 8.24161518 23.75838482 5 27 C3.35 27 1.7 27 0 27 C0 18.09 0 9.18 0 0 Z " fill="#EFF0EF" transform="translate(220,35)"/>
<path d="M0 0 C9.24 0 18.48 0 28 0 C28 6.27 28 12.54 28 19 C27.01 19 26.02 19 25 19 C24.66179834 17.4176994 24.32964061 15.83410625 24 14.25 C23.814375 13.36828125 23.62875 12.4865625 23.4375 11.578125 C23 9 23 9 23 5 C23.66 4.67 24.32 4.34 25 4 C25.66 4.33 26.32 4.66 27 5 C27 3.68 27 2.36 27 1 C18.42 1 9.84 1 1 1 C1 2.32 1 3.64 1 5 C1.99 5 2.98 5 4 5 C4 27.44 4 49.88 4 73 C3.01 73 2.02 73 1 73 C1 74.32 1 75.64 1 77 C5.62 77 10.24 77 15 77 C15 75.68 15 74.36 15 73 C14.34 72.67 13.68 72.34 13 72 C13.99 72 14.98 72 16 72 C16 73.98 16 75.96 16 78 C10.72 78 5.44 78 0 78 C0 76.02 0 74.04 0 72 C0.99 72 1.98 72 3 72 C3 50.22 3 28.44 3 6 C2.01 6 1.02 6 0 6 C0 4.02 0 2.04 0 0 Z " fill="#1F2222" transform="translate(141,29)"/>
<path d="M0 0 C2.5800461 2.5800461 2.53871251 4.19163365 3.0703125 7.77734375 C3.24433594 8.93041016 3.41835938 10.08347656 3.59765625 11.27148438 C3.77167969 12.48126953 3.94570313 13.69105469 4.125 14.9375 C4.30675781 16.14341797 4.48851562 17.34933594 4.67578125 18.59179688 C6 27.50787124 6 27.50787124 6 31 C2.37 31 -1.26 31 -5 31 C-4.34158795 25.99887014 -3.67381293 20.99907209 -3 16 C-2.90928223 15.32275879 -2.81856445 14.64551758 -2.72509766 13.94775391 C-2.46647183 12.02713915 -2.20209442 10.10730159 -1.9375 8.1875 C-1.78152344 7.04667969 -1.62554687 5.90585937 -1.46484375 4.73046875 C-1 2 -1 2 0 0 Z " fill="#E2E3E3" transform="translate(288,48)"/>
<path d="M0 0 C3.3 0 6.6 0 10 0 C10 1.98 10 3.96 10 6 C9.01 6 8.02 6 7 6 C7 29.76 7 53.52 7 78 C4.69 78 2.38 78 0 78 C0 77.67 0 77.34 0 77 C1.98 77 3.96 77 6 77 C5.67 53.9 5.34 30.8 5 7 C4.67 20.2 4.34 33.4 4 47 C3.34 46.67 2.68 46.34 2 46 C2.33 32.8 2.66 19.6 3 6 C2.01 6 1.02 6 0 6 C0 4.02 0 2.04 0 0 Z " fill="#414242" transform="translate(130,29)"/>
<path d="M0 0 C2.12472576 -0.05386629 4.24983652 -0.09273071 6.375 -0.125 C7.55835938 -0.14820313 8.74171875 -0.17140625 9.9609375 -0.1953125 C13 0 13 0 15 2 C15.3125 5.5 15.3125 5.5 15 9 C11.5647952 11.29013653 10.014669 11.17842973 6 11 C6 7.7 6 4.4 6 1 C5.34 1 4.68 1 4 1 C4 4.3 4 7.6 4 11 C1.36 11 -1.28 11 -4 11 C-4 9.68 -4 8.36 -4 7 C-3.34 7 -2.68 7 -2 7 C-2 6.34 -2 5.68 -2 5 C-1.34 5 -0.68 5 0 5 C0 3.35 0 1.7 0 0 Z " fill="#F6AFAE" transform="translate(389,39)"/>
<path d="M0 0 C1.60875 -0.061875 3.2175 -0.12375 4.875 -0.1875 C5.77992188 -0.22230469 6.68484375 -0.25710937 7.6171875 -0.29296875 C8.79667969 -0.14794922 8.79667969 -0.14794922 10 0 C10.66 0.99 11.32 1.98 12 3 C12.66 2.01 13.32 1.02 14 0 C15.32 0.33 16.64 0.66 18 1 C18 5 18 5 16.5 6.75 C16.005 7.1625 15.51 7.575 15 8 C15.99 8.33 16.98 8.66 18 9 C12.13074528 10.56513459 6.04927663 10 0 10 C0 6.7 0 3.4 0 0 Z " fill="#F3787E" transform="translate(336,115)"/>
<path d="M0 0 C0.33 0 0.66 0 1 0 C1 21.78 1 43.56 1 66 C1.99 66 2.98 66 4 66 C4 67.98 4 69.96 4 72 C-0.62 72 -5.24 72 -10 72 C-10 70.02 -10 68.04 -10 66 C-9.01 66 -8.02 66 -7 66 C-6.67 65.01 -6.34 64.02 -6 63 C-5.34 64.32 -4.68 65.64 -4 67 C-2.02 66.505 -2.02 66.505 0 66 C0 44.22 0 22.44 0 0 Z " fill="#323433" transform="translate(101,35)"/>
<path d="M0 0 C0.33 0 0.66 0 1 0 C1.33 16.5 1.66 33 2 50 C2.66 50.33 3.32 50.66 4 51 C4 52.32 4 53.64 4 55 C1.36 55 -1.28 55 -4 55 C-4 53.35 -4 51.7 -4 50 C-3.01 50 -2.02 50 -1 50 C-1.00222061 49.38834488 -1.00444122 48.77668976 -1.00672913 48.14649963 C-1.02878122 41.80429669 -1.04390627 35.46210456 -1.05493164 29.11987305 C-1.05997341 26.75007688 -1.06680665 24.38028385 -1.07543945 22.01049805 C-1.0875119 18.61245961 -1.09322971 15.21446215 -1.09765625 11.81640625 C-1.10281754 10.74975235 -1.10797882 9.68309845 -1.11329651 8.5841217 C-1.11337204 7.60318039 -1.11344757 6.62223907 -1.11352539 5.61157227 C-1.115746 4.74331314 -1.11796661 3.87505402 -1.12025452 2.98048401 C-1 1 -1 1 0 0 Z " fill="#050807" transform="translate(314,51)"/>
<path d="M0 0 C0 0.66 0 1.32 0 2 C0.66 2 1.32 2 2 2 C2 1.34 2 0.68 2 0 C2.99 0 3.98 0 5 0 C5.33 4.29 5.66 8.58 6 13 C-3.2173913 14.39130435 -3.2173913 14.39130435 -6 13 C-6.02712066 11.56260487 -6.04645067 10.12506137 -6.0625 8.6875 C-6.07410156 7.88699219 -6.08570313 7.08648437 -6.09765625 6.26171875 C-6 4 -6 4 -5 1 C-2 0 -2 0 0 0 Z " fill="#F8D0CB" transform="translate(282,112)"/>
<path d="M0 0 C0.66 0 1.32 0 2 0 C2.10469338 5.75813575 1.74016701 11.29014022 1 17 C1.99 17.66 2.98 18.32 4 19 C3.67 19.99 3.34 20.98 3 22 C1.68 22 0.36 22 -1 22 C-0.98839844 22.64066406 -0.97679687 23.28132813 -0.96484375 23.94140625 C-0.91116881 29.08653222 -1.11830422 33.93024924 -2 39 C-2.33 39 -2.66 39 -3 39 C-3.33 37.35 -3.66 35.7 -4 34 C-4.99 34.495 -4.99 34.495 -6 35 C-5.71505863 32.33246372 -5.42222725 29.66617278 -5.125 27 C-5.04636719 26.25621094 -4.96773438 25.51242188 -4.88671875 24.74609375 C-4.20781255 18.74038502 -3.22304374 12.92171561 -0.875 7.3125 C0.1016322 4.73140063 0.15638568 2.73674945 0 0 Z " fill="#060908" transform="translate(283,62)"/>
<path d="M0 0 C1.66666667 0.33333333 3.33333333 0.66666667 5 1 C5.33 0.67 5.66 0.34 6 0 C9 -0.125 9 -0.125 12 0 C13 1 13 1 13.09765625 2.84765625 C13.04882812 5.92382812 13.04882812 5.92382812 13 9 C9.85069107 10.04976964 7.61185544 10.10131595 4.3125 10.0625 C3.31863281 10.05347656 2.32476562 10.04445313 1.30078125 10.03515625 C0.16189453 10.01775391 0.16189453 10.01775391 -1 10 C-1.02689216 8.52093108 -1.04634621 7.04172517 -1.0625 5.5625 C-1.07410156 4.73878906 -1.08570313 3.91507812 -1.09765625 3.06640625 C-1 1 -1 1 0 0 Z " fill="#F3757C" transform="translate(309,115)"/>
<path d="M0 0 C1.08152344 0.01417969 2.16304687 0.02835937 3.27734375 0.04296875 C4.90349609 0.05263672 4.90349609 0.05263672 6.5625 0.0625 C9.21484375 0.23046875 9.21484375 0.23046875 10.21484375 1.23046875 C10.35599536 3.90105726 10.25731482 6.55479113 10.21484375 9.23046875 C9.55484375 9.23046875 8.89484375 9.23046875 8.21484375 9.23046875 C8.21484375 6.92046875 8.21484375 4.61046875 8.21484375 2.23046875 C7.55484375 2.23046875 6.89484375 2.23046875 6.21484375 2.23046875 C6.54484375 4.87046875 6.87484375 7.51046875 7.21484375 10.23046875 C5.5906563 10.31137846 3.9653263 10.3696187 2.33984375 10.41796875 C0.98246094 10.47017578 0.98246094 10.47017578 -0.40234375 10.5234375 C-1.58183594 10.37841797 -1.58183594 10.37841797 -2.78515625 10.23046875 C-4.9343141 7.00673198 -5.16802428 5.96343201 -4.78515625 2.23046875 C-2.78515625 0.23046875 -2.78515625 0.23046875 0 0 Z " fill="#F16069" transform="translate(232.78515625,114.76953125)"/>
<path d="M0 0 C0.33 0 0.66 0 1 0 C1 8.91 1 17.82 1 27 C2.65 27 4.3 27 6 27 C6 24.69 6 22.38 6 20 C6.99 20 7.98 20 9 20 C9 26.93 9 33.86 9 41 C8.01 41 7.02 41 6 41 C6 38.36 6 35.72 6 33 C4.35 33 2.7 33 1 33 C1.66 31.68 2.32 30.36 3 29 C2.01 28.67 1.02 28.34 0 28 C0 18.76 0 9.52 0 0 Z " fill="#3D3E3D" transform="translate(153,35)"/>
<path d="M0 0 C0.99 0 1.98 0 3 0 C3 3.63 3 7.26 3 11 C3.66 11 4.32 11 5 11 C5 8.36 5 5.72 5 3 C6.99954746 2.95745644 9.00041636 2.95919217 11 3 C12 4 12 4 12.09765625 6.06640625 C12.06510417 8.37760417 12.03255208 10.68880208 12 13 C8.04 13 4.08 13 0 13 C0 8.71 0 4.42 0 0 Z " fill="#F05B63" transform="translate(207,112)"/>
<path d="M0 0 C0.99 0 1.98 0 3 0 C3.33 2.97 3.66 5.94 4 9 C4.66 7.02 5.32 5.04 6 3 C7.65 3.33 9.3 3.66 11 4 C11.33 6.97 11.66 9.94 12 13 C8.04 13 4.08 13 0 13 C0 8.71 0 4.42 0 0 Z " fill="#F26D75" transform="translate(364,112)"/>
<path d="M0 0 C2.97 0 5.94 0 9 0 C9 1.98 9 3.96 9 6 C8.01 6 7.02 6 6 6 C4.71225554 9.86323338 4.76617207 13.57490537 4.68359375 17.60546875 C4.66281265 18.44467361 4.64203156 19.28387848 4.62062073 20.14851379 C4.55525982 22.82809294 4.49630286 25.50776969 4.4375 28.1875 C4.39430198 30.00456737 4.35068727 31.82162488 4.30664062 33.63867188 C4.1995922 38.09234799 4.09828681 42.54612226 4 47 C3.67 47 3.34 47 3 47 C3 33.47 3 19.94 3 6 C2.01 6 1.02 6 0 6 C0 4.02 0 2.04 0 0 Z " fill="#191B1A" transform="translate(334,29)"/>
<path d="M0 0 C5.94 0 11.88 0 18 0 C17.67 1.65 17.34 3.3 17 5 C14.03 4.67 11.06 4.34 8 4 C8.33 4.66 8.66 5.32 9 6 C7.02 6.66 5.04 7.32 3 8 C3 7.01 3 6.02 3 5 C2.01 5 1.02 5 0 5 C0 3.35 0 1.7 0 0 Z " fill="#070A09" transform="translate(240,30)"/>
<path d="M0 0 C0 1.65 0 3.3 0 5 C0.99 5.33 1.98 5.66 3 6 C3.33 7.32 3.66 8.64 4 10 C0.37 10 -3.26 10 -7 10 C-8.4783226 7.04335481 -8.06032783 4.25770263 -8 1 C-4.93251126 -0.86240388 -3.40254489 -1.2151946 0 0 Z " fill="#F8E6E1" transform="translate(253,115)"/>
<path d="M0 0 C3.5622231 -0.11654436 7.12395342 -0.1873639 10.6875 -0.25 C12.19860352 -0.30027344 12.19860352 -0.30027344 13.74023438 -0.3515625 C21.28221903 -0.45112665 21.28221903 -0.45112665 25.20703125 2.015625 C25.79871094 2.67046875 26.39039063 3.3253125 27 4 C26.67 5.32 26.34 6.64 26 8 C24.68 8.33 23.36 8.66 22 9 C21.71125 8.38125 21.4225 7.7625 21.125 7.125 C20.06279958 4.86674235 20.06279958 4.86674235 18 3 C18.33 2.34 18.66 1.68 19 1 C13.06 1 7.12 1 1 1 C1 2.65 1 4.3 1 6 C0.67 6 0.34 6 0 6 C0 4.02 0 2.04 0 0 Z " fill="#171A19" transform="translate(239,29)"/>
<path d="M0 0 C0.33 0.66 0.66 1.32 1 2 C2.65 2 4.3 2 6 2 C6.33 3.65 6.66 5.3 7 7 C6.34 7 5.68 7 5 7 C5 7.66 5 8.32 5 9 C3.625 10.625 3.625 10.625 2 12 C1.34 12 0.68 12 0 12 C0 11.34 0 10.68 0 10 C-0.66 10 -1.32 10 -2 10 C-1.85950482 8.52031676 -1.71245174 7.04125484 -1.5625 5.5625 C-1.48128906 4.73878906 -1.40007812 3.91507813 -1.31640625 3.06640625 C-1 1 -1 1 0 0 Z " fill="#EE1B23" transform="translate(382,37)"/>
<path d="M0 0 C1.98 0 3.96 0 6 0 C5.01 0.495 5.01 0.495 4 1 C4 4.3 4 7.6 4 11 C1.36 11 -1.28 11 -4 11 C-4 9.68 -4 8.36 -4 7 C-3.34 7 -2.68 7 -2 7 C-2 6.34 -2 5.68 -2 5 C-1.34 5 -0.68 5 0 5 C0 3.35 0 1.7 0 0 Z " fill="#F7BDBD" transform="translate(389,39)"/>
<path d="M0 0 C3.80979086 0.9357381 5.14222468 1.8738586 7.5625 4.875 C7.2325 5.865 6.9025 6.855 6.5625 7.875 C2.48031703 8.11512841 -0.65281279 7.42328113 -4.4375 5.875 C-4.7675 5.215 -5.0975 4.555 -5.4375 3.875 C-5.1075 3.545 -4.7775 3.215 -4.4375 2.875 C-5.0975 2.545 -5.7575 2.215 -6.4375 1.875 C-3.4375 -0.125 -3.4375 -0.125 0 0 Z " fill="#141716" transform="translate(185.4375,27.125)"/>
<path d="M0 0 C0.99 0 1.98 0 3 0 C3 4.29 3 8.58 3 13 C0.69 13 -1.62 13 -4 13 C-4 10.03 -4 7.06 -4 4 C-3.34 4 -2.68 4 -2 4 C-2 6.31 -2 8.62 -2 11 C-1.34 11 -0.68 11 0 11 C0 7.37 0 3.74 0 0 Z " fill="#F1575F" transform="translate(360,112)"/>
<path d="M0 0 C0.99 0 1.98 0 3 0 C3 3.96 3 7.92 3 12 C1.02 12 -0.96 12 -3 12 C-4 11 -4 11 -4.0625 7.9375 C-4.041875 6.968125 -4.02125 5.99875 -4 5 C-2.68 4.34 -1.36 3.68 0 3 C0 2.01 0 1.02 0 0 Z " fill="#EF5057" transform="translate(224,112)"/>
<path d="M0 0 C0.99 0.66 1.98 1.32 3 2 C1.2984375 2.433125 1.2984375 2.433125 -0.4375 2.875 C-1.613125 3.24625 -2.78875 3.6175 -4 4 C-4.33 4.66 -4.66 5.32 -5 6 C-3.02 6 -1.04 6 1 6 C-2.35327639 8.23551759 -2.90743657 8.17283528 -6.6875 7.625 C-7.89986328 7.45871094 -7.89986328 7.45871094 -9.13671875 7.2890625 C-10.05904297 7.14597656 -10.05904297 7.14597656 -11 7 C-11.33 5.68 -11.66 4.36 -12 3 C-7.90578839 0.02239156 -5.02539212 -0.46531409 0 0 Z " fill="#EE1B23" transform="translate(395,31)"/>
<path d="M0 0 C0.33 0 0.66 0 1 0 C1 5.94 1 11.88 1 18 C0.01 18 -0.98 18 -2 18 C-2.33820166 16.4176994 -2.67035939 14.83410625 -3 13.25 C-3.185625 12.36828125 -3.37125 11.4865625 -3.5625 10.578125 C-4 8 -4 8 -4 4 C-3.34 3.67 -2.68 3.34 -2 3 C-1.34 3.33 -0.68 3.66 0 4 C0 2.68 0 1.36 0 0 Z " fill="#1C1D1D" transform="translate(168,30)"/>
<path d="M0 0 C0.99 0 1.98 0 3 0 C3 0.99 3 1.98 3 3 C4.32 3.33 5.64 3.66 7 4 C7 6.31 7 8.62 7 11 C6.01 11 5.02 11 4 11 C4.33 9.02 4.66 7.04 5 5 C4.34 5 3.68 5 3 5 C3 7.31 3 9.62 3 12 C2.01 12 1.02 12 0 12 C0 8.04 0 4.08 0 0 Z " fill="#EF4F59" transform="translate(293,112)"/>
<path d="M0 0 C0.99 0.495 0.99 0.495 2 1 C2.6875 3.5 2.6875 3.5 3 6 C2.67 6.33 2.34 6.66 2 7 C1.83958807 10.10085221 1.74036598 13.18187579 1.68359375 16.28515625 C1.66281265 17.21597519 1.64203156 18.14679413 1.62062073 19.1058197 C1.55502069 22.09130182 1.49619198 25.07687484 1.4375 28.0625 C1.3943247 30.08138976 1.35071075 32.1002702 1.30664062 34.11914062 C1.19932871 39.07933297 1.09809112 44.03961709 1 49 C0.67 49 0.34 49 0 49 C0 32.83 0 16.66 0 0 Z " fill="#D0D2D1" transform="translate(316,52)"/>
<path d="M0 0 C0.33 0.66 0.66 1.32 1 2 C1.99 2 2.98 2 4 2 C4 3.98 4 5.96 4 8 C1.03 8 -1.94 8 -5 8 C-5 6.02 -5 4.04 -5 2 C-3.35 2 -1.7 2 0 2 C0 1.34 0 0.68 0 0 Z " fill="#1D201F" transform="translate(111,99)"/>
<path d="M0 0 C1.65 1.32 3.3 2.64 5 4 C4.67 4.99 4.34 5.98 4 7 C0.4375 8.1875 0.4375 8.1875 -3 9 C-3.33 7.68 -3.66 6.36 -4 5 C-5.98 5 -7.96 5 -10 5 C-10 4.67 -10 4.34 -10 4 C-8.906875 3.71125 -7.81375 3.4225 -6.6875 3.125 C-2.95986155 2.18106796 -2.95986155 2.18106796 0 0 Z " fill="#181B1A" transform="translate(230,30)"/>
<path d="M0 0 C1.67542976 0.28604898 3.34385343 0.61781233 5 1 C5 3.64 5 6.28 5 9 C3.02 9 1.04 9 -1 9 C-1.09765625 2.84765625 -1.09765625 2.84765625 -1 1 C-0.67 0.67 -0.34 0.34 0 0 Z " fill="#E9363F" transform="translate(309,115)"/>
<path d="M0 0 C1.67542976 0.28604898 3.34385343 0.61781233 5 1 C5 3.64 5 6.28 5 9 C3.02 9 1.04 9 -1 9 C-1.09765625 2.84765625 -1.09765625 2.84765625 -1 1 C-0.67 0.67 -0.34 0.34 0 0 Z " fill="#EE2D3B" transform="translate(265,115)"/>
<path d="M0 0 C2.37109375 2.03515625 2.37109375 2.03515625 4 4 C1.92446352 4.5534764 0.15634036 5 -2 5 C-2 4.34 -2 3.68 -2 3 C-9.74338636 2.61041465 -9.74338636 2.61041465 -17 5 C-12.7380032 -1.08856685 -7.09202939 -1.4145038 0 0 Z " fill="#EB2C34" transform="translate(400,29)"/>
<path d="M0 0 C0.33 0 0.66 0 1 0 C1 1.98 1 3.96 1 6 C1.66 6 2.32 6 3 6 C3 7.65 3 9.3 3 11 C0.69 11 -1.62 11 -4 11 C-4 9.35 -4 7.7 -4 6 C-3.34 6 -2.68 6 -2 6 C-1.855625 5.195625 -1.71125 4.39125 -1.5625 3.5625 C-1 1 -1 1 0 0 Z " fill="#111312" transform="translate(279,95)"/>
<path d="M0 0 C0.33 0 0.66 0 1 0 C1 1.98 1 3.96 1 6 C1.66 6 2.32 6 3 6 C3.09038099 11.15171623 2.84681133 15.91913204 2 21 C1.67 21 1.34 21 1 21 C0.67 19.35 0.34 17.7 0 16 C-0.66 16.33 -1.32 16.66 -2 17 C-1.34 11.39 -0.68 5.78 0 0 Z " fill="#363737" transform="translate(279,80)"/>
<path d="M0 0 C0.33 0 0.66 0 1 0 C1 1.98 1 3.96 1 6 C1.66 6 2.32 6 3 6 C2.67 9.3 2.34 12.6 2 16 C1.67 15.34 1.34 14.68 1 14 C0.34 14 -0.32 14 -1 14 C-0.773125 14.9075 -0.54625 15.815 -0.3125 16.75 C0 20 0 20 -1.48046875 22.203125 C-1.98191406 22.79609375 -2.48335938 23.3890625 -3 24 C-2 16 -1 8 0 0 Z " fill="#3A3C3B" transform="translate(284,48)"/>
<path d="M0 0 C0.99 0 1.98 0 3 0 C3 3.96 3 7.92 3 12 C2.34 12 1.68 12 1 12 C1 9.69 1 7.38 1 5 C0.34 5 -0.32 5 -1 5 C-1 7.31 -1 9.62 -1 12 C-1.66 11.67 -2.32 11.34 -3 11 C-3 8.69 -3 6.38 -3 4 C-1.68 3.67 -0.36 3.34 1 3 C0.67 2.01 0.34 1.02 0 0 Z " fill="#EC3744" transform="translate(327,112)"/>
<path d="M0 0 C1.32 0 2.64 0 4 0 C5.26264601 4.29299643 4.62950412 6.87831311 3 11 C1.68 11 0.36 11 -1 11 C-1.125 3.375 -1.125 3.375 0 0 Z " fill="#EF5D69" transform="translate(277,113)"/>
<path d="M0 0 C1.65 0 3.3 0 5 0 C5.33 1.32 5.66 2.64 6 4 C5.01 4 4.02 4 3 4 C3.33 5.98 3.66 7.96 4 10 C2.68 10 1.36 10 0 10 C0 6.7 0 3.4 0 0 Z " fill="#F16B73" transform="translate(301,115)"/>
<path d="M0 0 C2.125 0.375 2.125 0.375 4 1 C3.67 1.33 3.34 1.66 3 2 C2.75266863 6.14276875 2.75266863 6.14276875 4 10 C2.35 9.67 0.7 9.34 -1 9 C-1.625 5.625 -1.625 5.625 -2 2 C-1.34 1.34 -0.68 0.68 0 0 Z " fill="#F1898D" transform="translate(230,115)"/>
<path d="M0 0 C1.32 0 2.64 0 4 0 C4.33 1.32 4.66 2.64 5 4 C4.01 4.33 3.02 4.66 2 5 C2 5.99 2 6.98 2 8 C2.66 8.33 3.32 8.66 4 9 C2.35 8.67 0.7 8.34 -1 8 C-1.04241723 5.66705225 -1.04092937 3.33297433 -1 1 C-0.67 0.67 -0.34 0.34 0 0 Z " fill="#F0606A" transform="translate(246,115)"/>
<path d="M0 0 C2.0625 0.4375 2.0625 0.4375 4 1 C4 5 4 5 2.5 6.75 C2.005 7.1625 1.51 7.575 1 8 C1.99 8.33 2.98 8.66 4 9 C2.0625 9.5625 2.0625 9.5625 0 10 C-1 9 -1 9 -1.1328125 7.1875 C-1.13023437 6.465625 -1.12765625 5.74375 -1.125 5 C-1.12757813 4.278125 -1.13015625 3.55625 -1.1328125 2.8125 C-1 1 -1 1 0 0 Z " fill="#F27B81" transform="translate(350,115)"/>
<path d="M0 0 C0.66 0 1.32 0 2 0 C2.08333357 4.8333472 1.95261487 9.23692563 1 14 C0.34 14 -0.32 14 -1 14 C-1.66 14.66 -2.32 15.32 -3 16 C-2.57566971 12.95896628 -2.11716902 10.28258411 -0.9375 7.4375 C0.0817738 4.78738813 0.16078185 2.81368245 0 0 Z " fill="#1B1D1C" transform="translate(283,62)"/>
<path d="M0 0 C0.33 0 0.66 0 1 0 C1 4.95 1 9.9 1 15 C1.66 15 2.32 15 3 15 C2.67 18.3 2.34 21.6 2 25 C1.67 25 1.34 25 1 25 C1 23.35 1 21.7 1 20 C-0.32 19.67 -1.64 19.34 -3 19 C-2.01 19 -1.02 19 0 19 C0 12.73 0 6.46 0 0 Z " fill="#CCCCCC" transform="translate(169,29)"/>
<path d="M0 0 C0.66 0.99 1.32 1.98 2 3 C1.34 3.99 0.68 4.98 0 6 C-1.125 2.25 -1.125 2.25 0 0 Z M-5 1 C-4.67 1.66 -4.34 2.32 -4 3 C-3.01 3.33 -2.02 3.66 -1 4 C-1.375 5.9375 -1.375 5.9375 -2 8 C-4.70879335 9.35439668 -7.00933268 9.06501451 -10 9 C-10 8.67 -10 8.34 -10 8 C-8.35 8 -6.7 8 -5 8 C-5 5.69 -5 3.38 -5 1 Z " fill="#FACECF" transform="translate(275,116)"/>
<path d="M0 0 C0.99 0 1.98 0 3 0 C3 3.96 3 7.92 3 12 C2.34 12 1.68 12 1 12 C0.67 8.04 0.34 4.08 0 0 Z " fill="#F15157" transform="translate(364,112)"/>
<path d="M0 0 C0.94875 0.350625 1.8975 0.70125 2.875 1.0625 C3.205 0.4025 3.535 -0.2575 3.875 -0.9375 C4.535 -0.9375 5.195 -0.9375 5.875 -0.9375 C5.875 0.0525 5.875 1.0425 5.875 2.0625 C5.215 2.0625 4.555 2.0625 3.875 2.0625 C3.545 3.0525 3.215 4.0425 2.875 5.0625 C1.885 5.0625 0.895 5.0625 -0.125 5.0625 C-0.785 4.0725 -1.445 3.0825 -2.125 2.0625 C-3.115 1.4025 -4.105 0.7425 -5.125 0.0625 C-3.125 -0.9375 -3.125 -0.9375 0 0 Z " fill="#FCF5F4" transform="translate(271.125,113.9375)"/>
<path d="M0 0 C0.33 0 0.66 0 1 0 C1 4.29 1 8.58 1 13 C0.34 13 -0.32 13 -1 13 C-1.33 9.37 -1.66 5.74 -2 2 C-1.34 2 -0.68 2 0 2 C0 1.34 0 0.68 0 0 Z " fill="#111312" transform="translate(167,35)"/>
<path d="M0 0 C0.99 0 1.98 0 3 0 C3.66 1.65 4.32 3.3 5 5 C3.68 4.67 2.36 4.34 1 4 C0.01 5.32 -0.98 6.64 -2 8 C-2.66 6.02 -3.32 4.04 -4 2 C-2.68 2.33 -1.36 2.66 0 3 C0 2.01 0 1.02 0 0 Z " fill="#191B1A" transform="translate(366,32)"/>
<path d="M0 0 C0.66 0 1.32 0 2 0 C2 3.96 2 7.92 2 12 C1.34 12 0.68 12 0 12 C-0.19477739 10.37585622 -0.38059458 8.75063577 -0.5625 7.125 C-0.66691406 6.22007813 -0.77132813 5.31515625 -0.87890625 4.3828125 C-1 2 -1 2 0 0 Z " fill="#EC313F" transform="translate(284,112)"/>
<path d="M0 0 C0.33 0.66 0.66 1.32 1 2 C1.99 2 2.98 2 4 2 C4 1.34 4 0.68 4 0 C4.99 0 5.98 0 7 0 C6.39816251 2.02045442 5.72693904 4.02111039 5 6 C4.01 6.495 4.01 6.495 3 7 C3 5.68 3 4.36 3 3 C1.02 3 -0.96 3 -3 3 C-2.01 2.01 -1.02 1.02 0 0 Z " fill="#E9303C" transform="translate(402,48)"/>
<path d="M0 0 C1.98 0.495 1.98 0.495 4 1 C3.67 3.31 3.34 5.62 3 8 C2.34 8 1.68 8 1 8 C-0.42944945 5.64561267 -1.08661261 4.51967567 -0.625 1.75 C-0.41875 1.1725 -0.2125 0.595 0 0 Z " fill="#F38A8E" transform="translate(265,115)"/>
<path d="M0 0 C1.32 0.66 2.64 1.32 4 2 C3.44271087 5.34373475 2.64826111 8.03312999 1 11 C1 9.68 1 8.36 1 7 C0.34 7 -0.32 7 -1 7 C-1.33 7.99 -1.66 8.98 -2 10 C-2 8.68 -2 7.36 -2 6 C-1.01 6 -0.02 6 1 6 C0.34 4.35 -0.32 2.7 -1 1 C-0.67 0.67 -0.34 0.34 0 0 Z " fill="#F9E0DC" transform="translate(306,113)"/>
<path d="M0 0 C0.66 0 1.32 0 2 0 C2 1.65 2 3.3 2 5 C1.01 5 0.02 5 -1 5 C-1 5.66 -1 6.32 -1 7 C-1.99 7 -2.98 7 -4 7 C-3.67 5.68 -3.34 4.36 -3 3 C-2.34 3 -1.68 3 -1 3 C-0.67 2.01 -0.34 1.02 0 0 Z " fill="#EE1B24" transform="translate(407,43)"/>
<path d="M0 0 C1.98 0.495 1.98 0.495 4 1 C3.835 1.598125 3.67 2.19625 3.5 2.8125 C2.8885876 5.11344336 2.8885876 5.11344336 3 8 C2.34 8 1.68 8 1 8 C-0.42944945 5.64561267 -1.08661261 4.51967567 -0.625 1.75 C-0.41875 1.1725 -0.2125 0.595 0 0 Z " fill="#F3878B" transform="translate(309,115)"/>
<path d="M0 0 C1.98 0.66 3.96 1.32 6 2 C5.67 5.3 5.34 8.6 5 12 C4.34 11.67 3.68 11.34 3 11 C3 8.69 3 6.38 3 4 C2.01 3.67 1.02 3.34 0 3 C0 2.01 0 1.02 0 0 Z " fill="#F9F0EA" transform="translate(296,112)"/>
<path d="M0 0 C0 1.32 0 2.64 0 4 C-2.64 4 -5.28 4 -8 4 C-4.5 0 -4.5 0 0 0 Z " fill="#040605" transform="translate(115,102)"/>
<path d="M0 0 C1.32 0.99 2.64 1.98 4 3 C3.67 3.99 3.34 4.98 3 6 C1.35 6 -0.3 6 -2 6 C-2 3 -2 3 0 0 Z " fill="#1A1D1C" transform="translate(189,29)"/>
<path d="M0 0 C2.5 1.75 2.5 1.75 5 4 C5 5.32 5 6.64 5 8 C4.34 8 3.68 8 3 8 C3 7.01 3 6.02 3 5 C1.68 4.67 0.36 4.34 -1 4 C-0.67 2.68 -0.34 1.36 0 0 Z " fill="#EC3642" transform="translate(253,116)"/>
<path d="M0 0 C0.33 0.99 0.66 1.98 1 3 C1.99 3.33 2.98 3.66 4 4 C-1.29230769 7.07692308 -1.29230769 7.07692308 -4.875 6.6875 C-5.57625 6.460625 -6.2775 6.23375 -7 6 C-7 5.67 -7 5.34 -7 5 C-5.35 5 -3.7 5 -2 5 C-1.34 3.35 -0.68 1.7 0 0 Z " fill="#212322" transform="translate(364,96)"/>
<path d="M0 0 C1.65 0 3.3 0 5 0 C5 1.32 5 2.64 5 4 C2.69 4 0.38 4 -2 4 C-1.33333333 2.66666667 -0.66666667 1.33333333 0 0 Z " fill="#030504" transform="translate(277,102)"/>
<path d="M0 0 C2.31 0.33 4.62 0.66 7 1 C5.29171079 3.10633718 4.47851584 3.93801608 1.73828125 4.29296875 C0.93777344 4.25816406 0.13726562 4.22335938 -0.6875 4.1875 C-1.49574219 4.16042969 -2.30398438 4.13335937 -3.13671875 4.10546875 C-3.75160156 4.07066406 -4.36648438 4.03585938 -5 4 C-5 3.67 -5 3.34 -5 3 C-3.02 2.67 -1.04 2.34 1 2 C0.67 1.34 0.34 0.68 0 0 Z " fill="#EE4F57" transform="translate(395,56)"/>
<path d="M0 0 C2.9375 0.375 2.9375 0.375 6 1 C6.33 1.66 6.66 2.32 7 3 C3.37 3 -0.26 3 -4 3 C-2.68 2.67 -1.36 2.34 0 2 C0 1.34 0 0.68 0 0 Z " fill="#FAA3AB" transform="translate(250,122)"/>
<path d="M0 0 C0.66 0.33 1.32 0.66 2 1 C2 2.65 2 4.3 2 6 C1.01 6.495 1.01 6.495 0 7 C-0.99 6.67 -1.98 6.34 -3 6 C-2.67 5.01 -2.34 4.02 -2 3 C-1.34 3 -0.68 3 0 3 C0 2.01 0 1.02 0 0 Z " fill="#F7D2CF" transform="translate(354,117)"/>
<path d="M0 0 C0.99 0.33 1.98 0.66 3 1 C1.6875 3.5 1.6875 3.5 0 6 C-0.99 6 -1.98 6 -3 6 C-2.625 3.5625 -2.625 3.5625 -2 1 C-1.34 0.67 -0.68 0.34 0 0 Z " fill="#040605" transform="translate(186,102)"/>
<path d="M0 0 C0.33 0 0.66 0 1 0 C1 1.98 1 3.96 1 6 C1.66 6 2.32 6 3 6 C3 8.31 3 10.62 3 13 C2.67 13 2.34 13 2 13 C1.67 11.35 1.34 9.7 1 8 C0.01 8.495 0.01 8.495 -1 9 C-0.67 6.03 -0.34 3.06 0 0 Z " fill="#606160" transform="translate(278,88)"/>
<path d="M0 0 C0.66 0 1.32 0 2 0 C2 1.98 2 3.96 2 6 C0.68 6 -0.64 6 -2 6 C-2 4.68 -2 3.36 -2 2 C-1.34 2 -0.68 2 0 2 C0 1.34 0 0.68 0 0 Z " fill="#F06B6D" transform="translate(387,44)"/>
<path d="M0 0 C0 0.33 0 0.66 0 1 C-2.97 1 -5.94 1 -9 1 C-9 0.34 -9 -0.32 -9 -1 C-5.38055101 -2.34053666 -3.42632833 -1.61798838 0 0 Z " fill="#F1202E" transform="translate(397,58)"/>
<path d="M0 0 C2.31 0 4.62 0 7 0 C6.67 1.32 6.34 2.64 6 4 C1.125 2.25 1.125 2.25 0 0 Z " fill="#EA3740" transform="translate(382,54)"/>
<path d="M0 0 C1.32 0.66 2.64 1.32 4 2 C4 2.66 4 3.32 4 4 C2.35 4 0.7 4 -1 4 C-1.33 4.66 -1.66 5.32 -2 6 C-1.125 1.125 -1.125 1.125 0 0 Z " fill="#040605" transform="translate(367,35)"/>
<path d="M0 0 C2.475 0.495 2.475 0.495 5 1 C3.25 5.875 3.25 5.875 1 7 C0.67 4.69 0.34 2.38 0 0 Z " fill="#030605" transform="translate(188,33)"/>
<path d="M0 0 C2 3 2 3 2 6 C2.99 6.33 3.98 6.66 5 7 C3.0625 7.5625 3.0625 7.5625 1 8 C0 7 0 7 -0.0625 3.4375 C-0.041875 2.303125 -0.02125 1.16875 0 0 Z " fill="#EF4453" transform="translate(349,117)"/>
</svg>
