<?xml version="1.0" encoding="UTF-8"?>
<svg version="1.1" xmlns="http://www.w3.org/2000/svg" width="500" height="150">
<path d="M0 0 C165 0 330 0 500 0 C500 49.5 500 99 500 150 C335 150 170 150 0 150 C0 100.5 0 51 0 0 Z " fill="#FEFEFD" transform="translate(0,0)"/>
<path d="M0 0 C0.50358536 0.42501297 1.00717072 0.85002594 1.52601624 1.28791809 C5.82917299 4.74650612 8.66111639 6.74691705 14.37109375 6.69921875 C16.09875977 6.71758789 16.09875977 6.71758789 17.86132812 6.73632812 C19.04146484 6.72021484 20.22160156 6.70410156 21.4375 6.6875 C29.640763 6.65603543 36.34284971 6.89619256 44 10 C44 10.66 44 11.32 44 12 C44.73992187 12.24621094 45.47984375 12.49242187 46.2421875 12.74609375 C52.12927433 15.42280037 56.67724585 21.26614288 59 27.25 C61.96280137 38.12634826 60.02020225 48.13404841 54.5625 57.75 C51.27412701 62.48525711 46.75337079 65.83108614 42 69 C40.68 69 39.36 69 38 69 C38 69.66 38 70.32 38 71 C30.41 71 22.82 71 15 71 C15.0825 73.908125 15.165 76.81625 15.25 79.8125 C15.3317603 89.32664654 14.48723203 97.47506237 7.9375 104.875 C-0.39283681 112.15308374 -9.18755914 114.03189546 -19.9609375 113.48046875 C-27.14002133 112.8179638 -32.51509362 109.8966485 -37.4375 104.6875 C-42.64311196 97.84499589 -43.46716198 91.44352018 -43 83 C-38.98800794 83.84372365 -36.39184574 85.6935449 -33 88 C-31.9275 88.495 -30.855 88.99 -29.75 89.5 C-27 91 -27 91 -26.125 93.0625 C-25.02778644 95.4413133 -25.02778644 95.4413133 -21.3125 96.25 C-15.97020696 97.31266227 -11.76477792 97.88238896 -6.75 95.375 C-3.353946 92.44204427 -1.38050059 89.61003015 -0.71804237 85.06592178 C-0.59239765 82.81674561 -0.56354482 80.58521157 -0.56762695 78.33251953 C-0.5574353 77.48308273 -0.54724365 76.63364594 -0.53674316 75.75846863 C-0.50668454 72.96651553 -0.49735816 70.17490595 -0.48828125 67.3828125 C-0.47142928 65.44081488 -0.45327833 63.49882814 -0.43388367 61.55685425 C-0.38643392 56.45730995 -0.356592 51.35780976 -0.33044434 46.25811768 C-0.30061351 41.04959405 -0.25409181 35.84122226 -0.20898438 30.6328125 C-0.1230084 20.42195451 -0.05563767 10.21106522 0 0 Z " fill="#DE271C" transform="translate(98,27)"/>
<path d="M0 0 C0 21.78 0 43.56 0 66 C-15 66 -15 66 -17 65 C-17 48.17 -17 31.34 -17 14 C-33.7193255 13.18222188 -33.7193255 13.18222188 -40 19 C-41.11617764 21.75659053 -41.14444223 24.44433678 -41.20532227 27.40136719 C-41.22526749 28.2619574 -41.24521271 29.12254761 -41.26576233 30.00921631 C-41.29083107 31.38910736 -41.29083107 31.38910736 -41.31640625 32.796875 C-41.33718735 33.74564514 -41.35796844 34.69441528 -41.37937927 35.67193604 C-41.44467934 38.69788482 -41.50366888 41.7239192 -41.5625 44.75 C-41.6057038 46.80339421 -41.64931869 48.85677982 -41.69335938 50.91015625 C-41.80034073 55.9400168 -41.90166323 60.96996332 -42 66 C-44.24893954 66.10823773 -46.49937575 66.18569645 -48.75 66.25 C-50.00296875 66.29640625 -51.2559375 66.3428125 -52.546875 66.390625 C-56 66 -56 66 -58.41992188 64.56542969 C-60.80303825 60.69617955 -60.57264484 57.16604449 -60.53125 52.703125 C-60.5350769 51.79552429 -60.53890381 50.88792358 -60.54284668 49.95281982 C-60.54556651 48.0329884 -60.53820031 46.11311996 -60.52148438 44.19335938 C-60.50017433 41.27388368 -60.52123165 38.3568967 -60.546875 35.4375 C-60.5442298 33.56770295 -60.53910085 31.69790744 -60.53125 29.828125 C-60.53934692 28.96326477 -60.54744385 28.09840454 -60.55578613 27.20733643 C-60.44817748 20.14624921 -58.52995949 14.95320459 -53.921875 9.57421875 C-38.02947573 -4.23158853 -21.92424122 0 0 0 Z " fill="#DE281B" transform="translate(285,38)"/>
<path d="M0 0 C5.89875 -0.0825 11.7975 -0.165 17.875 -0.25 C20.63593018 -0.30462402 20.63593018 -0.30462402 23.45263672 -0.36035156 C32.00156869 -0.45679252 39.34937404 -0.3738996 47 4 C47 4.66 47 5.32 47 6 C47.556875 6.226875 48.11375 6.45375 48.6875 6.6875 C54.46678507 9.96763477 57.75166932 14.89780916 60 21 C60.5321333 24.21616935 60.56251319 27.35450364 60.53125 30.609375 C60.5350769 31.49860657 60.53890381 32.38783813 60.54284668 33.30401611 C60.54555198 35.16964867 60.5382883 37.03532006 60.52148438 38.90087891 C60.49995183 41.7563876 60.52138443 44.60940971 60.546875 47.46484375 C60.54423347 49.28385971 60.5391121 51.10287412 60.53125 52.921875 C60.53934692 53.77295837 60.54744385 54.62404175 60.55578613 55.50091553 C60.4974852 59.17564378 60.38162945 61.38368494 58.41992188 64.55175781 C55.07460761 66.55381635 52.61771144 66.39324857 48.75 66.25 C47.48671875 66.21390625 46.2234375 66.1778125 44.921875 66.140625 C43.95765625 66.09421875 42.9934375 66.0478125 42 66 C41.97494385 64.68805664 41.9498877 63.37611328 41.92407227 62.02441406 C41.82989329 57.15647633 41.72969806 52.28867779 41.62768555 47.42089844 C41.58437642 45.31416073 41.54269847 43.20738883 41.50268555 41.10058594 C41.44488573 38.07216081 41.38121904 35.04390715 41.31640625 32.015625 C41.29969376 31.07382385 41.28298126 30.13202271 41.26576233 29.16168213 C41.2358445 27.84076569 41.2358445 27.84076569 41.20532227 26.49316406 C41.18200584 25.33400482 41.18200584 25.33400482 41.15821838 24.15142822 C40.99643665 21.95154608 40.74844981 20.07808042 40 18 C37.50965614 16.70339566 37.50965614 16.70339566 35 16 C35 15.34 35 14.68 35 14 C29.06 14 23.12 14 17 14 C17.01047363 15.46864502 17.02094727 16.93729004 17.03173828 18.45043945 C17.0678914 23.89035614 17.09088344 29.33026217 17.10986328 34.77026367 C17.11993155 37.12640162 17.13358706 39.48252704 17.15087891 41.83862305 C17.17509076 45.22187386 17.18647478 48.60495972 17.1953125 51.98828125 C17.20563507 53.04461258 17.21595764 54.10094391 17.22659302 55.18928528 C17.22674408 56.17007553 17.22689514 57.15086578 17.22705078 58.16137695 C17.231492 59.02519485 17.23593323 59.88901276 17.24050903 60.77900696 C17 63 17 63 15 66 C10.05 66 5.1 66 0 66 C0 44.22 0 22.44 0 0 Z " fill="#DF291E" transform="translate(161,38)"/>
<path d="M0 0 C3.16634636 -0.11760715 6.33212074 -0.18771024 9.5 -0.25 C10.386875 -0.28351562 11.27375 -0.31703125 12.1875 -0.3515625 C18.58182101 -0.44559663 22.49419338 0.73253533 28 4 C28 3.34 28 2.68 28 2 C32.58882925 -0.63725819 36.82408814 -0.63900146 42 0 C47.87177014 1.98736836 52.25857049 6.51714098 55 12 C55.2961408 16.13984414 55.27798092 20.2883062 55.3125 24.4375 C55.34150391 25.59572266 55.37050781 26.75394531 55.40039062 27.94726562 C55.40876953 29.05650391 55.41714844 30.16574219 55.42578125 31.30859375 C55.44036377 32.32751709 55.45494629 33.34644043 55.4699707 34.39624023 C55 37 55 37 53.13745117 38.86743164 C51 40 51 40 48.375 39.8125 C46 39 46 39 44 37 C43.71289062 34.80102539 43.71289062 34.80102539 43.65625 32.09765625 C43.62660156 31.12505859 43.59695313 30.15246094 43.56640625 29.15039062 C43.54449219 28.13138672 43.52257812 27.11238281 43.5 26.0625 C43.45662417 24.05317857 43.40490652 22.04401512 43.34375 20.03515625 C43.32505859 19.1419165 43.30636719 18.24867676 43.28710938 17.32836914 C43.14334553 14.72892414 43.14334553 14.72892414 41 12 C36.94554358 11.56867485 35.45029042 11.69980639 32 14 C31.54054229 16.2542294 31.54054229 16.2542294 31.59375 18.8671875 C31.57183594 19.83527344 31.54992187 20.80335937 31.52734375 21.80078125 C31.51832031 22.81527344 31.50929688 23.82976562 31.5 24.875 C31.48209613 26.87256004 31.45133796 28.87005612 31.40625 30.8671875 C31.39916016 31.75519043 31.39207031 32.64319336 31.38476562 33.55810547 C30.93091077 36.43847109 29.90276668 37.8332402 28 40 C22.125 39.125 22.125 39.125 21 38 C20.86676249 36.32881558 20.7966027 34.652506 20.75390625 32.9765625 C20.72103516 31.955625 20.68816406 30.9346875 20.65429688 29.8828125 C20.59332193 27.71885065 20.53600307 25.55478255 20.48242188 23.390625 C20.43118164 21.85535156 20.43118164 21.85535156 20.37890625 20.2890625 C20.3538501 19.34756348 20.32879395 18.40606445 20.30297852 17.43603516 C20.15277892 14.74408943 20.15277892 14.74408943 18 12 C15.79274927 11.63637182 15.79274927 11.63637182 13.375 11.8125 C12.55773437 11.83957031 11.74046875 11.86664063 10.8984375 11.89453125 C10.27195312 11.92933594 9.64546875 11.96414062 9 12 C8.98541748 12.70608398 8.97083496 13.41216797 8.95581055 14.13964844 C8.88126833 17.34364674 8.78462795 20.54661016 8.6875 23.75 C8.65366211 25.41675781 8.65366211 25.41675781 8.61914062 27.1171875 C8.58369141 28.18710938 8.54824219 29.25703125 8.51171875 30.359375 C8.48553467 31.34389648 8.45935059 32.32841797 8.43237305 33.34277344 C7.9353999 36.3970116 7.18242974 37.82300317 5 40 C1.8125 40.25 1.8125 40.25 -1 40 C-2.51392533 36.97214935 -2.162841 33.82934407 -2.16796875 30.5078125 C-2.17296135 29.39428909 -2.17296135 29.39428909 -2.17805481 28.25827026 C-2.18312087 26.68634664 -2.18546323 25.11441225 -2.18530273 23.54248047 C-2.18748508 21.1414202 -2.20563223 18.74082244 -2.22460938 16.33984375 C-2.22754422 14.81250157 -2.22952841 13.28515721 -2.23046875 11.7578125 C-2.24124702 10.68262863 -2.24124702 10.68262863 -2.25224304 9.58572388 C-2.23537648 5.89103539 -2.04194284 3.13903821 0 0 Z " fill="#E5C33D" transform="translate(384,64)"/>
<path d="M0 0 C3.20820394 1.53047106 5.49192476 3.50930172 8 6 C8.99 6.825 9.98 7.65 11 8.5 C14.74848424 13.1918947 13.48835978 20.38386259 13 26 C12.505 27.485 12.505 27.485 12 29 C11.34 29 10.68 29 10 29 C9.91492188 29.75667969 9.82984375 30.51335937 9.7421875 31.29296875 C8.60694401 35.43362001 6.21223577 36.63862224 2.6796875 38.828125 C-1.88162816 40.82286946 -6.13714247 40.7780572 -11 40 C-13.8125 38.8125 -13.8125 38.8125 -16 37 C-17.03125 36.278125 -18.0625 35.55625 -19.125 34.8125 C-23.13656045 31.35924951 -24.63408928 27.09572085 -25.24609375 21.91796875 C-25.48460605 14.58020785 -23.36587443 10.01918332 -18.73046875 4.61328125 C-13.08713341 -0.64788691 -7.43763722 -1.1880901 0 0 Z " fill="#E7CA48" transform="translate(366,64)"/>
<path d="M0 0 C4.01199206 0.84372365 6.60815426 2.6935449 10 5 C11.60875 5.7425 11.60875 5.7425 13.25 6.5 C16 8 16 8 16.875 10.0625 C17.97221356 12.4413133 17.97221356 12.4413133 21.6875 13.25 C27.02979304 14.31266227 31.23522208 14.88238896 36.25 12.375 C39.23048619 9.80094374 40.52006935 7.61760826 42 4 C42.33 4 42.66 4 43 4 C43 5.98 43 7.96 43 10 C43.66 10 44.32 10 45 10 C45.33 9.34 45.66 8.68 46 8 C48 9.8125 48 9.8125 50 12 C50 12.99 50 13.98 50 15 C50.2475 14.360625 50.495 13.72125 50.75 13.0625 C52 11 52 11 54.125 10.25 C55.053125 10.12625 55.053125 10.12625 56 10 C55.86260035 15.49598606 53.56110851 18.31450643 49.96875 22.171875 C47.15242894 24.78703027 44.46806896 26.33018902 41 28 C40.27425781 28.35449219 39.54851562 28.70898438 38.80078125 29.07421875 C31.15936178 31.6000436 20.63939993 31.33289265 13.3125 27.9375 C7.05482123 24.14883734 2.79370495 19.15458083 0.45703125 12.19921875 C-0.38414495 8.15150765 -0.22735592 4.10924778 0 0 Z " fill="#DE291D" transform="translate(55,110)"/>
<path d="M0 0 C3.06733317 1.46063484 4.7431252 2.38955031 6.625 5.25 C6.65201292 8.07014836 6.18372891 10.45635544 5.625 13.25 C2.25 13.375 2.25 13.375 -1.375 13.25 C-2.035 12.59 -2.695 11.93 -3.375 11.25 C-5.70738067 10.85498771 -5.70738067 10.85498771 -8.3125 10.875 C-9.18777344 10.84664062 -10.06304687 10.81828125 -10.96484375 10.7890625 C-13.49329347 11.04026901 -13.49329347 11.04026901 -15.1484375 13.0078125 C-16.41302347 15.31950786 -16.84530254 16.89363049 -17.0625 19.5 C-17.165625 20.7375 -17.26875 21.975 -17.375 23.25 C-16.715 23.25 -16.055 23.25 -15.375 23.25 C-14.83875 23.91 -14.3025 24.57 -13.75 25.25 C-11.14753982 27.44154542 -10.50381737 27.56605403 -7.25 27.625 C-3.36459408 27.66339891 -3.36459408 27.66339891 -1.375 25.25 C2.25 25.125 2.25 25.125 5.625 25.25 C6.12 29.21 6.12 29.21 6.625 33.25 C5.33403219 34.06360995 4.04220125 34.87585046 2.75 35.6875 C2.03070313 36.13996094 1.31140625 36.59242187 0.5703125 37.05859375 C-3.99490905 39.85456277 -8.09841859 39.93657273 -13.375 39.25 C-19.28154803 36.82911892 -23.14199448 32.89076987 -26.453125 27.4921875 C-28.60042744 22.26951122 -28.4399383 15.10218257 -26.4765625 9.84375 C-25.375 7.9375 -25.375 7.9375 -23.375 5.25 C-22.715 5.25 -22.055 5.25 -21.375 5.25 C-21.375 4.59 -21.375 3.93 -21.375 3.25 C-14.0663129 -1.08107384 -8.30373279 -1.84527395 0 0 Z " fill="#DFB92B" transform="translate(333.375,64.75)"/>
<path d="M0 0 C3.34125 -0.103125 6.6825 -0.20625 10.125 -0.3125 C11.68758545 -0.38078003 11.68758545 -0.38078003 13.28173828 -0.45043945 C17.72795729 -0.51671796 21.01674349 -0.53769694 24.58984375 2.3125 C27.87602554 5.97683237 28.96043851 9.08375294 29.02734375 14.015625 C28.66204513 18.92373981 27.20896431 22.16707041 24 26 C19.36940457 29.78299126 14.86443363 29.3513274 9.1875 29.1875 C6.155625 29.125625 3.12375 29.06375 0 29 C0 19.43 0 9.86 0 0 Z " fill="#FCF5F3" transform="translate(113,52)"/>
<path d="M0 0 C3.74959217 -0.14528105 7.49846105 -0.23406281 11.25 -0.3125 C12.84521484 -0.3753418 12.84521484 -0.3753418 14.47265625 -0.43945312 C22.26447021 -0.56196592 22.26447021 -0.56196592 25.71484375 2.07421875 C27.28433119 5.64730717 27.43239823 8.23037477 27.3125 12.125 C27.27576172 13.95417969 27.27576172 13.95417969 27.23828125 15.8203125 C27 19 27 19 26 22 C25.34 22 24.68 22 24 22 C24 22.99 24 23.98 24 25 C19.05586159 27.64381296 14.13199976 27.22504028 8.6875 27.125 C7.75615234 27.11597656 6.82480469 27.10695313 5.86523438 27.09765625 C3.5765564 27.07418263 1.28841328 27.04134729 -1 27 C-1 26.34 -1 25.68 -1 25 C-2.65 25 -4.3 25 -6 25 C-6 24.01 -6 23.02 -6 22 C-0.85799177 20.8573315 3.97462351 21.06985854 9.1953125 21.35546875 C12.09507427 21.21368656 12.09507427 21.21368656 14.3515625 19.31640625 C16.33665577 16.52692684 16.42792441 15.13056387 16.25 11.75 C16.19585937 10.41195312 16.19585937 10.41195312 16.140625 9.046875 C16.09421875 8.37140625 16.0478125 7.6959375 16 7 C15.34 7 14.68 7 14 7 C14 6.34 14 5.68 14 5 C13.34 5 12.68 5 12 5 C12 4.34 12 3.68 12 3 C6.95803693 3.46898814 6.95803693 3.46898814 2.5 5.6875 C0 7 0 7 -3.8125 6.1875 C-4.864375 5.795625 -5.91625 5.40375 -7 5 C-6.67 4.01 -6.34 3.02 -6 2 C-4.02 2 -2.04 2 0 2 C0 1.34 0 0.68 0 0 Z " fill="#DBB31E" transform="translate(352,71)"/>
<path d="M0 0 C10.89 0 21.78 0 33 0 C33 21.78 33 43.56 33 66 C18 66 18 66 16 65 C16 48.17 16 31.34 16 14 C16.33 14 16.66 14 17 14 C17 30.5 17 47 17 64 C22.445 63.505 22.445 63.505 28 63 C29.05111609 59.84665174 29.12070472 57.64487717 29.11352539 54.33520508 C29.11344986 53.17422806 29.11337433 52.01325104 29.11329651 50.8170929 C29.10813522 49.56389755 29.10297394 48.31070221 29.09765625 47.01953125 C29.0962413 45.73640549 29.09482635 44.45327972 29.09336853 43.13127136 C29.08955405 39.72329759 29.07973291 36.31536657 29.06866455 32.90740967 C29.05842744 29.42851348 29.05381117 25.94961016 29.04882812 22.47070312 C29.0386406 15.64709768 29.01906628 8.82360958 29 2 C19.43 1.67 9.86 1.34 0 1 C0 0.67 0 0.34 0 0 Z " fill="#DF3B33" transform="translate(252,38)"/>
<path d="M0 0 C1.65 0 3.3 0 5 0 C5 19.47 5 38.94 5 59 C6.32 59.33 7.64 59.66 9 60 C9 60.66 9 61.32 9 62 C4.545 62.495 4.545 62.495 0 63 C0 42.21 0 21.42 0 0 Z " fill="#DD2516" transform="translate(162,39)"/>
<path d="M0 0 C3.23165991 1.54850371 4.52782327 2.66932013 5.73046875 6.05859375 C6.38534823 9.37776922 6.58295767 11.85047303 5.02734375 14.91796875 C2.87236113 17.44512107 0.99961327 18.74265648 -2.23046875 19.57421875 C-6.70886971 19.91178666 -8.51354236 19.39710828 -12.0625 16.5 C-14.71565523 12.58960049 -14.73301898 9.61801955 -14 5 C-10.40060213 -0.57326122 -6.16889444 -1.16225547 0 0 Z " fill="#DE2C20" transform="translate(115,11)"/>
<path d="M0 0 C0.33 0 0.66 0 1 0 C1 2.97 1 5.94 1 9 C4.3 9 7.6 9 11 9 C10.91311271 12.75113415 10.80623222 16.49985418 10.6875 20.25 C10.65366211 21.84521484 10.65366211 21.84521484 10.61914062 23.47265625 C10.58369141 24.49746094 10.54824219 25.52226563 10.51171875 26.578125 C10.48553467 27.52075195 10.45935059 28.46337891 10.43237305 29.43457031 C9.92744625 32.4304883 9.13426613 33.85354521 7 36 C3.8125 36.25 3.8125 36.25 1 36 C-0.53297297 32.93405406 -0.12131455 29.72888147 -0.09765625 26.3671875 C-0.0962413 25.61535187 -0.09482635 24.86351624 -0.09336853 24.08889771 C-0.08776465 21.6842249 -0.07521157 19.27964473 -0.0625 16.875 C-0.0574855 15.24609509 -0.0529225 13.61718873 -0.04882812 11.98828125 C-0.03779397 7.99215173 -0.02052679 3.99609158 0 0 Z " fill="#E6C33A" transform="translate(382,68)"/>
<path d="M0 0 C0.66 0.33 1.32 0.66 2 1 C2 1.66 2 2.32 2 3 C2.66 3 3.32 3 4 3 C5.61588379 6.23176757 5.57451407 9.50615283 5 13 C3 16 3 16 0 18 C-2.80730687 18.39956124 -5.14153994 18.24224238 -8 18 C-8 17.34 -8 16.68 -8 16 C-8.66 16 -9.32 16 -10 16 C-12.38546529 12.42180206 -12.54107866 10.36409248 -12.4453125 6.1640625 C-12 4 -12 4 -9.375 1.4375 C-5.87433435 -0.05352426 -3.75293268 -0.42646962 0 0 Z " fill="#FDFBF2" transform="translate(364,75)"/>
<path d="M0 0 C0.33 0.99 0.66 1.98 1 3 C9.91 2.67 18.82 2.34 28 2 C28 2.66 28 3.32 28 4 C31.96 4.33 35.92 4.66 40 5 C38.02 5.99 38.02 5.99 36 7 C35.38125 7.804375 35.38125 7.804375 34.75 8.625 C31.80758046 10.93690107 28.64351176 10.1791891 25 10 C25 9.34 25 8.68 25 8 C24.360625 8.185625 23.72125 8.37125 23.0625 8.5625 C22.381875 8.706875 21.70125 8.85125 21 9 C20.67 8.67 20.34 8.34 20 8 C15.98342857 7.77081758 15.98342857 7.77081758 12 8 C11.34 8.66 10.68 9.32 10 10 C7.6171875 10.1953125 7.6171875 10.1953125 4.875 10.125 C2.461875 10.063125 2.461875 10.063125 0 10 C0 6.7 0 3.4 0 0 Z " fill="#E1BB2B" transform="translate(383,67)"/>
<path d="M0 0 C3.64622361 3.64622361 2.36953387 9.50978455 2.375 14.4375 C2.39949219 15.59572266 2.42398437 16.75394531 2.44921875 17.94726562 C2.45308594 19.05650391 2.45695312 20.16574219 2.4609375 21.30859375 C2.46915527 22.32751709 2.47737305 23.34644043 2.48583984 24.39624023 C2 27 2 27 0.13525391 28.86743164 C-2 30 -2 30 -4.625 29.8125 C-7 29 -7 29 -9 27 C-9.31884766 24.56982422 -9.31884766 24.56982422 -9.4140625 21.5546875 C-9.45273437 20.47832031 -9.49140625 19.40195313 -9.53125 18.29296875 C-9.5621875 17.16503906 -9.593125 16.03710938 -9.625 14.875 C-9.68300781 13.17150391 -9.68300781 13.17150391 -9.7421875 11.43359375 C-9.83667601 8.62256044 -9.92223541 5.81153767 -10 3 C-9.0925 3.33 -8.185 3.66 -7.25 4 C-3.92954193 5.19605723 -3.92954193 5.19605723 0 5 C0 9.29 0 13.58 0 18 C-2.64 17.67 -5.28 17.34 -8 17 C-8 18.98 -8 20.96 -8 23 C-5.36 23.33 -2.72 23.66 0 24 C0 16.08 0 8.16 0 0 Z " fill="#EBCF54" transform="translate(437,74)"/>
<path d="M0 0 C3.08814656 1.60977852 5.52892265 3.55799415 8 6 C7.67 6.66 7.34 7.32 7 8 C4.62492145 8.02719556 2.25016036 8.04693247 -0.125 8.0625 C-0.79015625 8.07087891 -1.4553125 8.07925781 -2.140625 8.08789062 C-6.20681354 8.10782292 -10.0120092 7.78890161 -14 7 C-14 7.66 -14 8.32 -14 9 C-15.98 9 -17.96 9 -20 9 C-20 9.66 -20 10.32 -20 11 C-18.02 11.66 -16.04 12.32 -14 13 C-14 13.33 -14 13.66 -14 14 C-16.64 14 -19.28 14 -22 14 C-22.33 14.66 -22.66 15.32 -23 16 C-23 9.15604396 -23 9.15604396 -20.22265625 5.9453125 C-13.64049123 0.20823557 -8.82745213 -1.2217546 0 0 Z " fill="#E3C035" transform="translate(366,64)"/>
<path d="M0 0 C3.06733317 1.46063484 4.7431252 2.38955031 6.625 5.25 C6.65201292 8.07014836 6.18372891 10.45635544 5.625 13.25 C2.25 13.375 2.25 13.375 -1.375 13.25 C-2.035 12.59 -2.695 11.93 -3.375 11.25 C-5.69775177 10.84952556 -8.03239357 10.5102896 -10.375 10.25 C-10.375 9.92 -10.375 9.59 -10.375 9.25 C1 9.25 1 9.25 4.625 10.25 C4.295 8.6 3.965 6.95 3.625 5.25 C2.3875 5.415 1.15 5.58 -0.125 5.75 C-4.9743998 6.3015905 -9.74654826 6.26855379 -14.62109375 6.21875 C-17.62248615 6.25280835 -20.44455408 6.5987898 -23.375 7.25 C-23.375 6.59 -23.375 5.93 -23.375 5.25 C-22.715 5.25 -22.055 5.25 -21.375 5.25 C-21.375 4.59 -21.375 3.93 -21.375 3.25 C-14.0663129 -1.08107384 -8.30373279 -1.84527395 0 0 Z " fill="#E7C745" transform="translate(333.375,64.75)"/>
<path d="M0 0 C1.4550293 0.01353516 1.4550293 0.01353516 2.93945312 0.02734375 C5.31406407 0.05073893 7.68814776 0.08351824 10.0625 0.125 C10.3925 1.775 10.7225 3.425 11.0625 5.125 C9.0710944 5.50633299 7.06970923 5.83825582 5.0625 6.125 C4.7325 5.795 4.4025 5.465 4.0625 5.125 C-1.26580074 4.76977995 -4.61133515 4.66406812 -8.9375 8.125 C-10.72094178 10.19454847 -10.72094178 10.19454847 -11.9375 12.125 C-11.9375 11.135 -11.9375 10.145 -11.9375 9.125 C-12.8346875 9.4034375 -12.8346875 9.4034375 -13.75 9.6875 C-15.9375 10.125 -15.9375 10.125 -18.9375 9.125 C-18.6075 6.815 -18.2775 4.505 -17.9375 2.125 C-11.8759737 -0.01040594 -6.38873306 -0.11353866 0 0 Z " fill="#DFBA29" transform="translate(326.9375,69.875)"/>
<path d="M0 0 C7.59 0 15.18 0 23 0 C23.99 1.98 24.98 3.96 26 6 C25.67 6.99 25.34 7.98 25 9 C22.36 8.67 19.72 8.34 17 8 C17 7.34 17 6.68 17 6 C14.525 5.505 14.525 5.505 12 5 C12 4.34 12 3.68 12 3 C6.95803693 3.46898814 6.95803693 3.46898814 2.5 5.6875 C0 7 0 7 -3.8125 6.1875 C-4.864375 5.795625 -5.91625 5.40375 -7 5 C-6.67 4.01 -6.34 3.02 -6 2 C-4.02 2 -2.04 2 0 2 C0 1.34 0 0.68 0 0 Z " fill="#DCB41E" transform="translate(352,71)"/>
<path d="M0 0 C0.33 0 0.66 0 1 0 C1.09891077 5.76573685 1.17148845 11.5309794 1.21972656 17.29736328 C1.23983632 19.25871381 1.26712818 21.22000444 1.30175781 23.18115234 C1.35030421 26.00112695 1.37297486 28.82030865 1.390625 31.640625 C1.41127014 32.51680481 1.43191528 33.39298462 1.45318604 34.29571533 C1.45348816 35.11626404 1.45379028 35.93681274 1.45410156 36.78222656 C1.46298401 37.50170471 1.47186646 38.22118286 1.48101807 38.96246338 C1 41 1 41 -3 45 C-7.62 45 -12.24 45 -17 45 C-17 31.14 -17 17.28 -17 3 C-16.67 3 -16.34 3 -16 3 C-16 16.53 -16 30.06 -16 44 C-15.34 44 -14.68 44 -14 44 C-13.67 43.34 -13.34 42.68 -13 42 C-9.09503606 40.16236991 -5.19788498 39.19939571 -1 38 C-0.67 25.46 -0.34 12.92 0 0 Z " fill="#E2483E" transform="translate(220,59)"/>
<path d="M0 0 C6.84162896 -0.65158371 6.84162896 -0.65158371 10 1.125 C11.504106 3.94519875 11.44912849 5.85610056 11 9 C9.375 11.375 9.375 11.375 7 13 C3.9375 13.5 3.9375 13.5 1 13 C-1.611137 10.7370146 -1.96165814 9.37575018 -2.3125 5.9375 C-2 3 -2 3 0 0 Z " fill="#E7C746" transform="translate(294,91)"/>
<path d="M0 0 C0.639375 0.825 1.27875 1.65 1.9375 2.5 C5.61224012 5.49978785 7.35372902 5.50339011 11.9140625 5.37109375 C14.29782631 5.09061938 14.29782631 5.09061938 17 3 C16.5 4.9375 16.5 4.9375 15 7 C12.30341548 7.68790422 9.7982981 7.81946464 7 8 C7.66 8.66 8.32 9.32 9 10 C3.06605392 9.58600376 2.70172404 8.70172404 -2 4 C-2.33 32.38 -2.66 60.76 -3 90 C-3.33 90 -3.66 90 -4 90 C-4 60.96 -4 31.92 -4 2 C-2.68 1.34 -1.36 0.68 0 0 Z " fill="#F9D2C9" transform="translate(101,24)"/>
<path d="M0 0 C0.66 0.33 1.32 0.66 2 1 C2.05398987 3.27057377 2.09278742 5.54151288 2.125 7.8125 C2.14820313 9.07707031 2.17140625 10.34164062 2.1953125 11.64453125 C2 15 2 15 0 18 C-0.33 17.34 -0.66 16.68 -1 16 C-1.61488281 16.0721875 -2.22976563 16.144375 -2.86328125 16.21875 C-3.67152344 16.3115625 -4.47976563 16.404375 -5.3125 16.5 C-6.11300781 16.5928125 -6.91351563 16.685625 -7.73828125 16.78125 C-10 17 -10 17 -13 17 C-12.34 16.54625 -11.68 16.0925 -11 15.625 C-7.9848988 11.66767967 -8.66954483 7.80995855 -9 3 C-9.66 3 -10.32 3 -11 3 C-10.67 2.34 -10.34 1.68 -10 1 C-9.34 1.33 -8.68 1.66 -8 2 C-8 2.66 -8 3.32 -8 4 C-5.36 4 -2.72 4 0 4 C0 2.68 0 1.36 0 0 Z " fill="#EFD561" transform="translate(377,75)"/>
<path d="M0 0 C0.33 0 0.66 0 1 0 C1 21.78 1 43.56 1 66 C5.95 66 10.9 66 16 66 C16.495 64.515 16.495 64.515 17 63 C17.495 63.99 17.495 63.99 18 65 C16.98046875 66.51953125 16.98046875 66.51953125 15 68 C12.30769532 68.05590578 9.96472438 67.96654759 7.3125 67.6875 C4.899375 67.460625 2.48625 67.23375 0 67 C-0.33 57.1 -0.66 47.2 -1 37 C-1.66 37 -2.32 37 -3 37 C-2.98839844 35.90300781 -2.97679687 34.80601563 -2.96484375 33.67578125 C-2.95546036 32.22135588 -2.94636075 30.76692865 -2.9375 29.3125 C-2.92912109 28.59126953 -2.92074219 27.87003906 -2.91210938 27.12695312 C-2.89456368 23.28444618 -3.06475779 19.73360474 -4 16 C-3.01 15.67 -2.02 15.34 -1 15 C-0.67 10.05 -0.34 5.1 0 0 Z " fill="#F9E2DE" transform="translate(160,38)"/>
<path d="M0 0 C0.89074219 -0.02900391 1.78148437 -0.05800781 2.69921875 -0.08789062 C8.81851137 -0.14647001 12.33559397 0.81252896 17.375 4.3125 C13.97602327 6.57848448 12.81180827 6.54992654 8.83203125 6.5078125 C7.22231445 6.49814453 7.22231445 6.49814453 5.58007812 6.48828125 C3.90075195 6.46314453 3.90075195 6.46314453 2.1875 6.4375 C1.05634766 6.42847656 -0.07480469 6.41945313 -1.24023438 6.41015625 C-4.03536828 6.38656862 -6.83007845 6.353653 -9.625 6.3125 C-10.00718767 4.65635343 -10.33895102 2.98792976 -10.625 1.3125 C-8.34272086 -0.96977914 -3.06034825 0.03237322 0 0 Z " fill="#EDD05C" transform="translate(393.625,63.6875)"/>
<path d="M0 0 C2.97 0 5.94 0 9 0 C9.08096264 3.25049988 9.14048115 6.49898234 9.1875 9.75 C9.22520508 11.13058594 9.22520508 11.13058594 9.26367188 12.5390625 C9.27817383 13.87324219 9.27817383 13.87324219 9.29296875 15.234375 C9.31653442 16.45979004 9.31653442 16.45979004 9.34057617 17.70996094 C8.91364531 20.58065014 8.0191106 21.9366068 6 24 C2.8125 24.25 2.8125 24.25 0 24 C-0.625 22.125 -0.625 22.125 -1 20 C1 18 1 18 4.625 17.875 C6.295625 17.936875 6.295625 17.936875 8 18 C8 15.03 8 12.06 8 9 C6.2984375 9.0309375 6.2984375 9.0309375 4.5625 9.0625 C1 9 1 9 0 8 C-0.14115161 5.32941149 -0.04247107 2.67567762 0 0 Z " fill="#EED159" transform="translate(383,80)"/>
<path d="M0 0 C0.09880115 5.78404741 0.1714363 11.56760484 0.21972656 17.35229492 C0.23985481 19.3204809 0.26716019 21.28860699 0.30175781 23.2565918 C0.35022311 26.0839718 0.37295618 28.91056201 0.390625 31.73828125 C0.41127014 32.61962234 0.43191528 33.50096344 0.45318604 34.40901184 C0.45541714 40.4691037 0.45541714 40.4691037 -1.83691406 43.14135742 C-4 44 -4 44 -7 43 C-6.34 42.34 -5.68 41.68 -5 41 C-4.79070456 38.16989619 -4.69887506 35.42970602 -4.69140625 32.59765625 C-4.6662487 30.88606427 -4.64085064 29.1744758 -4.61523438 27.46289062 C-4.58646391 24.75920501 -4.56245201 22.05558051 -4.54370117 19.35180664 C-4.52208257 16.74593423 -4.48264807 14.14078102 -4.44140625 11.53515625 C-4.44129044 10.7257106 -4.44117462 9.91626495 -4.4410553 9.08229065 C-4.3406277 3.40462444 -4.3406277 3.40462444 -2.53746033 1.26268005 C-1 0 -1 0 0 0 Z " fill="#F7C4BF" transform="translate(225,59)"/>
<path d="M0 0 C0.33 1.32 0.66 2.64 1 4 C3.31 4 5.62 4 8 4 C8.33 6.97 8.66 9.94 9 13 C9.66 13 10.32 13 11 13 C11.66 14.32 12.32 15.64 13 17 C8.38 16.34 3.76 15.68 -1 15 C-1.125 2.25 -1.125 2.25 0 0 Z " fill="#EED05C" transform="translate(307,75)"/>
<path d="M0 0 C3.13596904 1.71590759 4.86949588 3.21635319 6.86328125 6.20703125 C3.73791488 6.06845284 0.61309908 5.91993556 -2.51171875 5.76953125 C-3.40117187 5.73021484 -4.290625 5.69089844 -5.20703125 5.65039062 C-6.0578125 5.60849609 -6.90859375 5.56660156 -7.78515625 5.5234375 C-8.57067871 5.48677979 -9.35620117 5.45012207 -10.16552734 5.41235352 C-12.13671875 5.20703125 -12.13671875 5.20703125 -14.13671875 4.20703125 C-14.13671875 3.54703125 -14.13671875 2.88703125 -14.13671875 2.20703125 C-14.79671875 1.87703125 -15.45671875 1.54703125 -16.13671875 1.20703125 C-11.16320556 -1.65130966 -5.40695983 -2.00660484 0 0 Z " fill="#E8C745" transform="translate(428.13671875,64.79296875)"/>
<path d="M0 0 C4.51617599 -0.07654536 8.59085217 -0.10228696 13 1 C12.67 2.32 12.34 3.64 12 5 C13.98 5 15.96 5 18 5 C18.33 7.97 18.66 10.94 19 14 C16.03 14 13.06 14 10 14 C9.8046875 11.75390625 9.609375 9.5078125 9.4140625 7.26171875 C9.10435574 4.72775559 9.10435574 4.72775559 7 2 C5.02252878 1.63702064 5.02252878 1.63702064 2.875 1.8125 C1.59625 1.874375 0.3175 1.93625 -1 2 C-0.67 1.34 -0.34 0.68 0 0 Z " fill="#ECCF54" transform="translate(395,74)"/>
<path d="M0 0 C1.24546405 2.49092811 0.7767578 3.41080733 0 6 C2.31 6 4.62 6 7 6 C8.125 11.75 8.125 11.75 7 14 C5.15234375 14.6328125 5.15234375 14.6328125 2.9375 15.125 C2.20402344 15.29257813 1.47054688 15.46015625 0.71484375 15.6328125 C0.14894531 15.75398438 -0.41695313 15.87515625 -1 16 C-3.11912545 11.7617491 -2.25196473 6.88187654 -1 2.5 C-0.67 1.675 -0.34 0.85 0 0 Z " fill="#EFD668" transform="translate(343,74)"/>
<path d="M0 0 C2.86328125 2.0390625 2.86328125 2.0390625 5 4 C1.89610484 4.33589425 -1.20815699 4.66827237 -4.3125 5 C-5.19357422 5.09539062 -6.07464844 5.19078125 -6.98242188 5.2890625 C-8.25375977 5.42441406 -8.25375977 5.42441406 -9.55078125 5.5625 C-10.72120972 5.68818359 -10.72120972 5.68818359 -11.9152832 5.81640625 C-14.61335441 6.05401599 -17.29227755 6 -20 6 C-14.08199218 0.1516158 -8.27643218 -1.75802835 0 0 Z " fill="#E9CD55" transform="translate(366,64)"/>
<path d="M0 0 C4.01199206 0.84372365 6.60815426 2.6935449 10 5 C11.093125 5.474375 12.18625 5.94875 13.3125 6.4375 C16 8 16 8 16.875 10.6875 C16.91625 11.450625 16.9575 12.21375 17 13 C16.01 12.67 15.02 12.34 14 12 C14 10.68 14 9.36 14 8 C13.01 8.33 12.02 8.66 11 9 C10.01 9 9.02 9 8 9 C8 8.34 8 7.68 8 7 C5.3094472 8.22007944 5.3094472 8.22007944 3 10 C2.63837971 11.32594105 2.30271961 12.65938457 2 14 C0.09391902 10.78817851 -0.22266247 8.46117397 -0.125 4.75 C-0.09792969 3.41195312 -0.09792969 3.41195312 -0.0703125 2.046875 C-0.04710937 1.37140625 -0.02390625 0.6959375 0 0 Z " fill="#DE2A1E" transform="translate(55,110)"/>
<path d="M0 0 C1.51858959 0.64540058 3.02415279 1.32457639 4.5 2.0625 C4.5 2.7225 4.5 3.3825 4.5 4.0625 C-2.43 4.0625 -9.36 4.0625 -16.5 4.0625 C-16.83 3.0725 -17.16 2.0825 -17.5 1.0625 C-12.02017612 -2.11933322 -5.97074808 -1.59930752 0 0 Z " fill="#EDCB52" transform="translate(333.5,64.9375)"/>
<path d="M0 0 C-0.63421875 0.29648438 -1.2684375 0.59296875 -1.921875 0.8984375 C-4.06289083 1.84931742 -4.06289083 1.84931742 -5.25 3.625 C-8.19241954 5.93690107 -11.35648824 5.1791891 -15 5 C-15 4.34 -15 3.68 -15 3 C-15.5775 3.2475 -16.155 3.495 -16.75 3.75 C-17.4925 3.8325 -18.235 3.915 -19 4 C-21.25 2.0625 -21.25 2.0625 -23 0 C-15.16737959 -1.00220537 -7.8413948 -0.8895125 0 0 Z " fill="#DAB119" transform="translate(423,72)"/>
<path d="M0 0 C0 0.33 0 0.66 0 1 C-1.051875 1.28875 -2.10375 1.5775 -3.1875 1.875 C-6.22818711 2.77225193 -9.08712344 3.76423419 -12 5 C-11.9278125 5.61488281 -11.855625 6.22976562 -11.78125 6.86328125 C-11.6884375 7.67152344 -11.595625 8.47976562 -11.5 9.3125 C-11.4071875 10.11300781 -11.314375 10.91351563 -11.21875 11.73828125 C-11 14 -11 14 -11 17 C-13.97 16.67 -16.94 16.34 -20 16 C-19.67 15.34 -19.34 14.68 -19 14 C-17.35 14 -15.7 14 -14 14 C-14 11.36 -14 8.72 -14 6 C-15.98 6 -17.96 6 -20 6 C-20 5.34 -20 4.68 -20 4 C-19.39671875 3.96261719 -18.7934375 3.92523438 -18.171875 3.88671875 C-11.17319392 3.31102079 -7.05977367 -0.40729463 0 0 Z " fill="#EDD263" transform="translate(364,74)"/>
<path d="M0 0 C0.598125 0.185625 1.19625 0.37125 1.8125 0.5625 C4.16408762 1.22093687 4.16408762 1.22093687 7 0 C9.0720344 0.24132128 11.13546206 0.56239629 13.1875 0.9375 C14.27417969 1.13214844 15.36085938 1.32679687 16.48046875 1.52734375 C17.72763672 1.76130859 17.72763672 1.76130859 19 2 C18.67 3.32 18.34 4.64 18 6 C11.27547968 6.62008896 6.99823372 6.07584987 1.3984375 2.19140625 C0.93695313 1.79824219 0.47546875 1.40507813 0 1 C0 0.67 0 0.34 0 0 Z " fill="#EDCF54" transform="translate(312,98)"/>
<path d="M0 0 C0.33 0 0.66 0 1 0 C1 3.96 1 7.92 1 12 C0.67 11.34 0.34 10.68 0 10 C-1.89533342 9.53476937 -1.89533342 9.53476937 -4.0625 9.375 C-5.361875 9.25125 -6.66125 9.1275 -8 9 C-8 7.02 -8 5.04 -8 3 C-5.36 3.33 -2.72 3.66 0 4 C0 2.68 0 1.36 0 0 Z " fill="#E3BB27" transform="translate(437,88)"/>
<path d="M0 0 C0.99 0.33 1.98 0.66 3 1 C3 1.66 3 2.32 3 3 C5.64 3 8.28 3 11 3 C10.67 3.66 10.34 4.32 10 5 C8.35 4.67 6.7 4.34 5 4 C4.67 6.64 4.34 9.28 4 12 C5.98 11.67 7.96 11.34 10 11 C10 12.32 10 13.64 10 15 C8.56274129 15.16873478 7.12518162 15.33490737 5.6875 15.5 C4.88699219 15.5928125 4.08648437 15.685625 3.26171875 15.78125 C1 16 1 16 -2 16 C-1.01 15.319375 -1.01 15.319375 0 14.625 C3.0151012 10.66767967 2.33045517 6.80995855 2 2 C1.34 2 0.68 2 0 2 C0 1.34 0 0.68 0 0 Z " fill="#EACC50" transform="translate(366,76)"/>
<path d="M0 0 C4.95 0 9.9 0 15 0 C10 5 10 5 7.32421875 5.48828125 C6.45410156 5.43027344 5.58398438 5.37226562 4.6875 5.3125 C3.80449219 5.26738281 2.92148437 5.22226563 2.01171875 5.17578125 C1.34785156 5.11777344 0.68398438 5.05976562 0 5 C0 3.35 0 1.7 0 0 Z " fill="#DAB118" transform="translate(383,72)"/>
<path d="M0 0 C3.64567713 -0.08816905 7.29107474 -0.14077948 10.9375 -0.1875 C12.46987305 -0.22520508 12.46987305 -0.22520508 14.03320312 -0.26367188 C20.59819504 -0.32659512 25.9339085 0.4487325 32 3 C30.02 3.99 30.02 3.99 28 5 C27.01 4.34 26.02 3.68 25 3 C22.38710506 2.63250611 22.38710506 2.63250611 19.45703125 2.5859375 C18.38388672 2.54726563 17.31074219 2.50859375 16.20507812 2.46875 C15.08552734 2.4378125 13.96597656 2.406875 12.8125 2.375 C11.68134766 2.33632813 10.55019531 2.29765625 9.38476562 2.2578125 C6.5900075 2.16347467 3.79525722 2.07788348 1 2 C0.67 1.34 0.34 0.68 0 0 Z " fill="#E55A56" transform="translate(110,34)"/>
<path d="M0 0 C5.75 -0.125 5.75 -0.125 8 1 C8 2.65 8 4.3 8 6 C7.360625 6.12375 6.72125 6.2475 6.0625 6.375 C5.0415625 6.684375 5.0415625 6.684375 4 7 C3.67 7.66 3.34 8.32 3 9 C3 8.34 3 7.68 3 7 C2.01 7 1.02 7 0 7 C0 4.69 0 2.38 0 0 Z " fill="#DFBA2B" transform="translate(406,91)"/>
<path d="M0 0 C1.59521484 -0.02513672 1.59521484 -0.02513672 3.22265625 -0.05078125 C4.11855469 0.06910156 5.01445312 0.18898438 5.9375 0.3125 C6.5975 1.3025 7.2575 2.2925 7.9375 3.3125 C5.364171 4.5991645 3.43526962 4.48074551 0.5625 4.5 C-0.87222656 4.52126953 -0.87222656 4.52126953 -2.3359375 4.54296875 C-5.09260017 4.30995572 -6.71197395 3.72170164 -9.0625 2.3125 C-5.60395992 0.00680661 -4.08312492 0.01488381 0 0 Z " fill="#F1D567" transform="translate(360.0625,99.6875)"/>
<path d="M0 0 C2.48088355 0.28062943 4.95909185 0.57390599 7.4375 0.875 C8.49807617 0.99294922 8.49807617 0.99294922 9.58007812 1.11328125 C11.39673432 1.33927676 13.20062522 1.66300727 15 2 C15.33 2.66 15.66 3.32 16 4 C13.71059044 4.38854209 11.41835426 4.7604628 9.125 5.125 C7.21074219 5.43824219 7.21074219 5.43824219 5.2578125 5.7578125 C3.64519531 5.87769531 3.64519531 5.87769531 2 6 C1.34 5.34 0.68 4.68 0 4 C0 2.68 0 1.36 0 0 Z " fill="#DBB41D" transform="translate(310,92)"/>
<path d="M0 0 C0.99 0 1.98 0 3 0 C3 0.66 3 1.32 3 2 C3.99 2 4.98 2 6 2 C6 1.34 6 0.68 6 0 C7.65 0 9.3 0 11 0 C11 0.33 11 0.66 11 1 C14.3 1.33 17.6 1.66 21 2 C19 4 19 4 17.12060547 4.22705078 C16.37697754 4.21657715 15.63334961 4.20610352 14.8671875 4.1953125 C14.06152344 4.18886719 13.25585938 4.18242188 12.42578125 4.17578125 C11.58402344 4.15902344 10.74226563 4.14226562 9.875 4.125 C8.60076172 4.11146484 8.60076172 4.11146484 7.30078125 4.09765625 C5.20040116 4.07405647 3.10016556 4.03818483 1 4 C0.67 2.68 0.34 1.36 0 0 Z " fill="#E5C646" transform="translate(383,66)"/>
<path d="M0 0 C0.85722656 -0.00515625 1.71445312 -0.0103125 2.59765625 -0.015625 C4.9375 0.25 4.9375 0.25 7.9375 2.25 C6.6175 2.25 5.2975 2.25 3.9375 2.25 C3.9375 2.91 3.9375 3.57 3.9375 4.25 C0.3075 4.58 -3.3225 4.91 -7.0625 5.25 C-7.0625 4.59 -7.0625 3.93 -7.0625 3.25 C-7.7225 2.92 -8.3825 2.59 -9.0625 2.25 C-5.93061623 0.41882898 -3.61429405 -0.0218057 0 0 Z " fill="#EED15F" transform="translate(421.0625,63.75)"/>
<path d="M0 0 C1.32 0.33 2.64 0.66 4 1 C3.67 1.33 3.34 1.66 3 2 C5.475 2.99 5.475 2.99 8 4 C8 4.66 8 5.32 8 6 C12.4378561 7.11165232 16.76956386 7.11527763 21.3125 7.0625 C22.42334961 7.05573242 22.42334961 7.05573242 23.55664062 7.04882812 C25.37112899 7.03712175 27.18557534 7.01918898 29 7 C28.67 7.66 28.34 8.32 28 9 C7.87838617 10.05043228 7.87838617 10.05043228 1 4 C0.25 1.828125 0.25 1.828125 0 0 Z " fill="#E35047" transform="translate(63,131)"/>
<path d="M0 0 C2.97 0 5.94 0 9 0 C9.33 1.65 9.66 3.3 10 5 C5.545 5.495 5.545 5.495 1 6 C1 5.34 1 4.68 1 4 C0.34 4 -0.32 4 -1 4 C-0.67 2.68 -0.34 1.36 0 0 Z " fill="#DBB41D" transform="translate(294,93)"/>
<path d="M0 0 C1.28583984 0.10828125 1.28583984 0.10828125 2.59765625 0.21875 C8.41461476 0.69092702 14.16333091 1.13573649 20 1 C17.16330133 4.12036853 14.70546839 5.87079785 10.421875 6.1953125 C9.54015625 6.17210938 8.6584375 6.14890625 7.75 6.125 C6.85796875 6.10695313 5.9659375 6.08890625 5.046875 6.0703125 C4.03367187 6.03550781 4.03367187 6.03550781 3 6 C3 5.67 3 5.34 3 5 C5.64 4.67 8.28 4.34 11 4 C8.70370006 2.85185003 6.92301914 2.69230191 4.375 2.4375 C3.55773437 2.35371094 2.74046875 2.26992187 1.8984375 2.18359375 C1.27195312 2.12300781 0.64546875 2.06242187 0 2 C0 1.34 0 0.68 0 0 Z " fill="#E6C945" transform="translate(319,97)"/>
<path d="M0 0 C0.66 0.33 1.32 0.66 2 1 C3.34751434 6.25530593 3.09576651 11.61579398 3 17 C2.67 17 2.34 17 2 17 C2 14.03 2 11.06 2 8 C1.13375 8.2475 0.2675 8.495 -0.625 8.75 C-4.98859312 9.07322912 -6.6341724 7.64457883 -10 5 C-7.29120665 3.64560332 -4.99066732 3.93498549 -2 4 C-2 4.66 -2 5.32 -2 6 C-1.01 6 -0.02 6 1 6 C0.67 4.02 0.34 2.04 0 0 Z " fill="#E9C742" transform="translate(435,71)"/>
<path d="M0 0 C0.639375 0.495 1.27875 0.99 1.9375 1.5 C5.95946227 3.4699407 9.58208864 3.63703965 14 3 C14.99 2.34 15.98 1.68 17 1 C16.5 2.9375 16.5 2.9375 15 5 C12.30341548 5.68790422 9.7982981 5.81946464 7 6 C7.66 6.66 8.32 7.32 9 8 C4.2482602 7.56802365 2.07999946 6.67230705 -1 3 C-0.67 2.01 -0.34 1.02 0 0 Z " fill="#F9D8D5" transform="translate(101,26)"/>
<path d="M0 0 C-2 2.625 -2 2.625 -5 5 C-7.9739411 4.84058356 -10.15152558 4.01386378 -13 3 C-12.67 2.01 -12.34 1.02 -12 0 C-7.66726186 -0.92844389 -4.33273814 -0.92844389 0 0 Z " fill="#D9B219" transform="translate(358,73)"/>
<path d="M0 0 C0.99 0 1.98 0 3 0 C2.67 2.64 2.34 5.28 2 8 C-1.375 8.125 -1.375 8.125 -5 8 C-5.66 7.34 -6.32 6.68 -7 6 C-9.32275177 5.59952556 -11.65739357 5.2602896 -14 5 C-14 4.67 -14 4.34 -14 4 C-2.625 4 -2.625 4 1 5 C0.67 3.35 0.34 1.7 0 0 Z " fill="#EACC5A" transform="translate(337,70)"/>
<path d="M0 0 C7.01694482 1.25397873 14.01556007 2.57584088 21 4 C21 4.33 21 4.66 21 5 C18.56212615 4.8590651 16.12482147 4.71245458 13.6875 4.5625 C12.65206055 4.50352539 12.65206055 4.50352539 11.59570312 4.44335938 C8.52838465 4.25072585 5.93031848 3.97677283 3 3 C2.67 4.32 2.34 5.64 2 7 C0.5393715 4.35261084 0 3.10551666 0 0 Z " fill="#E7C33D" transform="translate(307,89)"/>
<path d="M0 0 C1.43739513 -0.02712066 2.87493863 -0.04645067 4.3125 -0.0625 C5.51326172 -0.07990234 5.51326172 -0.07990234 6.73828125 -0.09765625 C9 0 9 0 12 1 C12 2.32 12 3.64 12 5 C10.56138706 4.91253716 9.12402492 4.80434652 7.6875 4.6875 C6.88699219 4.62949219 6.08648437 4.57148437 5.26171875 4.51171875 C2.62550449 3.91526958 1.66173706 3.09196025 0 1 C0 0.67 0 0.34 0 0 Z " fill="#DAB014" transform="translate(424,72)"/>
<path d="M0 0 C6.625 -0.25 6.625 -0.25 10 2 C8.875 3.5 8.875 3.5 7 5 C3.56797729 5.28600189 1.27570125 5.09190042 -2 4 C-1.34 2.68 -0.68 1.36 0 0 Z " fill="#D8B015" transform="translate(312,72)"/>
<path d="M0 0 C-2.296537 1.1482685 -3.58313167 1.11561175 -6.1328125 1.09765625 C-6.93847656 1.09443359 -7.74414062 1.09121094 -8.57421875 1.08789062 C-9.41597656 1.07951172 -10.25773437 1.07113281 -11.125 1.0625 C-11.97449219 1.05798828 -12.82398438 1.05347656 -13.69921875 1.04882812 C-15.79950909 1.03702874 -17.8997633 1.01909306 -20 1 C-16.99561604 -5.00876792 -4.88268977 -2.05586938 0 0 Z " fill="#F0D467" transform="translate(336,66)"/>
<path d="M0 0 C0 1.32 0 2.64 0 4 C0.66 4 1.32 4 2 4 C1.67 4.66 1.34 5.32 1 6 C0.38769531 5.35546875 -0.22460938 4.7109375 -0.85546875 4.046875 C-5.28283305 1.16496333 -9.13380764 1.33051677 -14.3125 1.25 C-15.24384766 1.22035156 -16.17519531 1.19070312 -17.13476562 1.16015625 C-19.42326265 1.08974096 -21.71075809 1.03690786 -24 1 C-24 0.67 -24 0.34 -24 0 C-20.75052139 -0.19738568 -17.50041127 -0.3811754 -14.25 -0.5625 C-13.32960938 -0.61857422 -12.40921875 -0.67464844 -11.4609375 -0.73242188 C-10.57148437 -0.78076172 -9.68203125 -0.82910156 -8.765625 -0.87890625 C-7.94868164 -0.9260376 -7.13173828 -0.97316895 -6.29003906 -1.02172852 C-4.02117925 -1.00020095 -2.16679079 -0.64612135 0 0 Z " fill="#DF5049" transform="translate(138,51)"/>
<path d="M0 0 C4.29 0.66 8.58 1.32 13 2 C13 2.66 13 3.32 13 4 C9.7 4 6.4 4 3 4 C2.67 4.66 2.34 5.32 2 6 C1.34 5.34 0.68 4.68 0 4 C0 2.68 0 1.36 0 0 Z " fill="#E3BF39" transform="translate(343,89)"/>
<path d="M0 0 C0.99 0 1.98 0 3 0 C3 0.66 3 1.32 3 2 C4.32 1.67 5.64 1.34 7 1 C7.33 1.99 7.66 2.98 8 4 C7.34 4.66 6.68 5.32 6 6 C2.875 5.625 2.875 5.625 0 5 C-0.33 4.01 -0.66 3.02 -1 2 C-0.67 1.34 -0.34 0.68 0 0 Z " fill="#EED15D" transform="translate(406,98)"/>
<path d="M0 0 C0.33 0.99 0.66 1.98 1 3 C0.01 4.485 0.01 4.485 -1 6 C-1 4.68 -1 3.36 -1 2 C-1.66 2.66 -2.32 3.32 -3 4 C-5.74485593 4.14507695 -8.38480543 4.18652423 -11.125 4.125 C-11.87910156 4.11597656 -12.63320313 4.10695313 -13.41015625 4.09765625 C-15.27357254 4.0740687 -17.13682593 4.03819719 -19 4 C-19 3.67 -19 3.34 -19 3 C-18.04287109 2.90912109 -18.04287109 2.90912109 -17.06640625 2.81640625 C-15.82697266 2.69072266 -15.82697266 2.69072266 -14.5625 2.5625 C-13.32693359 2.44068359 -13.32693359 2.44068359 -12.06640625 2.31640625 C-10.01337975 2.21069185 -10.01337975 2.21069185 -9 1 C-7.48530552 0.76807135 -5.96245438 0.58784762 -4.4375 0.4375 C-3.19806641 0.31181641 -3.19806641 0.31181641 -1.93359375 0.18359375 C-0.97646484 0.09271484 -0.97646484 0.09271484 0 0 Z " fill="#E2BF30" transform="translate(376,90)"/>
<path d="M0 0 C2.64 0 5.28 0 8 0 C7.67 1.65 7.34 3.3 7 5 C4.69 4.67 2.38 4.34 0 4 C0 2.68 0 1.36 0 0 Z " fill="#DEB421" transform="translate(383,92)"/>
<path d="M0 0 C2.31 0.33 4.62 0.66 7 1 C7 2.32 7 3.64 7 5 C4.36 5 1.72 5 -1 5 C-0.67 3.35 -0.34 1.7 0 0 Z " fill="#F6DE71" transform="translate(430,81)"/>
<path d="M0 0 C1.9375 0.375 1.9375 0.375 4 1 C4.33 1.66 4.66 2.32 5 3 C4.34 3.66 3.68 4.32 3 5 C2.75746187 7.21072977 2.75746187 7.21072977 2.875 9.625 C2.89304688 10.44226563 2.91109375 11.25953125 2.9296875 12.1015625 C2.95289063 12.72804688 2.97609375 13.35453125 3 14 C0.19954377 10.85408067 -0.35261589 8.932936 -0.1875 4.75 C-0.16042969 3.85796875 -0.13335937 2.9659375 -0.10546875 2.046875 C-0.07066406 1.37140625 -0.03585938 0.6959375 0 0 Z " fill="#E14C46" transform="translate(55,110)"/>
<path d="M0 0 C1.4800841 0.11362262 2.95910074 0.24122908 4.4375 0.375 C5.26121094 0.44460938 6.08492187 0.51421875 6.93359375 0.5859375 C7.95646484 0.79089844 7.95646484 0.79089844 9 1 C9.33 1.66 9.66 2.32 10 3 C5.38 3.66 0.76 4.32 -4 5 C-4 4.34 -4 3.68 -4 3 C-2.35 2.67 -0.7 2.34 1 2 C0.67 1.34 0.34 0.68 0 0 Z M-5 5 C-4.67 5 -4.34 5 -4 5 C-4 6.65 -4 8.3 -4 10 C-4.33 10 -4.66 10 -5 10 C-5 8.35 -5 6.7 -5 5 Z " fill="#E12112" transform="translate(107,12)"/>
<path d="M0 0 C1.9375 0.75 1.9375 0.75 3.9375 2.75 C0.5022952 5.04013653 -1.047831 4.92842973 -5.0625 4.75 C-5.0625 3.76 -5.0625 2.77 -5.0625 1.75 C-2.0625 -0.25 -2.0625 -0.25 0 0 Z " fill="#ECD25A" transform="translate(300.0625,99.25)"/>
<path d="M0 0 C2.64 0 5.28 0 8 0 C8 1.32 8 2.64 8 4 C5.36 4 2.72 4 0 4 C0 2.68 0 1.36 0 0 Z " fill="#F6DF73" transform="translate(343,82)"/>
<path d="M0 0 C2.31 0 4.62 0 7 0 C7.33 1.32 7.66 2.64 8 4 C5.36 4 2.72 4 0 4 C0 2.68 0 1.36 0 0 Z " fill="#F6E073" transform="translate(383,82)"/>
<path d="M0 0 C6.93 0 13.86 0 21 0 C21.33 1.65 21.66 3.3 22 5 C20.68 4.34 19.36 3.68 18 3 C18 2.34 18 1.68 18 1 C12.06 1 6.12 1 0 1 C0 0.67 0 0.34 0 0 Z " fill="#DD3733" transform="translate(178,51)"/>
<path d="M0 0 C0.66 0.99 1.32 1.98 2 3 C1.67 3.99 1.34 4.98 1 6 C-1.64 5.67 -4.28 5.34 -7 5 C-7.33 4.01 -7.66 3.02 -8 2 C-5.36 2 -2.72 2 0 2 C0 1.34 0 0.68 0 0 Z " fill="#E2BE34" transform="translate(376,74)"/>
<path d="M0 0 C1.08667969 0.02707031 2.17335938 0.05414063 3.29296875 0.08203125 C4.54013672 0.13423828 4.54013672 0.13423828 5.8125 0.1875 C5.18988281 0.49300781 4.56726563 0.79851562 3.92578125 1.11328125 C1.82105127 2.13461923 1.82105127 2.13461923 0 3.375 C-3.22440777 4.57263717 -5.87233511 3.82503171 -9.1875 3.1875 C-6.54246503 -0.34849411 -4.24021315 -0.13678107 0 0 Z " fill="#F1D569" transform="translate(360.1875,63.8125)"/>
<path d="M0 0 C0.33 0 0.66 0 1 0 C1.16852247 1.60397277 1.33474886 3.2081869 1.5 4.8125 C1.5928125 5.70582031 1.685625 6.59914063 1.78125 7.51953125 C2 10 2 10 2 13 C0.35 11.68 -1.3 10.36 -3 9 C-2.67 8.01 -2.34 7.02 -2 6 C-1.34 6 -0.68 6 0 6 C0 4.02 0 2.04 0 0 Z " fill="#DF3026" transform="translate(61,119)"/>
<path d="M0 0 C0.33 0 0.66 0 1 0 C1.66 2.97 2.32 5.94 3 9 C-0.3 8.67 -3.6 8.34 -7 8 C-6.67 7.34 -6.34 6.68 -6 6 C-4.35 6 -2.7 6 -1 6 C-0.67 4.02 -0.34 2.04 0 0 Z " fill="#E9CD4E" transform="translate(351,82)"/>
<path d="M0 0 C1.79158489 -0.02696365 3.58328473 -0.04637917 5.375 -0.0625 C6.37273437 -0.07410156 7.37046875 -0.08570312 8.3984375 -0.09765625 C11 0 11 0 13 1 C13 1.66 13 2.32 13 3 C7.52667068 4.46845421 4.88077452 3.44038726 0 1 C0 0.67 0 0.34 0 0 Z " fill="#D9B014" transform="translate(325,72)"/>
<path d="M0 0 C0.78246094 -0.02578125 1.56492187 -0.0515625 2.37109375 -0.078125 C4.5625 0.25 4.5625 0.25 7.5625 3.25 C4.5925 2.92 1.6225 2.59 -1.4375 2.25 C-1.7675 2.91 -2.0975 3.57 -2.4375 4.25 C-4.0875 4.25 -5.7375 4.25 -7.4375 4.25 C-7.1075 3.26 -6.7775 2.27 -6.4375 1.25 C-4.11063547 0.08656773 -2.59028587 0.05104012 0 0 Z " fill="#DC3B38" transform="translate(110.4375,10.75)"/>
<path d="M0 0 C0 0.66 0 1.32 0 2 C1.65 2.33 3.3 2.66 5 3 C5 3.33 5 3.66 5 4 C3.41753293 4.08153933 1.83383727 4.13943557 0.25 4.1875 C-1.07257813 4.23970703 -1.07257813 4.23970703 -2.421875 4.29296875 C-5.44671583 3.94923684 -6.75583602 2.99772541 -9 1 C-5.92677456 0.08941469 -3.19902639 -0.08886184 0 0 Z " fill="#F2D976" transform="translate(325,100)"/>
<path d="M0 0 C2.31 0 4.62 0 7 0 C7 1.32 7 2.64 7 4 C4.69 4 2.38 4 0 4 C0 2.68 0 1.36 0 0 Z " fill="#F4E174" transform="translate(307,82)"/>
<path d="M0 0 C1.98 0 3.96 0 6 0 C6 0.99 6 1.98 6 3 C5.01 3.495 5.01 3.495 4 4 C4 4.66 4 5.32 4 6 C2.02 6.99 2.02 6.99 0 8 C0 5.36 0 2.72 0 0 Z " fill="#DC2415" transform="translate(145,81)"/>
<path d="M0 0 C0.66 0.33 1.32 0.66 2 1 C1.67 5.95 1.34 10.9 1 16 C0.67 16 0.34 16 0 16 C-0.07347656 14.75283203 -0.07347656 14.75283203 -0.1484375 13.48046875 C-0.22320312 12.39378906 -0.29796875 11.30710937 -0.375 10.1875 C-0.44460938 9.10855469 -0.51421875 8.02960938 -0.5859375 6.91796875 C-0.81195733 3.81373814 -0.81195733 3.81373814 -3 1 C-2.01 0.67 -1.02 0.34 0 0 Z " fill="#FAF7DF" transform="translate(379,72)"/>
<path d="M0 0 C2.31 0 4.62 0 7 0 C7.33 2.64 7.66 5.28 8 8 C7.62875 7.38125 7.2575 6.7625 6.875 6.125 C4.51377094 3.4489404 2.39868348 2.9063156 -1 2 C-0.67 1.34 -0.34 0.68 0 0 Z " fill="#ECCC5B" transform="translate(332,90)"/>
<path d="M0 0 C1.32 0.33 2.64 0.66 4 1 C3.125 4.875 3.125 4.875 2 6 C0.00390625 6.203125 0.00390625 6.203125 -2.4375 6.25 C-3.24058594 6.27578125 -4.04367188 6.3015625 -4.87109375 6.328125 C-5.57363281 6.21984375 -6.27617188 6.1115625 -7 6 C-7.66 5.01 -8.32 4.02 -9 3 C-4.05 3.99 -4.05 3.99 1 5 C0.67 3.35 0.34 1.7 0 0 Z " fill="#DE3F3A" transform="translate(113,24)"/>
<path d="M0 0 C2.64 0 5.28 0 8 0 C8 1.32 8 2.64 8 4 C5.36 3.67 2.72 3.34 0 3 C0 2.01 0 1.02 0 0 Z " fill="#E7C642" transform="translate(429,88)"/>
<path d="M0 0 C0.33 0.66 0.66 1.32 1 2 C0.67 2.66 0.34 3.32 0 4 C-0.66 4 -1.32 4 -2 4 C-2.33 4.66 -2.66 5.32 -3 6 C-5.64 6 -8.28 6 -11 6 C-9.5836933 3.1673866 -7.85502707 2.98292167 -4.9375 1.875 C-4.01839844 1.52179688 -3.09929687 1.16859375 -2.15234375 0.8046875 C-1.44207031 0.53914062 -0.73179688 0.27359375 0 0 Z " fill="#FADFDB" transform="translate(102,134)"/>
<path d="M0 0 C1.64666203 0.1135629 3.29236082 0.24117381 4.9375 0.375 C5.85402344 0.44460937 6.77054687 0.51421875 7.71484375 0.5859375 C8.84599609 0.79089844 8.84599609 0.79089844 10 1 C10.33 1.66 10.66 2.32 11 3 C9.54176788 3.0270043 8.08339325 3.04639787 6.625 3.0625 C5.81289063 3.07410156 5.00078125 3.08570312 4.1640625 3.09765625 C2 3 2 3 0 2 C0 1.34 0 0.68 0 0 Z " fill="#D8B013" transform="translate(315,93)"/>
<path d="M0 0 C2.31 0.66 4.62 1.32 7 2 C7 2.66 7 3.32 7 4 C3.7 4 0.4 4 -3 4 C-2.67 3.34 -2.34 2.68 -2 2 C-1.34 2 -0.68 2 0 2 C0 1.34 0 0.68 0 0 Z " fill="#D9B112" transform="translate(332,92)"/>
<path d="M0 0 C0.33 0.66 0.66 1.32 1 2 C1.66 2 2.32 2 3 2 C3.66 3.32 4.32 4.64 5 6 C3.54054712 5.91291331 2.08234132 5.80473093 0.625 5.6875 C-0.18710937 5.62949219 -0.99921875 5.57148437 -1.8359375 5.51171875 C-4 5 -4 5 -6 2 C-3.03 2.495 -3.03 2.495 0 3 C0 2.01 0 1.02 0 0 Z " fill="#E7CB4C" transform="translate(315,86)"/>
<path d="M0 0 C1.98 0 3.96 0 6 0 C6 1.32 6 2.64 6 4 C4.02 4 2.04 4 0 4 C0 2.68 0 1.36 0 0 Z " fill="#F5E178" transform="translate(407,82)"/>
<path d="M0 0 C0.04125 0.61875 0.0825 1.2375 0.125 1.875 C0.41375 2.57625 0.7025 3.2775 1 4 C3.99615946 5.3045656 3.99615946 5.3045656 7 6 C7 6.33 7 6.66 7 7 C4.36 7 1.72 7 -1 7 C-1.33 7.66 -1.66 8.32 -2 9 C-1.125 1.125 -1.125 1.125 0 0 Z " fill="#E7C241" transform="translate(345,71)"/>
<path d="M0 0 C0.7425 0.185625 1.485 0.37125 2.25 0.5625 C2.8275 0.706875 3.405 0.85125 4 1 C4 1.66 4 2.32 4 3 C-2.52307692 3.36923077 -2.52307692 3.36923077 -4.9375 1.5 C-5.4634375 0.7575 -5.4634375 0.7575 -6 0 C-3.45555769 -1.27222115 -2.67379418 -0.78641005 0 0 Z " fill="#E02214" transform="translate(110,26)"/>
<path d="M0 0 C2.31 0 4.62 0 7 0 C7 1.32 7 2.64 7 4 C4.69 3.67 2.38 3.34 0 3 C0 2.01 0 1.02 0 0 Z " fill="#DAB016" transform="translate(407,93)"/>
<path d="M0 0 C3.3 0 6.6 0 10 0 C8.02 0.99 8.02 0.99 6 2 C5.67 2.33 5.34 2.66 5 3 C3.00041636 3.04080783 0.99954746 3.04254356 -1 3 C-0.67 2.01 -0.34 1.02 0 0 Z " fill="#D9AF14" transform="translate(413,72)"/>
<path d="M0 0 C2.31 0 4.62 0 7 0 C6.67 1.32 6.34 2.64 6 4 C3.03 3.505 3.03 3.505 0 3 C0 2.01 0 1.02 0 0 Z " fill="#D8B015" transform="translate(430,93)"/>
<path d="M0 0 C-0.66 1.65 -1.32 3.3 -2 5 C-2.33 4.01 -2.66 3.02 -3 2 C-3.8971875 2.309375 -3.8971875 2.309375 -4.8125 2.625 C-7 3 -7 3 -10 1 C-6.41631413 -0.79184293 -3.82245883 -1.27415294 0 0 Z " fill="#E3C438" transform="translate(318,77)"/>
<path d="M0 0 C0.66 1.32 1.32 2.64 2 4 C1.4225 3.649375 0.845 3.29875 0.25 2.9375 C-2.41768223 1.82596574 -3.34662399 1.9728867 -6 3 C-6.99 3.66 -7.98 4.32 -9 5 C-9 4.01 -9 3.02 -9 2 C-5.5647952 -0.29013653 -4.014669 -0.17842973 0 0 Z " fill="#FEF8E9" transform="translate(425,75)"/>
<path d="M0 0 C0 0.99 0 1.98 0 3 C-4.29 2.67 -8.58 2.34 -13 2 C-13 1.67 -13 1.34 -13 1 C-8.59085217 -0.10228696 -4.51617599 -0.07654536 0 0 Z " fill="#E3BE35" transform="translate(373,69)"/>
<path d="M0 0 C1.485 0.99 1.485 0.99 3 2 C2.67 4.97 2.34 7.94 2 11 C1.34 11 0.68 11 0 11 C0 7.37 0 3.74 0 0 Z " fill="#DB2C20" transform="translate(100,29)"/>
<path d="M0 0 C-0.99 1.485 -0.99 1.485 -2 3 C-5.625 3.1875 -5.625 3.1875 -9 3 C-5.83583464 -0.30799106 -4.50236011 -1.35070803 0 0 Z " fill="#E34239" transform="translate(246,41)"/>
<path d="M0 0 C0.103125 0.639375 0.20625 1.27875 0.3125 1.9375 C0.539375 2.618125 0.76625 3.29875 1 4 C1.99 4.33 2.98 4.66 4 5 C3.01 5.33 2.02 5.66 1 6 C0.67 8.31 0.34 10.62 0 13 C-0.33 13 -0.66 13 -1 13 C-1.02696365 11.20841511 -1.04637917 9.41671527 -1.0625 7.625 C-1.07410156 6.62726563 -1.08570313 5.62953125 -1.09765625 4.6015625 C-1 2 -1 2 0 0 Z " fill="#ECCA4B" transform="translate(307,75)"/>
<path d="M0 0 C0.66 0 1.32 0 2 0 C1.56802365 4.7517398 0.67230705 6.92000054 -3 10 C-3 9.01 -3 8.02 -3 7 C-2.34 7 -1.68 7 -1 7 C-0.67 4.69 -0.34 2.38 0 0 Z " fill="#DD352D" transform="translate(109,120)"/>
<path d="M0 0 C2.4375 0.6875 2.4375 0.6875 5 2 C5.8125 4.625 5.8125 4.625 6 7 C5.01 6.67 4.02 6.34 3 6 C3 4.68 3 3.36 3 2 C2.01 2.33 1.02 2.66 0 3 C0 2.01 0 1.02 0 0 Z " fill="#E35348" transform="translate(66,116)"/>
<path d="M0 0 C-0.5775 0.268125 -1.155 0.53625 -1.75 0.8125 C-4.0325868 2.01719859 -5.9737942 3.40798115 -8 5 C-8.66 4.67 -9.32 4.34 -10 4 C-10 3.34 -10 2.68 -10 2 C-3.375 -1.125 -3.375 -1.125 0 0 Z " fill="#F7D4CF" transform="translate(146,94)"/>
<path d="M0 0 C1.98 0 3.96 0 6 0 C6 0.99 6 1.98 6 3 C4.02 3.33 2.04 3.66 0 4 C0 2.68 0 1.36 0 0 Z " fill="#F5E276" transform="translate(371,83)"/>
<path d="M0 0 C2.64 0 5.28 0 8 0 C8 0.66 8 1.32 8 2 C8.99 2.33 9.98 2.66 11 3 C7.75 3.75 7.75 3.75 4 4 C1.5625 2.0625 1.5625 2.0625 0 0 Z " fill="#E3BD37" transform="translate(425,75)"/>
<path d="M0 0 C1.65 0 3.3 0 5 0 C4.67 1.65 4.34 3.3 4 5 C2.68 5 1.36 5 0 5 C0.99 4.01 1.98 3.02 3 2 C2.01 1.34 1.02 0.68 0 0 Z " fill="#DDB521" transform="translate(370,92)"/>
<path d="M0 0 C0.33 0.99 0.66 1.98 1 3 C-0.65 3.33 -2.3 3.66 -4 4 C-4.66 3.01 -5.32 2.02 -6 1 C-3.92446352 0.4465236 -2.15634036 0 0 0 Z " fill="#EED46B" transform="translate(435,100)"/>
<path d="M0 0 C2.31 0 4.62 0 7 0 C6.67 0.99 6.34 1.98 6 3 C4.35 3 2.7 3 1 3 C0.67 2.01 0.34 1.02 0 0 Z " fill="#D8B015" transform="translate(384,94)"/>
</svg>
