<?xml version="1.0" encoding="UTF-8"?>
<svg version="1.1" xmlns="http://www.w3.org/2000/svg" width="500" height="150">
<path d="M0 0 C165 0 330 0 500 0 C500 49.5 500 99 500 150 C335 150 170 150 0 150 C0 100.5 0 51 0 0 Z " fill="#FEFDFD" transform="translate(0,0)"/>
<path d="M0 0 C1.14072968 0.00007553 2.28145935 0.00015106 3.45675659 0.00022888 C4.6725943 0.00539017 5.88843201 0.01055145 7.14111328 0.01586914 C8.39779816 0.01728409 9.65448303 0.01869904 10.94924927 0.02015686 C14.27334518 0.02479465 17.5973712 0.03376359 20.92144775 0.04486084 C24.32018432 0.05513138 27.71892814 0.05966652 31.11767578 0.06469727 C37.77394495 0.0757084 44.43018133 0.09243317 51.08642578 0.11352539 C52.33552614 3.81092388 53.58046748 7.50969534 54.82177734 11.2097168 C55.44952701 13.07811064 56.0804461 14.94543864 56.71142578 16.81274414 C58.74458253 22.87942153 60.62320521 28.88583457 62.08642578 35.11352539 C62.55933295 36.69145542 63.04986472 38.26434084 63.56689453 39.82836914 C63.84073975 40.66803223 64.11458496 41.50769531 64.39672852 42.37280273 C64.68620361 43.25661621 64.97567871 44.14042969 65.27392578 45.05102539 C69.23768642 57.30534333 72.69323345 69.69104357 76.08642578 82.11352539 C76.35362427 81.30866699 76.35362427 81.30866699 76.6262207 80.48754883 C77.97016381 76.4465711 79.32380043 72.40936499 80.69970703 68.37915039 C84.05105814 58.51335319 87.15007575 48.62067152 89.95239258 38.58496094 C91.74722161 32.1913717 93.77224522 25.92085633 95.92236328 19.63696289 C97.53764869 14.74774329 98.92119086 9.80710286 100.28955078 4.84399414 C101.08642578 2.11352539 101.08642578 2.11352539 102.08642578 0.11352539 C110.99642578 0.11352539 119.90642578 0.11352539 129.08642578 0.11352539 C138.69459366 28.65121805 138.69459366 28.65121805 142.42675781 41.79614258 C147.55394449 62.38939186 147.55394449 62.38939186 155.08642578 82.11352539 C155.26181885 81.5017041 155.43721191 80.88988281 155.61791992 80.25952148 C159.11329905 68.09646268 162.7152243 55.98215754 166.59375 43.93554688 C168.82905142 36.9762916 170.92210337 29.98383396 172.96142578 22.96508789 C175.18989752 15.29991356 177.56218698 7.68624179 180.08642578 0.11352539 C188.99642578 0.11352539 197.90642578 0.11352539 207.08642578 0.11352539 C211.59027974 10.24719679 211.59027974 10.24719679 213.23486328 14.46118164 C213.59717041 15.38761475 213.95947754 16.31404785 214.33276367 17.26855469 C214.70522217 18.22802002 215.07768066 19.18748535 215.46142578 20.17602539 C216.05395142 21.69546753 216.05395142 21.69546753 216.65844727 23.24560547 C219.10641238 29.53944604 221.50241143 35.8503003 223.84545898 42.18383789 C225.84564022 47.5561857 227.99442581 52.86402546 230.14892578 58.17602539 C232.57477092 64.16278076 234.85311252 70.15291157 236.83642578 76.30102539 C238.32336186 80.90509324 239.95787542 85.26541343 242.00048828 89.64477539 C243.72209011 93.55863278 245.16812685 97.57566235 246.65112305 101.58422852 C248.99120332 107.89912859 251.43251603 114.17220555 253.90209961 120.4375 C256.08642578 126.00787121 256.08642578 126.00787121 256.08642578 127.11352539 C231.33642578 127.11352539 206.58642578 127.11352539 181.08642578 127.11352539 C183.08642578 118.11352539 183.08642578 118.11352539 187.08642578 105.11352539 C197.97642578 105.11352539 208.86642578 105.11352539 220.08642578 105.11352539 C217.79131631 97.25242537 217.79131631 97.25242537 214.89892578 89.80102539 C211.40449673 81.61945797 208.31418086 73.28759283 205.16992188 64.96704102 C204.05387127 62.02778921 202.9253378 59.09358992 201.79345703 56.16040039 C201.42389893 55.19996826 201.05434082 54.23953613 200.67358398 53.25 C199.95972643 51.39570169 199.24349263 49.54231607 198.5246582 47.68994141 C198.204729 46.85648193 197.8847998 46.02302246 197.55517578 45.16430664 C197.2709375 44.42865479 196.98669922 43.69300293 196.69384766 42.93505859 C196.08642578 41.11352539 196.08642578 41.11352539 196.08642578 39.11352539 C195.42642578 39.11352539 194.76642578 39.11352539 194.08642578 39.11352539 C194.00392578 40.00040039 193.92142578 40.88727539 193.83642578 41.80102539 C193.33058159 45.35930088 192.35495502 48.66106769 191.27392578 52.08618164 C189.89002143 56.51820658 188.53147629 60.95431229 187.22705078 65.41040039 C182.99994027 79.8415694 178.5524199 94.18412078 173.92773438 108.49243164 C172.50208171 112.93404714 171.13386386 117.39236151 169.77783203 121.85571289 C169.23875762 123.61608016 168.6686194 125.36694452 168.08642578 127.11352539 C159.17642578 127.11352539 150.26642578 127.11352539 141.08642578 127.11352539 C136.26499721 112.91709682 136.26499721 112.91709682 134.27392578 105.80102539 C131.44414229 95.69790282 128.28682686 85.69364691 125.18603516 75.67114258 C123.31329503 69.61217964 121.45039242 63.55019188 119.58642578 57.48852539 C118.90938622 55.28799109 118.23230703 53.08746898 117.55517578 50.88696289 C117.06559245 49.29581706 116.57600911 47.70467122 116.08642578 46.11352539 C114.42477169 48.60600652 113.62171384 50.16821316 112.75439453 52.92993164 C112.39655884 54.06241333 112.39655884 54.06241333 112.03149414 55.21777344 C111.6564978 56.43460815 111.6564978 56.43460815 111.27392578 57.67602539 C111.01039307 58.52011963 110.74686035 59.36421387 110.4753418 60.23388672 C108.49271543 66.64503534 106.67363473 73.09388853 104.90478516 79.56665039 C102.82559873 87.14412982 100.48215311 94.631325 98.08642578 102.11352539 C97.38848112 104.29971437 96.69056685 106.48591305 95.99267578 108.67211914 C94.02901575 114.82090082 92.05731018 120.96703846 90.08642578 127.11352539 C81.17642578 127.11352539 72.26642578 127.11352539 63.08642578 127.11352539 C59.71227612 116.99107641 59.71227612 116.99107641 58.32470703 112.46118164 C58.0146875 111.45112061 57.70466797 110.44105957 57.38525391 109.40039062 C57.05976563 108.3363501 56.73427734 107.27230957 56.39892578 106.17602539 C56.05152344 105.04430908 55.70412109 103.91259277 55.34619141 102.74658203 C53.91665593 98.08932287 52.48954696 93.43132524 51.06445312 88.77270508 C47.39507599 76.77852959 43.68352822 64.80203414 39.83642578 52.86352539 C32.87061902 31.22616601 32.87061902 31.22616601 31.08642578 22.11352539 C26.53250943 22.15796132 21.97994259 22.22808367 17.42675781 22.32104492 C15.88096921 22.34910326 14.33504117 22.37039246 12.7890625 22.38452148 C-0.56513753 22.38567164 -0.56513753 22.38567164 -11.91357422 28.92602539 C-13.48440358 32.36221461 -13.53911205 34.36029839 -12.91357422 38.11352539 C-8.97928023 45.72287694 -1.39107394 48.65500605 5.94970703 52.11743164 C17.46214645 57.571533 31.59510645 64.8718609 37.27392578 76.73852539 C40.76232507 86.68363463 40.60426727 98.49819483 36.08642578 108.11352539 C29.86874109 118.72813975 20.03271415 125.73963421 8.35986328 129.22680664 C3.8051912 130.30046881 -0.62189348 130.49682007 -5.28857422 130.48852539 C-6.14765381 130.48836426 -7.0067334 130.48820313 -7.8918457 130.48803711 C-17.2457494 130.32530094 -28.97590443 129.40530525 -36.91357422 124.11352539 C-36.24690755 116.11352539 -35.58024089 108.11352539 -34.91357422 100.11352539 C-30.06070354 101.6874294 -25.28152261 103.43634567 -20.49951172 105.21118164 C-15.83042068 106.8404264 -11.62041429 107.35474872 -6.66357422 107.67602539 C-4.76865234 107.80170898 -4.76865234 107.80170898 -2.83544922 107.92993164 C-1.87123047 107.99051758 -0.90701172 108.05110352 0.08642578 108.11352539 C0.08642578 107.45352539 0.08642578 106.79352539 0.08642578 106.11352539 C0.71291016 105.9549707 1.33939453 105.79641602 1.98486328 105.63305664 C7.18207672 104.34631898 7.18207672 104.34631898 10.58642578 100.55102539 C10.75142578 99.74665039 10.91642578 98.94227539 11.08642578 98.11352539 C11.41642578 97.45352539 11.74642578 96.79352539 12.08642578 96.11352539 C12.39921734 93.87955159 12.39921734 93.87955159 12.46142578 91.36352539 C12.51041016 90.52305664 12.55939453 89.68258789 12.60986328 88.81665039 C11.85835771 84.93574102 10.03829752 82.6038287 7.08642578 80.11352539 C3.82779271 78.19128584 0.42653298 76.68640985 -3.03857422 75.17602539 C-10.76070076 71.65430176 -18.03528342 68.1351761 -24.91357422 63.11352539 C-25.58388672 62.6249707 -26.25419922 62.13641602 -26.94482422 61.63305664 C-33.13270383 56.74305855 -36.78653089 50.68052908 -38.91357422 43.11352539 C-39.87393244 33.28544385 -38.95721051 24.05826763 -33.16357422 15.86352539 C-24.5242937 5.36542657 -13.70011764 -0.03044471 0 0 Z " fill="#C33235" transform="translate(141.91357421875,9.886474609375)"/>
<path d="M0 0 C1.89023797 2.83535695 2.81022496 5.05721888 3.875 8.26171875 C4.22046875 9.29876953 4.5659375 10.33582031 4.921875 11.40429688 C5.27765625 12.48775391 5.6334375 13.57121094 6 14.6875 C6.35578125 15.75162109 6.7115625 16.81574219 7.078125 17.91210938 C8.52955948 22.29619971 9.97076195 26.65634678 11.05078125 31.1484375 C12.20408718 35.82810683 13.68804917 40.35943834 15.1875 44.9375 C19.15126064 57.19181794 22.60680766 69.57751818 26 82 C26.26719849 81.1951416 26.26719849 81.1951416 26.53979492 80.37402344 C27.88373803 76.33304571 29.23737465 72.2958396 30.61328125 68.265625 C33.96463236 58.3998278 37.06364997 48.50714613 39.8659668 38.47143555 C41.66000393 32.08066724 43.6848388 25.81300397 45.83203125 19.53125 C47.74690576 13.74179664 49.37885542 7.87778118 51 2 C51.495 3.98 51.495 3.98 52 6 C52.66 6 53.32 6 54 6 C55.35439668 8.70879335 55.06501451 11.00933268 55 14 C55.66 14 56.32 14 57 14 C57.99 19.445 57.99 19.445 59 25 C59.66 25 60.32 25 61 25 C61.12117188 25.66386719 61.24234375 26.32773437 61.3671875 27.01171875 C62.22547708 31.53424459 63.03971311 35.79938524 65 40 C66.32 39.34 67.64 38.68 69 38 C68.67 40.31 68.34 42.62 68 45 C66.515 45.495 66.515 45.495 65 46 C64.01047761 47.90016425 64.01047761 47.90016425 63.3515625 50.27734375 C63.07103027 51.17437012 62.79049805 52.07139648 62.50146484 52.99560547 C62.06761475 54.45184326 62.06761475 54.45184326 61.625 55.9375 C61.31900879 56.93152832 61.01301758 57.92555664 60.69775391 58.94970703 C58.60611638 65.80313435 56.65113469 72.69190869 54.76733398 79.60498047 C52.71223928 87.13390989 50.3794819 94.56853641 48 102 C47.30205533 104.18618898 46.60414107 106.37238766 45.90625 108.55859375 C43.94258997 114.70737543 41.97088439 120.85351307 40 127 C31.09 127 22.18 127 13 127 C9.62585034 116.87755102 9.62585034 116.87755102 8.23828125 112.34765625 C7.92826172 111.33759521 7.61824219 110.32753418 7.29882812 109.28686523 C6.97333984 108.22282471 6.64785156 107.15878418 6.3125 106.0625 C5.96509766 104.93078369 5.61769531 103.79906738 5.25976562 102.63305664 C3.83023015 97.97579748 2.40312117 93.31779985 0.97802734 88.65917969 C-2.69134979 76.6650042 -6.40289756 64.68850875 -10.25 52.75 C-17.11459391 31.42703046 -17.11459391 31.42703046 -19 22 C-28.57 22 -38.14 22 -48 22 C-48 21.67 -48 21.34 -48 21 C-37.77 21 -27.54 21 -17 21 C-17 20.34 -17 19.68 -17 19 C-15.4609375 17.51953125 -15.4609375 17.51953125 -13.375 15.8125 C-9.91601089 12.8983782 -7.07320295 9.86907548 -4.32421875 6.28515625 C-3 5 -3 5 0 5 C0 3.35 0 1.7 0 0 Z " fill="#C73F35" transform="translate(192,10)"/>
<path d="M0 0 C8.58 0 17.16 0 26 0 C24.875 6.75 24.875 6.75 24.02734375 10.0859375 C23.85009766 10.78847656 23.67285156 11.49101562 23.49023438 12.21484375 C23.30783203 12.92769531 23.12542969 13.64054687 22.9375 14.375 C22.75123047 15.11105469 22.56496094 15.84710938 22.37304688 16.60546875 C21.91752543 18.40419444 21.4590645 20.20217529 21 22 C20.34 22 19.68 22 19 22 C18.896875 23.11375 18.79375 24.2275 18.6875 25.375 C17.98468271 30.99753829 17.10560594 37.89439406 13 42 C10.36536213 36.15439723 8.43868519 31.45512034 9 25 C8.34 25 7.68 25 7 25 C5.80712589 21.12315913 5 18.08378077 5 14 C4.34 14 3.68 14 3 14 C2.67 11.36 2.34 8.72 2 6 C1.34 6 0.68 6 0 6 C0 4.02 0 2.04 0 0 Z " fill="#A8262B" transform="translate(244,10)"/>
<path d="M0 0 C8.58 0 17.16 0 26 0 C26.66 2.97 27.32 5.94 28 9 C27.01 9.33 26.02 9.66 25 10 C24.6278958 11.32303717 24.29369827 12.65737935 24 14 C23.01 14.495 23.01 14.495 22 15 C21.41629557 17.22975091 20.93213543 19.48598609 20.5 21.75 C19.66825415 26.07146213 18.72147576 29.95239791 17 34 C16.63128912 35.65919896 16.28718326 37.3247643 16 39 C13.53220481 36.79353152 12.32881519 34.86382795 11.1328125 31.7890625 C10.64361328 30.54854126 10.64361328 30.54854126 10.14453125 29.28295898 C9.63986328 27.96726929 9.63986328 27.96726929 9.125 26.625 C8.77566406 25.73047119 8.42632812 24.83594238 8.06640625 23.91430664 C7.36546799 22.1165358 6.66782832 20.31747508 5.97363281 18.51708984 C5.11764993 16.30415517 4.24723635 14.09797431 3.3671875 11.89453125 C0 3.38035714 0 3.38035714 0 0 Z " fill="#A2242A" transform="translate(323,10)"/>
<path d="M0 0 C8.25 0 16.5 0 25 0 C25 1.65 25 3.3 25 5 C22.82421875 6.45703125 22.82421875 6.45703125 20 8 C18.21792982 9.84619264 16.4901314 11.74591449 14.8125 13.6875 C13.24921996 15.49452985 11.6540606 17.27567842 10 19 C9.34 19 8.68 19 8 19 C8 19.66 8 20.32 8 21 C6.68 20.67 5.36 20.34 4 20 C3.32749476 17.41806023 2.66182099 14.83467929 2 12.25 C1.71382812 11.15558594 1.71382812 11.15558594 1.421875 10.0390625 C0.53484036 6.55428354 0 3.61876278 0 0 Z " fill="#A7272D" transform="translate(167,10)"/>
<path d="M0 0 C4.85287068 1.573904 9.63205161 3.32282028 14.4140625 5.09765625 C19.44838962 6.85434744 23.93135396 7.12357986 29.25 7.0625 C30.36761719 7.05573242 30.36761719 7.05573242 31.5078125 7.04882812 C33.3385764 7.03709246 35.16929873 7.0191585 37 7 C37.495 8.485 37.495 8.485 38 10 C34.22918278 10.02899599 30.45839417 10.04679729 26.6875 10.0625 C25.0797168 10.07506836 25.0797168 10.07506836 23.43945312 10.08789062 C21.89741211 10.09272461 21.89741211 10.09272461 20.32421875 10.09765625 C18.9024231 10.10551147 18.9024231 10.10551147 17.4519043 10.11352539 C15 10 15 10 12 9 C11.01 9.33 10.02 9.66 9 10 C8.34 9.67 7.68 9.34 7 9 C5.61470179 14.45461169 4.7603057 19.36718401 5 25 C2.69 24.67 0.38 24.34 -2 24 C-1.33333333 16 -0.66666667 8 0 0 Z " fill="#B83045" transform="translate(107,110)"/>
<path d="M0 0 C1.01938156 0.00212242 1.01938156 0.00212242 2.05935669 0.00428772 C4.20888862 0.00984107 6.35831258 0.02238456 8.5078125 0.03515625 C9.97395682 0.04017729 11.44010279 0.04473914 12.90625 0.04882812 C16.48180533 0.05979514 20.05729836 0.07702706 23.6328125 0.09765625 C23.6328125 2.07765625 23.6328125 4.05765625 23.6328125 6.09765625 C19.54949411 6.12669517 15.4662023 6.14446814 11.3828125 6.16015625 C9.64451172 6.17272461 9.64451172 6.17272461 7.87109375 6.18554688 C6.75605469 6.18876953 5.64101562 6.19199219 4.4921875 6.1953125 C2.95256348 6.20316772 2.95256348 6.20316772 1.38183594 6.21118164 C-1.06236878 6.11024423 -3.02460267 5.73342115 -5.3671875 5.09765625 C-8.75049486 4.97462689 -11.79630368 4.98088456 -15.1171875 5.66015625 C-17.3671875 6.09765625 -17.3671875 6.09765625 -20.3671875 5.09765625 C-13.48615744 0.83141761 -8.16747277 -0.03374989 0 0 Z " fill="#D1523A" transform="translate(143.3671875,9.90234375)"/>
<path d="M0 0 C2.20606904 2.20606904 2.57955577 3.38048851 3.4375 6.32421875 C3.69273437 7.18853516 3.94796875 8.05285156 4.2109375 8.94335938 C4.47132813 9.84892578 4.73171875 10.75449219 5 11.6875 C5.26039063 12.57373047 5.52078125 13.45996094 5.7890625 14.37304688 C7.21620999 19.24192632 8.61143461 24.11999377 10 29 C9.01 29 8.02 29 7 29 C6.34 29.33 5.68 29.66 5 30 C5 29.34 5 28.68 5 28 C4.34 28 3.68 28 3 28 C1.85193622 18.58997722 1.85193622 18.58997722 2 14 C1.01 14 0.02 14 -1 14 C-1.99 16.64 -2.98 19.28 -4 22 C-4.9684759 18.12609641 -5.04960955 17.2425692 -4.00390625 13.671875 C-3.66069336 12.47304688 -3.66069336 12.47304688 -3.31054688 11.25 C-3.06369141 10.425 -2.81683594 9.6 -2.5625 8.75 C-2.31951172 7.90953125 -2.07652344 7.0690625 -1.82617188 6.203125 C-1.22626051 4.13284266 -0.61429181 2.06606103 0 0 Z " fill="#D13C33" transform="translate(270,10)"/>
<path d="M0 0 C1 3 1 3 0 7 C-10.56 7 -21.12 7 -32 7 C-32.33 5.35 -32.66 3.7 -33 2 C-22.11 2 -11.22 2 0 2 C0 1.34 0 0.68 0 0 Z " fill="#D34A42" transform="translate(362,113)"/>
<path d="M0 0 C0.33 0 0.66 0 1 0 C1.16808419 2.10405391 1.33441948 4.20824758 1.5 6.3125 C1.5928125 7.48425781 1.685625 8.65601563 1.78125 9.86328125 C1.92364989 11.905194 2 13.9531279 2 16 C1.34 16.33 0.68 16.66 0 17 C-0.40729228 19.32156597 -0.74438677 21.6568787 -1 24 C-2.98 24 -4.96 24 -7 24 C-5.70476749 15.60998643 -2.9867484 7.91146331 0 0 Z " fill="#D1443F" transform="translate(318,24)"/>
<path d="M0 0 C0 1.98 0 3.96 0 6 C-4.08331839 6.02903892 -8.1666102 6.04681189 -12.25 6.0625 C-13.98830078 6.07506836 -13.98830078 6.07506836 -15.76171875 6.08789062 C-16.87675781 6.09111328 -17.99179688 6.09433594 -19.140625 6.09765625 C-20.68024902 6.10551147 -20.68024902 6.10551147 -22.25097656 6.11352539 C-24.68933344 6.01282948 -26.66662432 5.65498265 -29 5 C-30.58211573 4.93451508 -32.16670081 4.91421619 -33.75 4.9375 C-34.94882813 4.95103516 -34.94882813 4.95103516 -36.171875 4.96484375 C-37.07679688 4.98224609 -37.07679688 4.98224609 -38 5 C-37.67 4.34 -37.34 3.68 -37 3 C-27.1 3 -17.2 3 -7 3 C-7 2.34 -7 1.68 -7 1 C-1.125 0 -1.125 0 0 0 Z M-40 5 C-38 6 -38 6 -38 6 Z " fill="#D0492F" transform="translate(167,10)"/>
<path d="M0 0 C0.33 0 0.66 0 1 0 C1 1.65 1 3.3 1 5 C1.66 5 2.32 5 3 5 C3.33 9.95 3.66 14.9 4 20 C1.69 19.67 -0.62 19.34 -3 19 C-2.58955515 12.42208127 -2.13391403 6.25948114 0 0 Z " fill="#B32138" transform="translate(108,115)"/>
<path d="M0 0 C2.08326131 -0.02709444 4.16662441 -0.04643873 6.25 -0.0625 C7.41015625 -0.07410156 8.5703125 -0.08570313 9.765625 -0.09765625 C12.43748151 -0.01698425 14.45558572 0.32714378 17 1 C17.94875 0.835 18.8975 0.67 19.875 0.5 C23.21529171 -0.03444667 25.71323933 0.29569414 29 1 C23.6967252 4.53551654 19.15151346 4.18316795 13 4.1875 C11.62714844 4.20586914 11.62714844 4.20586914 10.2265625 4.22460938 C8.90785156 4.22750977 8.90785156 4.22750977 7.5625 4.23046875 C6.75941406 4.23457764 5.95632812 4.23868652 5.12890625 4.24291992 C3 4 3 4 0 2 C0 1.34 0 0.68 0 0 Z " fill="#B62F47" transform="translate(123,136)"/>
<path d="M0 0 C0.66 0 1.32 0 2 0 C2.99 3.3 3.98 6.6 5 10 C6.32 10 7.64 10 9 10 C9 15.94 9 21.88 9 28 C6.39027227 25.39027227 6.03926731 23.17902082 5.0625 19.625 C4.71832031 18.3771875 4.37414062 17.129375 4.01953125 15.84375 C2.62233257 10.57615039 1.2806226 5.29712076 0 0 Z " fill="#BA2937" transform="translate(271,96)"/>
<path d="M0 0 C2.73902249 2.36551942 3.93170092 4.54857221 5 8 C5.125 10.8125 5.125 10.8125 5 13 C3.02 13.33 1.04 13.66 -1 14 C-2.29456734 11.41086532 -1.93282201 9.86191275 -1.625 7 C-1.53476562 6.113125 -1.44453125 5.22625 -1.3515625 4.3125 C-1 2 -1 2 0 0 Z " fill="#B62C45" transform="translate(354,26)"/>
<path d="M0 0 C2.07217485 3.10826228 3.28425355 6.01876359 4.625 9.5 C5.07101562 10.6446875 5.51703125 11.789375 5.9765625 12.96875 C7 16 7 16 7 19 C6.34 19 5.68 19 5 19 C4.34 17.35 3.68 15.7 3 14 C2.01 14.99 1.02 15.98 0 17 C-0.33 13.7 -0.66 10.4 -1 7 C-0.34 7 0.32 7 1 7 C0.34 6.01 -0.32 5.02 -1 4 C-0.625 1.8125 -0.625 1.8125 0 0 Z " fill="#D33F38" transform="translate(386,107)"/>
<path d="M0 0 C1.89435556 3.28354963 2.69136965 6.21927824 3 10 C2.0625 12.875 2.0625 12.875 1 15 C0.01 15 -0.98 15 -2 15 C-3.29243536 10.8803623 -4.26252625 7.33168317 -4 3 C-3.01 3.33 -2.02 3.66 -1 4 C-0.67 2.68 -0.34 1.36 0 0 Z " fill="#B92C40" transform="translate(285,122)"/>
<path d="M0 0 C0.66 0.33 1.32 0.66 2 1 C3.09889421 6.40289652 3.20409437 9.81389561 1 15 C0.01 14.67 -0.98 14.34 -2 14 C-2.84098656 9.98195309 -3.05404945 6.98196457 -2 3 C-1.34 3 -0.68 3 0 3 C0 2.01 0 1.02 0 0 Z " fill="#CA3A39" transform="translate(331,52)"/>
<path d="M0 0 C2.24666134 3.36999202 2.2457371 4.56105462 2.1875 8.5 C2.17783203 9.93859375 2.17783203 9.93859375 2.16796875 11.40625 C2 14 2 14 1 17 C-1.5625 18.1875 -1.5625 18.1875 -4 19 C-4 17.35 -4 15.7 -4 14 C-3.01 13.67 -2.02 13.34 -1 13 C-1.309375 11.1746875 -1.309375 11.1746875 -1.625 9.3125 C-2.09963844 5.65193227 -1.76581384 3.32388488 0 0 Z " fill="#BD3639" transform="translate(238,31)"/>
<path d="M0 0 C8.58 0 17.16 0 26 0 C26 0.33 26 0.66 26 1 C21.5621439 2.11165232 17.23043614 2.11527763 12.6875 2.0625 C11.94693359 2.05798828 11.20636719 2.05347656 10.44335938 2.04882812 C8.62887101 2.03712175 6.81442466 2.01918898 5 2 C4.67 2.66 4.34 3.32 4 4 C3.01 4.66 2.02 5.32 1 6 C0.67 4.02 0.34 2.04 0 0 Z " fill="#A62F32" transform="translate(323,10)"/>
<path d="M0 0 C1.859375 0.12890625 1.859375 0.12890625 4 1 C5.265625 3.65234375 5.265625 3.65234375 6.25 6.9375 C6.58515625 8.01902344 6.9203125 9.10054687 7.265625 10.21484375 C8 13 8 13 8 15 C7.34 15 6.68 15 6 15 C6 14.34 6 13.68 6 13 C5.01 13 4.02 13 3 13 C1.37817264 9.45225265 0.89800979 6.87562808 1 3 C0.67 2.01 0.34 1.02 0 0 Z " fill="#CE4141" transform="translate(280,51)"/>
<path d="M0 0 C2.64 0 5.28 0 8 0 C7.34 2.97 6.68 5.94 6 9 C5.01 9 4.02 9 3 9 C0.87491756 5.81237635 0.4979837 3.73487777 0 0 Z " fill="#BD3538" transform="translate(176,40)"/>
<path d="M0 0 C3.63 0 7.26 0 11 0 C9.77974937 3.6607519 8.873509 3.92339441 5.5625 5.6875 C4.35787109 6.34298828 4.35787109 6.34298828 3.12890625 7.01171875 C1 8 1 8 -1 8 C-1 7.34 -1 6.68 -1 6 C-0.34 6 0.32 6 1 6 C0.67 4.02 0.34 2.04 0 0 Z " fill="#B32842" transform="translate(157,128)"/>
<path d="M0 0 C1.38971011 2.77942022 0.58597169 4.07038614 -0.3125 7 C-0.57675781 7.886875 -0.84101563 8.77375 -1.11328125 9.6875 C-2 12 -2 12 -4 14 C-4.66 12.35 -5.32 10.7 -6 9 C-6.66 9 -7.32 9 -8 9 C-7.67 7.02 -7.34 5.04 -7 3 C-6.34 3.33 -5.68 3.66 -5 4 C-5 4.66 -5 5.32 -5 6 C-4.01 6 -3.02 6 -2 6 C-1.855625 5.195625 -1.71125 4.39125 -1.5625 3.5625 C-1 1 -1 1 0 0 Z " fill="#D1513D" transform="translate(240,106)"/>
<path d="M0 0 C0.33 0.66 0.66 1.32 1 2 C0.67 2.66 0.34 3.32 0 4 C0.66 4 1.32 4 2 4 C2 4.66 2 5.32 2 6 C1.34 6 0.68 6 0 6 C-0.99 9.3 -1.98 12.6 -3 16 C-3.33 15.34 -3.66 14.68 -4 14 C-4.66 14 -5.32 14 -6 14 C-4.83311977 8.36007889 -3.45387201 4.60516269 0 0 Z " fill="#CE4C3E" transform="translate(110,24)"/>
<path d="M0 0 C0.66 1.32 1.32 2.64 2 4 C1.175 4.763125 0.35 5.52625 -0.5 6.3125 C-3.34055197 8.75434142 -3.34055197 8.75434142 -3 12 C-5.31 11.67 -7.62 11.34 -10 11 C-10.33 10.01 -10.66 9.02 -11 8 C-10.37351563 7.84144531 -9.74703125 7.68289062 -9.1015625 7.51953125 C-3.84375314 6.2094023 -3.84375314 6.2094023 -0.4375 2.3125 C-0.293125 1.549375 -0.14875 0.78625 0 0 Z " fill="#BD3F52" transform="translate(153,108)"/>
<path d="M0 0 C0.99 0 1.98 0 3 0 C3.12375 0.94875 3.2475 1.8975 3.375 2.875 C3.71687177 6.08667191 3.71687177 6.08667191 6 8 C5.7578125 9.9453125 5.7578125 9.9453125 5.125 12.125 C4.92132813 12.84945312 4.71765625 13.57390625 4.5078125 14.3203125 C4.34023437 14.87460938 4.17265625 15.42890625 4 16 C2.41839705 13.03017788 1.29656358 10.09120779 0.3125 6.875 C0.04050781 6.00617188 -0.23148438 5.13734375 -0.51171875 4.2421875 C-1 2 -1 2 0 0 Z " fill="#CC4C3A" transform="translate(194,96)"/>
<path d="M0 0 C8.25 0 16.5 0 25 0 C25.33 0.99 25.66 1.98 26 3 C22.22931168 3.086985 18.45888068 3.14038579 14.6875 3.1875 C13.61564453 3.21263672 12.54378906 3.23777344 11.43945312 3.26367188 C10.41142578 3.27333984 9.38339844 3.28300781 8.32421875 3.29296875 C7.37635498 3.3086792 6.42849121 3.32438965 5.4519043 3.34057617 C3 3 3 3 0 0 Z " fill="#B5293E" transform="translate(119,117)"/>
<path d="M0 0 C0.66 0 1.32 0 2 0 C2 4 2 8 2 12 C1.01 11.67 0.02 11.34 -1 11 C-1 10.01 -1 9.02 -1 8 C-1.99 8 -2.98 8 -4 8 C-4.33 6.35 -4.66 4.7 -5 3 C-4.01 3 -3.02 3 -2 3 C-1.67 3.66 -1.34 4.32 -1 5 C-0.67 3.35 -0.34 1.7 0 0 Z " fill="#D03837" transform="translate(365,104)"/>
<path d="M0 0 C1.485 0.99 1.485 0.99 3 2 C3.27668225 4.59426798 3.37295242 6.91263646 3.3125 9.5 C3.31572266 10.18964844 3.31894531 10.87929687 3.32226562 11.58984375 C3.26712592 16.73287408 3.26712592 16.73287408 1 19 C0.15976812 14.64667264 -0.10770995 10.55557481 -0.0625 6.125 C-0.05347656 4.97257812 -0.04445312 3.82015625 -0.03515625 2.6328125 C-0.02355469 1.76398438 -0.01195312 0.89515625 0 0 Z " fill="#BC3A48" transform="translate(178,91)"/>
<path d="M0 0 C0.66 0 1.32 0 2 0 C5.57142857 7.28571429 5.57142857 7.28571429 4 12 C3.67 12 3.34 12 3 12 C2.67 14.31 2.34 16.62 2 19 C1.34 19 0.68 19 0 19 C0 12.73 0 6.46 0 0 Z " fill="#B93B43" transform="translate(154,89)"/>
<path d="M0 0 C0.88075459 3.52301835 1.28829689 6.64618768 1.5625 10.25 C1.64628906 11.32765625 1.73007813 12.4053125 1.81640625 13.515625 C1.87699219 14.33546875 1.93757812 15.1553125 2 16 C0.02 16 -1.96 16 -4 16 C-2.68 10.72 -1.36 5.44 0 0 Z " fill="#CE5144" transform="translate(222,80)"/>
<path d="M0 0 C3.375 4.5 3.375 4.5 4 8 C3.01 8.33 2.02 8.66 1 9 C1.66 10.98 2.32 12.96 3 15 C1.68 15.33 0.36 15.66 -1 16 C-1.33 14.68 -1.66 13.36 -2 12 C-1.34 12 -0.68 12 0 12 C0 8.04 0 4.08 0 0 Z " fill="#BB2938" transform="translate(156,96)"/>
<path d="M0 0 C1.26229508 4.47540984 1.26229508 4.47540984 0 7 C-0.66 7 -1.32 7 -2 7 C-2.33 7.66 -2.66 8.32 -3 9 C-3.99 6.03 -4.98 3.06 -6 0 C-2 -1 -2 -1 0 0 Z " fill="#BD313E" transform="translate(350,65)"/>
<path d="M0 0 C2 1 2 1 3 3 C3.66 3 4.32 3 5 3 C5.33 5.31 5.66 7.62 6 10 C4.68388323 9.04663979 3.37221039 8.08714226 2.0625 7.125 C1.33160156 6.59132813 0.60070312 6.05765625 -0.15234375 5.5078125 C-2 4 -2 4 -3 2 C-2.01 1.34 -1.02 0.68 0 0 Z " fill="#C34543" transform="translate(113,64)"/>
<path d="M0 0 C2.90349865 1.70970478 3.89021838 2.6940042 5.046875 5.91796875 C5.27890625 6.99691406 5.5109375 8.07585938 5.75 9.1875 C5.99234375 10.27417969 6.2346875 11.36085938 6.484375 12.48046875 C6.73960937 13.72763672 6.73960937 13.72763672 7 15 C3.40626177 11.61416398 1.67385149 8.68678417 0 4 C0 2.68 0 1.36 0 0 Z " fill="#C65050" transform="translate(202,48)"/>
<path d="M0 0 C1.5 1.125 1.5 1.125 3 3 C3.3125 6.0625 3.3125 6.0625 3 9 C2.34 9.66 1.68 10.32 1 11 C0.67 10.34 0.34 9.68 0 9 C-0.99 9.495 -0.99 9.495 -2 10 C-2 7.03 -2 4.06 -2 1 C-1.34 0.67 -0.68 0.34 0 0 Z " fill="#B92C3E" transform="translate(362,47)"/>
<path d="M0 0 C1 3 1 3 0.25 5.125 C-1 7 -1 7 -4 8 C-5.32 7.67 -6.64 7.34 -8 7 C-5.36 4.69 -2.72 2.38 0 0 Z " fill="#CF5341" transform="translate(119,16)"/>
<path d="M0 0 C1.4783226 2.95664519 1.06032783 5.74229737 1 9 C-0.98 9 -2.96 9 -5 9 C-4.01 8.34 -3.02 7.68 -2 7 C-2.66 5.02 -3.32 3.04 -4 1 C-2 0 -2 0 0 0 Z " fill="#B4253B" transform="translate(309,128)"/>
<path d="M0 0 C0.66 0 1.32 0 2 0 C2.72450004 2.09865508 3.42913792 4.20417615 4.125 6.3125 C4.51945312 7.48425781 4.91390625 8.65601562 5.3203125 9.86328125 C5.54460937 10.89839844 5.76890625 11.93351562 6 13 C5.01 14.485 5.01 14.485 4 16 C2.68 10.72 1.36 5.44 0 0 Z " fill="#C1404F" transform="translate(271,96)"/>
<path d="M0 0 C1.32 0 2.64 0 4 0 C3.65120368 3.25543229 2.97866739 4.01873107 0.4375 6.25 C-0.366875 6.8275 -1.17125 7.405 -2 8 C-2 2 -2 2 0 0 Z " fill="#B22D42" transform="translate(171,120)"/>
<path d="M0 0 C0.33 2.31 0.66 4.62 1 7 C0.01 7.33 -0.98 7.66 -2 8 C-2.73323796 10.01508358 -2.73323796 10.01508358 -3 12 C-3.66 12 -4.32 12 -5 12 C-4.67 9.36 -4.34 6.72 -4 4 C-3.34 4 -2.68 4 -2 4 C-2.33 3.01 -2.66 2.02 -3 1 C-1 0 -1 0 0 0 Z " fill="#B3223A" transform="translate(350,12)"/>
<path d="M0 0 C2.26162017 2.45008851 2.98364648 3.60751544 3.125 7 C3.08375 7.99 3.0425 8.98 3 10 C3.43941523 12.26566343 3.43941523 12.26566343 4 14 C2.68 14 1.36 14 0 14 C0.33 11.36 0.66 8.72 1 6 C0.34 5.67 -0.32 5.34 -1 5 C-0.67 3.35 -0.34 1.7 0 0 Z " fill="#BE2B33" transform="translate(369,66)"/>
<path d="M0 0 C1.83836919 3.67673838 2.93651813 7.04992447 4 11 C3.01 11 2.02 11 1 11 C0.01 11.495 0.01 11.495 -1 12 C-1 11.34 -1 10.68 -1 10 C-1.66 9.67 -2.32 9.34 -3 9 C-2.34 9 -1.68 9 -1 9 C-0.67 6.03 -0.34 3.06 0 0 Z " fill="#D3524C" transform="translate(276,28)"/>
<path d="M0 0 C2.97 0.33 5.94 0.66 9 1 C6.37352812 2.75098126 3.71224618 4.38731308 1 6 C0.4465236 3.92446352 0 2.15634036 0 0 Z " fill="#CB4B3D" transform="translate(129,32)"/>
<path d="M0 0 C1.32 0.66 2.64 1.32 4 2 C4 3.65 4 5.3 4 7 C3.01 7 2.02 7 1 7 C0.01 7.495 0.01 7.495 -1 8 C-1.625 5.6875 -1.625 5.6875 -2 3 C-1.34 2.01 -0.68 1.02 0 0 Z " fill="#BC333B" transform="translate(195,28)"/>
<path d="M0 0 C2.6855594 2.6855594 3.06049974 5.37621328 4 9 C2.02 9 0.04 9 -2 9 C-1.34 6.03 -0.68 3.06 0 0 Z " fill="#D54A3F" transform="translate(394,128)"/>
<path d="M0 0 C0.99 0 1.98 0 3 0 C2.814375 0.886875 2.62875 1.77375 2.4375 2.6875 C2.01957516 5.85178811 2.19222258 7.94839642 3 11 C2.34 11 1.68 11 1 11 C-1.03684712 6.92630576 -1.0257259 4.41062136 0 0 Z " fill="#B82C42" transform="translate(340,48)"/>
<path d="M0 0 C0.33 0 0.66 0 1 0 C1.33872513 1.41538717 1.67074624 2.83237963 2 4.25 C2.185625 5.03890625 2.37125 5.8278125 2.5625 6.640625 C3 9 3 9 3 13 C1.68 12.67 0.36 12.34 -1 12 C-0.67 8.04 -0.34 4.08 0 0 Z " fill="#B12B45" transform="translate(106,122)"/>
<path d="M0 0 C0.33 0 0.66 0 1 0 C1.21755666 5.4389165 1.10428384 9.87080814 -1 15 C-1.33 15 -1.66 15 -2 15 C-2.21755666 9.5610835 -2.10428384 5.12919186 0 0 Z " fill="#C94C42" transform="translate(245,83)"/>
<path d="M0 0 C0.66 0.33 1.32 0.66 2 1 C1.49339844 1.79664063 1.49339844 1.79664063 0.9765625 2.609375 C0.30753906 3.66898438 0.30753906 3.66898438 -0.375 4.75 C-0.81585938 5.44609375 -1.25671875 6.1421875 -1.7109375 6.859375 C-2.91880906 8.86517383 -3.98387737 10.89178296 -5 13 C-5.602537 6.97463002 -5.602537 6.97463002 -3.88671875 4.19921875 C-2.65378147 2.74400545 -1.33191067 1.36520843 0 0 Z " fill="#F1C8C0" transform="translate(133,35)"/>
<path d="M0 0 C0.99 0 1.98 0 3 0 C3.66 1.98 4.32 3.96 5 6 C3.35 6.33 1.7 6.66 0 7 C0 4.69 0 2.38 0 0 Z " fill="#FAF5F3" transform="translate(170,33)"/>
<path d="M0 0 C2.29633824 3.44450737 2.54016485 5.93812283 3 10 C1.68 9.67 0.36 9.34 -1 9 C-0.67 6.03 -0.34 3.06 0 0 Z " fill="#CB5046" transform="translate(213,78)"/>
<path d="M0 0 C2.18975773 3.28463659 2.99806563 6.20696275 4 10 C2.0625 9.625 2.0625 9.625 0 9 C-0.33 8.34 -0.66 7.68 -1 7 C-0.34 7 0.32 7 1 7 C0.34 6.01 -0.32 5.02 -1 4 C-0.625 1.8125 -0.625 1.8125 0 0 Z " fill="#D14A48" transform="translate(386,107)"/>
<path d="M0 0 C0.93065133 2.60582371 1.14917407 3.64198224 0.0625 6.25 C-0.4634375 7.11625 -0.4634375 7.11625 -1 8 C-1.66 8 -2.32 8 -3 8 C-3.33 6.02 -3.66 4.04 -4 2 C-2.68 2 -1.36 2 0 2 C0 1.34 0 0.68 0 0 Z " fill="#D3593E" transform="translate(207,128)"/>
<path d="M0 0 C1.5625 1.75 1.5625 1.75 3 4 C2.6875 6.25 2.6875 6.25 2 8 C1.34 7.34 0.68 6.68 0 6 C-0.66 7.32 -1.32 8.64 -2 10 C-3 8 -3 8 -2.44140625 6.0546875 C-2.15136719 5.33539063 -1.86132812 4.61609375 -1.5625 3.875 C-1.27503906 3.15054688 -0.98757813 2.42609375 -0.69140625 1.6796875 C-0.46324219 1.12539063 -0.23507812 0.57109375 0 0 Z " fill="#F4CDCC" transform="translate(257,54)"/>
<path d="M0 0 C0.66 0.33 1.32 0.66 2 1 C1.01 4.3 0.02 7.6 -1 11 C-1.33 11 -1.66 11 -2 11 C-2 7.7 -2 4.4 -2 1 C-1.34 0.67 -0.68 0.34 0 0 Z " fill="#C03941" transform="translate(324,85)"/>
<path d="M0 0 C1.9451 2.91765 2.45276317 4.62537285 3 8 C1.68 7.67 0.36 7.34 -1 7 C-1.33 7.99 -1.66 8.98 -2 10 C-1.54177532 6.53058454 -1.10868317 3.32604951 0 0 Z " fill="#C95257" transform="translate(235,38)"/>
<path d="M0 0 C0.33 0.66 0.66 1.32 1 2 C0.67 2.66 0.34 3.32 0 4 C0.66 4 1.32 4 2 4 C2 4.66 2 5.32 2 6 C1.34 6 0.68 6 0 6 C-0.33 6.66 -0.66 7.32 -1 8 C-1.99 8 -2.98 8 -4 8 C-2.87548273 5.0280615 -1.77706209 2.66559313 0 0 Z " fill="#D05847" transform="translate(110,24)"/>
<path d="M0 0 C1.60372657 4.00931642 0.38691773 7.05823382 -1 11 C-1.66 11.66 -2.32 12.32 -3 13 C-2.45144652 8.428721 -1.58255197 4.32564205 0 0 Z " fill="#D6625B" transform="translate(322,10)"/>
<path d="M0 0 C0.99 0 1.98 0 3 0 C3.69289369 3.72430357 4.11144596 7.21083746 4 11 C1.6870518 8.6870518 1.50419025 7.52095125 0.875 4.375 C0.70742188 3.55773437 0.53984375 2.74046875 0.3671875 1.8984375 C0.24601562 1.27195312 0.12484375 0.64546875 0 0 Z " fill="#BC394B" transform="translate(276,113)"/>
<path d="M0 0 C0.66 0 1.32 0 2 0 C1.34 2.64 0.68 5.28 0 8 C-0.99 8 -1.98 8 -3 8 C-3 6.35 -3 4.7 -3 3 C-2.01 3.33 -1.02 3.66 0 4 C0 2.68 0 1.36 0 0 Z " fill="#BA3A43" transform="translate(318,104)"/>
<path d="M0 0 C0.99 0.33 1.98 0.66 3 1 C2.67 2.32 2.34 3.64 2 5 C-0.02045442 4.39816251 -2.02111039 3.72693904 -4 3 C-4.33 2.34 -4.66 1.68 -5 1 C-2.525 1.495 -2.525 1.495 0 2 C0 1.34 0 0.68 0 0 Z " fill="#C54044" transform="translate(125,73)"/>
<path d="M0 0 C2.475 0.99 2.475 0.99 5 2 C4.34 2.66 3.68 3.32 3 4 C-0.625 3.625 -0.625 3.625 -4 3 C-4 2.34 -4 1.68 -4 1 C-2.68 1.33 -1.36 1.66 0 2 C0 1.34 0 0.68 0 0 Z " fill="#C1403E" transform="translate(156,67)"/>
<path d="M0 0 C0.33 0 0.66 0 1 0 C1.390625 5.95703125 1.390625 5.95703125 1 8 C-0.32 8.99 -1.64 9.98 -3 11 C-2.01 7.37 -1.02 3.74 0 0 Z " fill="#C55963" transform="translate(243,12)"/>
<path d="M0 0 C-1.26418246 0.69965443 -2.53665402 1.38434763 -3.8125 2.0625 C-4.52019531 2.44535156 -5.22789062 2.82820312 -5.95703125 3.22265625 C-8 4 -8 4 -11 3 C-4.03571429 -1.41964286 -4.03571429 -1.41964286 0 0 Z " fill="#D46050" transform="translate(134,12)"/>
<path d="M0 0 C0.33 0 0.66 0 1 0 C1.25 3.3125 1.25 3.3125 1 7 C-0.32 7.99 -1.64 8.98 -3 10 C-2.01 6.7 -1.02 3.4 0 0 Z " fill="#F6E4DB" transform="translate(238,116)"/>
<path d="M0 0 C0.66 0 1.32 0 2 0 C2 3.3 2 6.6 2 10 C-0.13262124 6.80106814 -0.59021548 4.77001757 -1 1 C-0.67 0.67 -0.34 0.34 0 0 Z " fill="#C64242" transform="translate(261,59)"/>
<path d="M0 0 C0.66 0 1.32 0 2 0 C2.66 2.97 3.32 5.94 4 9 C3.34 9 2.68 9 2 9 C0.50178941 5.62902617 0 3.79557881 0 0 Z " fill="#CA4633" transform="translate(168,22)"/>
<path d="M0 0 C0.99 0.33 1.98 0.66 3 1 C2.34 3.31 1.68 5.62 1 8 C0.34 8 -0.32 8 -1 8 C-0.67 5.36 -0.34 2.72 0 0 Z " fill="#B32438" transform="translate(285,129)"/>
<path d="M0 0 C1.125 1.75 1.125 1.75 2 4 C1.05773345 6.66975522 0.01384202 7.98615798 -2 10 C-1.54177532 6.53058454 -1.10868317 3.32604951 0 0 Z " fill="#F6D9D9" transform="translate(325,86)"/>
<path d="M0 0 C1 4 1 4 1 7 C-0.32 8.32 -1.64 9.64 -3 11 C-2.01 7.37 -1.02 3.74 0 0 Z " fill="#F1D0CA" transform="translate(252,69)"/>
<path d="M0 0 C0.33 0.66 0.66 1.32 1 2 C1.66 2 2.32 2 3 2 C3 3.98 3 5.96 3 8 C2.34 8 1.68 8 1 8 C-0.35439668 5.29120665 -0.06501451 2.99066732 0 0 Z " fill="#B3203A" transform="translate(352,32)"/>
<path d="M0 0 C2.45823172 3.68734758 3.01242616 6.69699971 4 11 C2.68 10.34 1.36 9.68 0 9 C0 6.03 0 3.06 0 0 Z " fill="#CC606B" transform="translate(195,19)"/>
</svg>
